<?xml version="1.0" encoding="UTF-8"?>
<svg width="460px" height="197px" viewBox="0 0 460 197" version="1.1" xmlns="http://www.w3.org/2000/svg" xmlns:xlink="http://www.w3.org/1999/xlink">
    <title>Card_1 lot@2x</title>
    <defs>
        <linearGradient x1="5.98517236%" y1="41.6452611%" x2="93.6631397%" y2="58.1739282%" id="linearGradient-1">
            <stop stop-color="#FFBF14" offset="0%"></stop>
            <stop stop-color="#FF802F" offset="100%"></stop>
        </linearGradient>
    </defs>
    <g id="LandX-Festival-End-Year-CUAN" stroke="none" stroke-width="1" fill="none" fill-rule="evenodd">
        <g id="LandX-CUAN-Landingpage_Desktop-3" transform="translate(-256.000000, -1850.000000)">
            <g id="Card_1-lot" transform="translate(256.000000, 1850.000000)">
                <path d="M169.567054,2.66453526e-15 C169.567054,3.85815942 172.730294,6.9858156 176.632348,6.9858156 C180.534402,6.9858156 183.697642,3.85815942 183.697642,2.66453526e-15 L442.4464,4.54747351e-13 C451.723517,4.53043172e-13 459.244105,7.52058874 459.244105,16.7977051 L459.244105,180.202295 C459.244105,189.479411 451.723517,197 442.4464,197 L183.697642,197.001001 C183.697642,197.000667 183.697642,197.000334 183.697642,197 C183.697642,193.141841 180.534402,190.014184 176.632348,190.014184 C172.730294,190.014184 169.567054,193.141841 169.567054,197 L169.567,197 L16.7977051,197 C7.52058874,197 1.53469738e-14,189.479411 0,180.202295 L0,16.7977051 C-1.13611909e-15,7.52058874 7.52058874,4.52898816e-13 16.7977051,4.54747351e-13 L169.567054,2.66453526e-15 L169.567054,2.66453526e-15 Z" id="Combined-Shape" fill="url(#linearGradient-1)"></path>
                <text id="Beli-Copy-2" font-family="Inter-Bold, Inter" font-size="22.3969401" font-weight="bold" fill="#FFFFFF">
                    <tspan x="25.947792" y="63.8893816">BELI</tspan>
                </text>
                <g id="Group-34" transform="translate(214.920641, 70.557773)" fill="#FFFFFF">
                    <text id="Ribu" font-family="Inter-ExtraBold, Inter" font-size="43.3940715" font-weight="700">
                        <tspan x="114.811026" y="76.9954866">Ribu</tspan>
                    </text>
                    <text id="25" font-family="Inter-Bold, Inter" font-size="81.188908" font-weight="bold">
                        <tspan x="0" y="79">25</tspan>
                    </text>
                </g>
                <g id="Group-35" transform="translate(25.902488, 69.858851)" fill="#FFFFFF">
                    <text id="Lot" font-family="Inter-ExtraBold, Inter" font-size="43.3940715" font-weight="700">
                        <tspan x="43.4041685" y="76.9958347">Lot</tspan>
                    </text>
                    <text id="1" font-family="Inter-Bold, Inter" font-size="81.188908" font-weight="bold">
                        <tspan x="0" y="79">1</tspan>
                    </text>
                </g>
                <text id="Dapat-Voucher-Copy-4" font-family="Inter-Bold, Inter" font-size="22.3969401" font-weight="bold" fill="#FFFFFF">
                    <tspan x="215.114603" y="63.8893816">DAPAT VOUCHER</tspan>
                </text>
                <g id="Group-8" transform="translate(174.316741, 18.163121)" fill="#C66425">
                    <ellipse id="Oval-Copy-20" cx="2.80026894" cy="25.1489362" rx="2.80026894" ry="2.79432624"></ellipse>
                    <ellipse id="Oval-Copy-26" cx="2.80026894" cy="2.79432624" rx="2.80026894" ry="2.79432624"></ellipse>
                    <ellipse id="Oval-Copy-33" cx="2.80026894" cy="47.5035461" rx="2.80026894" ry="2.79432624"></ellipse>
                    <ellipse id="Oval-Copy-32" cx="2.80026894" cy="69.858156" rx="2.80026894" ry="2.79432624"></ellipse>
                    <ellipse id="Oval-Copy-31" cx="2.80026894" cy="92.212766" rx="2.80026894" ry="2.79432624"></ellipse>
                    <ellipse id="Oval-Copy-30" cx="2.80026894" cy="114.567376" rx="2.80026894" ry="2.79432624"></ellipse>
                    <ellipse id="Oval-Copy-29" cx="2.80026894" cy="136.921986" rx="2.80026894" ry="2.79432624"></ellipse>
                    <ellipse id="Oval-Copy-28" cx="2.80026894" cy="159.276596" rx="2.80026894" ry="2.79432624"></ellipse>
                </g>
            </g>
        </g>
    </g>
</svg>