<svg xmlns="http://www.w3.org/2000/svg" viewBox="0 0 50 56.72"><defs><style>.cls-1{fill:#00dd80;}.cls-2{fill:#00aa63;}.cls-3{fill:#f2f2f2;}.cls-4{fill:#2dbe60;}</style></defs><g id="Layer_2" data-name="Layer 2"><g id="Layer_1-2" data-name="Layer 1"><path class="cls-1" d="M50,2V25.13c0,8.43-4.32,16.36-12.82,23.56a64.16,64.16,0,0,1-12.17,8h0l-.27-.14C19.26,53.79,0,42.74,0,25.13V2A2,2,0,0,1,2,0H48A2,2,0,0,1,50,2Z"/><path class="cls-2" d="M50,2V25.13c0,8.43-4.32,16.36-12.82,23.56a64.16,64.16,0,0,1-12.17,8V0H48A2,2,0,0,1,50,2Z"/><path class="cls-3" d="M36.62,18.18a13,13,0,1,0-5.8,17.44A13,13,0,0,0,36.62,18.18Z"/><path class="cls-4" d="M22.38,30.28h-.06a1.16,1.16,0,0,1-.78-.38L17.06,25l1.77-1.63,3.66,4,8.83-8.15L33,21l-9.72,9A1.23,1.23,0,0,1,22.38,30.28Z"/></g></g></svg>