<svg xmlns="http://www.w3.org/2000/svg" viewBox="0 0 48 51.54"><defs><style>.cls-1{fill:#ffb541;}.cls-2{fill:#fad731;}.cls-3{fill:#c48a22;}.cls-4,.cls-6{fill:#d89f2c;}.cls-5{fill:#ffc008;}.cls-6{opacity:0.5;}.cls-7{fill:#ffea90;}</style></defs><g id="Layer_2" data-name="Layer 2"><g id="Layer_1-2" data-name="Layer 1"><path class="cls-1" d="M47.05,6.76a4.56,4.56,0,0,0-3.7-1.85H42a.8.8,0,0,0-.8.74l-.95,10.17a16.88,16.88,0,0,1-1.53,5.64.81.81,0,0,0,.16.91.75.75,0,0,0,.28.18.83.83,0,0,0,.62,0,12.33,12.33,0,0,0,7-8l1-3.7A4.6,4.6,0,0,0,47.05,6.76ZM42.22,19a.5.5,0,0,1-.34.13.54.54,0,0,1-.25-.06l-.06,0a.48.48,0,0,1-.17-.5A18.89,18.89,0,0,0,41.82,16l.84-9A.49.49,0,0,1,43,6.55l.12,0h.2a3,3,0,0,1,2.91,3.85l-1,3.71A10.82,10.82,0,0,1,42.22,19Z"/><path class="cls-2" d="M46.44,6.76a4.56,4.56,0,0,0-3.7-1.85H42a.8.8,0,0,0-.8.74l-.95,10.17a16.88,16.88,0,0,1-1.53,5.64.81.81,0,0,0,.16.91.75.75,0,0,0,.28.18h0a12.33,12.33,0,0,0,7-8l1-3.7A4.6,4.6,0,0,0,46.44,6.76Zm-5.17,12.4A.54.54,0,0,1,41,19.1a.49.49,0,0,1-.23-.54A18.89,18.89,0,0,0,41.21,16l.84-9a.5.5,0,0,1,.49-.45h.2l.29,0a3,3,0,0,1,2.62,3.83l-1,3.71a10.82,10.82,0,0,1-3,4.94l0,0A.45.45,0,0,1,41.27,19.16Z"/><path class="cls-1" d="M.18,10.83l1,3.7a12.33,12.33,0,0,0,7,8,.83.83,0,0,0,.62,0,.75.75,0,0,0,.28-.18.81.81,0,0,0,.16-.91,16.88,16.88,0,0,1-1.53-5.64l-1-10.17A.8.8,0,0,0,6,4.91H4.65A4.56,4.56,0,0,0,1,6.76,4.6,4.6,0,0,0,.18,10.83Zm2.6,3.26-1-3.71a3,3,0,0,1,.5-2.64A3,3,0,0,1,4.65,6.53h.2l.12,0A.49.49,0,0,1,5.34,7l.84,9a18.89,18.89,0,0,0,.42,2.59.48.48,0,0,1-.17.5l-.06,0a.54.54,0,0,1-.25.06A.5.5,0,0,1,5.78,19,10.82,10.82,0,0,1,2.78,14.09Z"/><path class="cls-2" d="M.79,10.83l1,3.7a12.33,12.33,0,0,0,7,8h0a.75.75,0,0,0,.28-.18.81.81,0,0,0,.16-.91,16.88,16.88,0,0,1-1.53-5.64l-1-10.17A.8.8,0,0,0,6,4.91H5.26a4.56,4.56,0,0,0-3.7,1.85A4.6,4.6,0,0,0,.79,10.83Zm5.64,8.23,0,0a10.82,10.82,0,0,1-3-4.94l-1-3.71A3,3,0,0,1,5,6.55l.29,0h.2A.5.5,0,0,1,6,7l.84,9a18.89,18.89,0,0,0,.42,2.59A.49.49,0,0,1,7,19.1a.54.54,0,0,1-.25.06A.45.45,0,0,1,6.43,19.06Z"/><rect class="cls-3" x="7.62" y="49.13" width="32.77" height="2.41"/><rect class="cls-4" x="7.62" y="49.13" width="32.77" height="0.89"/><path class="cls-4" d="M38.38,40.78v8.35H9.61V40.78Z"/><rect class="cls-2" x="15.55" y="43.73" width="16.91" height="2.46"/><rect class="cls-5" x="9.61" y="38.23" width="28.77" height="2.55"/><rect class="cls-2" x="7.55" width="32.85" height="1.6"/><path class="cls-2" d="M34.32,38.23H13.91A30.32,30.32,0,0,0,21.23,27.5a23.15,23.15,0,0,0,2.77.17h.05A24.31,24.31,0,0,0,27,27.48,30.34,30.34,0,0,0,34.32,38.23Z"/><path class="cls-5" d="M34.32,38.23H13.91A30.32,30.32,0,0,0,21.23,27.5a23.15,23.15,0,0,0,2.77.17h.05A24.31,24.31,0,0,0,27,27.48,30.34,30.34,0,0,0,34.32,38.23Z"/><path class="cls-5" d="M43.2,1.6,41.83,16.38a18.12,18.12,0,0,1-1.6,5.91,17.82,17.82,0,0,1-6.58,7.52,18,18,0,0,1-6.92,2.6,19,19,0,0,1-2.71.2h0a18.12,18.12,0,0,1-2.58-.18,17.83,17.83,0,0,1-13.56-10,17.62,17.62,0,0,1-1.67-6.06L4.8,1.61H43.2Z"/><path class="cls-6" d="M27.25,16.55,28,20a.43.43,0,0,1-.63.46l-3.09-1.77a.56.56,0,0,0-.56,0l-3.1,1.77A.42.42,0,0,1,20,20l.72-3.48a.57.57,0,0,0-.17-.54l-2.64-2.39a.43.43,0,0,1,.24-.74l3.54-.39a.57.57,0,0,0,.46-.33l1.46-3.25a.42.42,0,0,1,.77,0l1.47,3.25a.54.54,0,0,0,.45.33l3.54.39a.43.43,0,0,1,.24.74L27.42,16A.57.57,0,0,0,27.25,16.55Z"/><path class="cls-7" d="M26.84,16.1,27.65,20l-3.43-2a.53.53,0,0,0-.49,0L20.3,20l.81-3.86a.49.49,0,0,0-.15-.47L18,13,22,12.55a.52.52,0,0,0,.4-.29L24,8.66l1.62,3.6a.49.49,0,0,0,.39.29l3.93.43L27,15.63A.52.52,0,0,0,26.84,16.1Z"/></g></g></svg>