<?xml version="1.0" encoding="UTF-8"?>
<svg width="16px" height="16px" viewBox="0 0 16 16" version="1.1" xmlns="http://www.w3.org/2000/svg" xmlns:xlink="http://www.w3.org/1999/xlink">
    <title>logo-whatsapp@1x</title>
    <g id="Page-1" stroke="none" stroke-width="1" fill="none" fill-rule="evenodd">
        <g id="LandX-Web_v2" transform="translate(-1392.000000, -17.000000)" fill="#FFFFFF" fill-rule="nonzero">
            <g id="Group-47" transform="translate(381.000000, 11.000000)">
                <g id="Group-64" transform="translate(1011.000000, 0.000000)">
                    <g id="logo-whatsapp" transform="translate(0.000000, 6.000000)">
                        <path d="M13.668885,2.32506566 C12.1750355,0.830498446 10.1466658,-0.00635346741 8.03354582,3.63248135e-05 C3.64284553,3.63248135e-05 0.06857121,3.5564903 0.0667855014,7.92861922 C0.0648431534,9.32080116 0.431818369,10.6886403 1.13035354,11.8928923 L0,16.0000221 L4.22320082,14.8975256 C5.3922033,15.5308215 6.70080896,15.8622695 8.03033155,15.8618082 L8.03354582,15.8618082 C12.423889,15.8618082 15.9978062,12.3050338 15.9999746,7.93326207 C16.0053214,5.82712475 15.1655919,3.80685912 13.668885,2.32506566 Z M8.03354582,14.5235985 L8.03068869,14.5235985 C6.84547212,14.5239481 5.68180417,14.2067635 4.66069943,13.6050297 L4.41891449,13.462173 L1.91285105,14.1164566 L2.58177748,11.6846787 L2.42427799,11.4346795 C1.76156073,10.3854602 1.41044118,9.16960812 1.41177739,7.92861922 C1.41177739,4.29541652 4.38355746,1.33934375 8.03604581,1.33934375 C11.6846432,1.3328393 14.6478591,4.28502292 14.6549533,7.93361921 C14.6535247,11.5671791 11.683177,14.5235985 8.03354582,14.5235985 Z M11.66532,9.58825679 C11.466392,9.48897139 10.4867523,9.00968721 10.3053243,8.94361599 C10.1238963,8.87754477 9.98996816,8.84433059 9.85746858,9.04290139 C9.724969,9.24147218 9.3431845,9.68575648 9.22711345,9.81968462 C9.11104239,9.95361277 8.99497133,9.96825558 8.79604339,9.86897018 C8.59711545,9.76968478 7.95533179,9.56075688 7.19497707,8.88575903 C6.60319324,8.36040356 6.2039088,7.7118342 6.08783774,7.51362055 C5.97176668,7.31540689 6.07533778,7.20790724 6.17498032,7.10933612 C6.26462289,7.02040783 6.37390825,6.87790829 6.47355079,6.76219437 C6.57319333,6.64648045 6.60640751,6.56362357 6.67247873,6.43148114 C6.73854995,6.2993387 6.70569291,6.18362479 6.65605021,6.08469653 C6.60640751,5.98576827 6.2081945,5.01041424 6.04248074,4.61362979 C5.88069554,4.22720245 5.71676749,4.27970228 5.59462502,4.27363087 C5.47855397,4.26791661 5.34462582,4.26648804 5.21284053,4.26648804 C5.00918485,4.27178914 4.81691614,4.36158355 4.68212793,4.51434439 C4.49962851,4.71291519 3.98534444,5.19291366 3.98534444,6.16719627 C3.98534444,7.14147888 4.69962788,8.08433301 4.79819899,8.21647545 C4.89677011,8.34861788 6.20176595,10.3496829 8.1985453,11.2078945 C8.5693271,11.3666823 8.94817924,11.5059206 9.33354168,11.625036 C9.81032587,11.7757498 10.2442531,11.7546785 10.5871091,11.7036072 C10.9696079,11.6468217 11.7656768,11.224323 11.9310334,10.7614673 C12.09639,10.2986117 12.0967472,9.90218436 12.0471045,9.81968462 C11.9974618,9.73718489 11.864605,9.68718505 11.66532,9.58825679 Z" id="Shape"></path>
                    </g>
                </g>
            </g>
        </g>
    </g>
</svg>