<svg xmlns="http://www.w3.org/2000/svg" viewBox="0 0 52 47.31"><defs><style>.cls-1{fill:#3ad7fc;}.cls-2{fill:#f2f2f2;}.cls-3{fill:#ccc;}.cls-4{fill:#00acef;}.cls-5{fill:#10c7ff;}.cls-6{fill:#2dbe60;}.cls-7{fill:#fff;}</style></defs><g id="Layer_2" data-name="Layer 2"><g id="Layer_1-2" data-name="Layer 1"><polygon class="cls-1" points="52 15.01 52 47.31 0 47.31 0 15.01 0.02 15 0.03 15 26 15.01 51.97 15 52 15.01"/><rect class="cls-2" x="8.92" width="34.07" height="37.91" rx="1"/><path class="cls-3" d="M33.08,25H18.93a.61.61,0,0,1-.62-.61.62.62,0,0,1,.62-.62H33.08a.61.61,0,0,1,.61.62A.61.61,0,0,1,33.08,25Z"/><circle class="cls-3" cx="40.39" cy="2.6" r="1.02"/><circle class="cls-3" cx="11.53" cy="2.6" r="1.02"/><path class="cls-4" d="M52,47.3H0L19.45,29.11a9.58,9.58,0,0,1,13.1,0L36.66,33Z"/><polygon class="cls-5" points="52 15 52 47.3 36.66 32.95 52 15"/><polygon class="cls-5" points="0 15 0 47.3 15.34 32.95 0 15"/><path class="cls-3" d="M33.08,20.67H18.93a.62.62,0,0,1-.62-.62.61.61,0,0,1,.62-.61H33.08a.61.61,0,0,1,.61.61A.61.61,0,0,1,33.08,20.67Z"/><path class="cls-6" d="M27.44,5.68A4.65,4.65,0,0,0,26,5.47,5.54,5.54,0,0,0,20.47,11a5.65,5.65,0,0,0,.19,1.42,5.53,5.53,0,1,0,6.78-6.74Zm-2.12,7.9a.51.51,0,0,1-.39.16h0a.54.54,0,0,1-.36-.16l-2.16-2.16.79-.77,1.73,1.72,0,0,3.91-3.91.79.78Z"/><path class="cls-6" d="M27.86,7.73A5.06,5.06,0,0,1,27.33,10,5.16,5.16,0,0,1,25,12.31a.39.39,0,0,1-.13.06,5.11,5.11,0,0,1-1.18.39,4.53,4.53,0,0,1-1,.1,5.19,5.19,0,0,1-2.07-.44A5.65,5.65,0,0,1,20.47,11,5.54,5.54,0,0,1,26,5.47a4.65,4.65,0,0,1,1.44.21A5.36,5.36,0,0,1,27.86,7.73Z"/><path class="cls-7" d="M29.63,9.27l-4.31,4.31a.51.51,0,0,1-.39.16h0a.54.54,0,0,1-.36-.16l-2.16-2.16.79-.77,1.77,1.75,3.91-3.91Z"/></g></g></svg>