<?xml version="1.0" encoding="UTF-8"?>
<svg width="90px" height="30px" viewBox="0 0 90 30" version="1.1" xmlns="http://www.w3.org/2000/svg" xmlns:xlink="http://www.w3.org/1999/xlink">
    <!-- Generator: sketchtool 52.5 (67469) - http://www.bohemiancoding.com/sketch -->
    <title>45D4C89F-FEF3-49B2-81FB-55B2195A6FD9</title>
    <desc>Created with sketchtool.</desc>
    <g id="Symbols" stroke="none" stroke-width="1" fill="none" fill-rule="evenodd">
        <g id="LX-logo-color" fill-rule="nonzero">
            <g id="Group">
                <path d="M6.97042424e-12,4.9144278 L4.18097396,4.9144278 L4.18097396,21.1905535 L12.6586708,21.1905535 L12.6586708,24.6265988 L6.97042424e-12,24.6265988 L6.97042424e-12,4.9144278 Z M23.8495597,19.3424418 L23.8495597,17.7733821 C23.72053,17.8570636 23.5452008,17.9323649 23.3232065,17.9997717 C23.1010904,18.0671784 22.85156,18.1281482 22.574981,18.1826809 C22.2979145,18.2370921 22.0210918,18.2854307 21.7446345,18.3272107 C21.4675681,18.3688693 21.2166975,18.4055483 20.9914135,18.437855 C20.5085576,18.5082981 20.086744,18.6206427 19.7264602,18.774646 C19.3658108,18.9284063 19.0858202,19.1354848 18.8864883,19.3953956 C18.6867909,19.6553064 18.5870031,19.9777659 18.5870031,20.362774 C18.5870031,20.9210964 18.7914523,21.3461842 19.2001071,21.6380373 C19.6090055,21.9300119 20.1286573,22.0761207 20.7596719,22.0761207 C21.3644906,22.0761207 21.8988852,21.9556386 22.3624902,21.715039 C22.8258516,21.4745607 23.1894251,21.148822 23.4534546,20.7379443 C23.717484,20.327431 23.8495597,19.8620206 23.8495597,19.3424418 Z M27.4219378,12.3883699 C27.7630926,13.0202933 27.9339137,13.7759779 27.9339137,14.6550595 L27.9339137,24.6266474 L24.0329304,24.6266474 L24.0329304,22.5765097 L23.9170596,22.5765097 C23.6787386,23.0385194 23.3602462,23.4444175 22.9612169,23.7940826 C22.561944,24.1439906 22.0824996,24.4164111 21.5225184,24.6123159 C20.9622935,24.8078563 20.3155614,24.9057479 19.5814694,24.9057479 C18.6352522,24.9057479 17.7921124,24.7404495 17.0518065,24.4100956 C16.3115006,24.0796202 15.7271512,23.5887045 15.2992456,22.9373485 C14.8712181,22.2862355 14.6571435,21.4728604 14.6571435,20.4974661 C14.6571435,19.676075 14.8083482,18.9864612 15.1108794,18.4280173 C15.4135324,17.8696948 15.825355,17.4206806 16.3469563,17.0806104 C16.868314,16.7405402 17.462167,16.4837872 18.1283936,16.3105942 C18.7946202,16.1372799 19.4947186,16.0154619 20.2284451,15.9446544 C21.0912012,15.8550216 21.7861823,15.7698826 22.3142412,15.6898446 C22.8419346,15.6095637 23.2250027,15.4892032 23.4633237,15.3287629 C23.701401,15.1683226 23.8204397,14.9310022 23.8204397,14.6164372 L23.8204397,14.5587467 C23.8204397,13.9491708 23.6287838,13.4776877 23.2459593,13.1438117 C22.8630131,12.8104214 22.3205769,12.6433011 21.6188946,12.6433011 C20.8787105,12.6433011 20.2896093,12.8055632 19.8518346,13.1294801 C19.4141817,13.4535185 19.1245656,13.859538 18.9831082,14.3469316 L15.178623,14.0390465 C15.3716191,13.1406539 15.7515194,12.3628647 16.3178363,11.7048288 C16.8842751,11.0471572 17.6166614,10.5402097 18.5146296,10.1843505 C19.4124759,9.82800543 20.4537291,9.64995437 21.6383892,9.64995437 C22.4620343,9.64995437 23.2521732,9.74626712 24.0089277,9.93864971 C24.765073,10.1313967 25.4377571,10.4295654 26.0268584,10.8337631 C26.6159596,11.2382038 27.0809049,11.7562037 27.4219378,12.3883699 Z M35.242997,16.0795651 L35.242997,24.6266231 L31.1297666,24.6266231 L31.1297666,9.84243413 L35.0501227,9.84243413 L35.0501227,12.4508943 L35.2237461,12.4508943 C35.5521076,11.5910024 36.1024634,10.909283 36.8749354,10.4056147 C37.6474073,9.90194642 38.5839991,9.65005154 39.6848325,9.65005154 C40.7146327,9.65005154 41.612479,9.87461934 42.3788589,10.3236335 C43.1446296,10.7728906 43.7401884,11.4129513 44.165048,12.2439372 C44.5900294,13.0749231 44.8022764,14.064649 44.8022764,15.2132362 L44.8022764,24.6266231 L40.6889242,24.6266231 L40.6889242,15.9447515 C40.6953818,15.0400433 40.4633965,14.3325757 39.9936995,13.8225918 C39.5238806,13.3122436 38.8769048,13.0573124 38.0528942,13.0573124 C37.4992486,13.0573124 37.011641,13.1759726 36.5901929,13.413293 C36.1683794,13.6508564 35.8401397,13.9957847 35.6052303,14.4480782 C35.3700771,14.9003716 35.2494546,15.444241 35.242997,16.0795651 Z M57.552462,19.5348244 C57.8000429,18.8805536 57.9243208,18.1136952 57.9243208,17.2347351 C57.9243208,16.3555321 57.8017487,15.591953 57.5572138,14.9437548 C57.3124353,14.2955567 56.9584871,13.7951676 56.4951258,13.4423447 C56.0318863,13.0895219 55.4683717,12.9129283 54.805313,12.9129283 C54.1294609,12.9129283 53.5597324,13.0955946 53.0962492,13.4615344 C52.6327661,13.8273528 52.2817422,14.3341789 52.0436648,14.9823771 C51.8055875,15.6305752 51.6865489,16.3812803 51.6865489,17.2347351 C51.6865489,18.094627 51.8072933,18.8532265 52.0485385,19.510898 C52.2901492,20.168691 52.6408076,20.6820756 53.101001,21.0508089 C53.5611945,21.4199066 54.1294609,21.6042732 54.805313,21.6042732 C55.4683717,21.6042732 56.0299369,21.4231858 56.490374,21.0605252 C56.9505675,20.6981075 57.3045156,20.1894596 57.552462,19.5348244 Z M57.8372044,4.91447638 L61.9411749,4.91447638 L61.9411749,24.6266474 L57.8854535,24.6266474 L57.8854535,22.2589084 L57.7118301,22.2589084 C57.5188339,22.6697861 57.2465193,23.0754413 56.895739,23.4763599 C56.5447151,23.8776427 56.0911011,24.209697 55.5345314,24.4725227 C54.9774743,24.7357128 54.3000383,24.8671257 53.5019798,24.8671257 C52.375316,24.8671257 51.3566034,24.5769729 50.4457201,23.996303 C49.5345931,23.4155116 48.8140254,22.5588989 48.2827986,21.4263436 C47.7518156,20.2939097 47.486324,18.902901 47.486324,17.2538033 C47.486324,15.5597677 47.7599789,14.1498123 48.3071669,13.0235725 C48.8539893,11.8975757 49.582964,11.0538372 50.4939691,10.492114 C51.4049743,9.93075522 52.4043142,9.64995437 53.4923543,9.64995437 C54.3227008,9.64995437 55.0162197,9.78938317 55.5729113,10.0686051 C56.1297247,10.3479485 56.5802927,10.6943343 56.9249809,11.1081269 C57.2693035,11.522041 57.5316272,11.9278177 57.7118301,12.3256998 L57.8372044,12.3256998 L57.8372044,4.91447638 Z M78.662244,14.1149551 L74.1626558,14.1149551 C73.4760818,14.1149551 72.8291061,13.7934673 72.4159432,13.2466829 L66.1207842,4.91447638 L71.3533679,4.91447638 C71.3533679,4.91447638 75.9294722,10.9642044 76.6371247,11.8834871 C77.3719478,12.8381128 78.1469784,13.3885408 78.7616663,13.7035915 C78.966481,13.808649 78.8925235,14.1149551 78.662244,14.1149551 Z M62.0232104,30 L72.4750971,16.2803523 C72.8886254,15.7376974 73.5329206,15.419003 74.2164486,15.419003 L77.2417607,15.419003 L78.6536542,15.419003 C78.8863705,15.419003 78.9571602,15.7300458 78.7485684,15.832917 C78.1249861,16.1401948 77.3599465,16.6691254 76.6766621,17.5737122 C75.9843616,18.4898372 67.2556722,30 67.2556722,30 L62.0232104,30 Z M78.034836,17.9511781 C79.0146813,16.6504094 80.9703512,16.6438509 81.9589691,17.9379396 L87.0636197,24.6194695 L81.831036,24.6194695 L77.5406489,18.9347098 C77.4675443,18.8377897 77.4675443,18.7043122 77.540527,18.6072707 L78.034836,17.9511781 Z" id="Combined-Shape" fill="#5E798D"></path>
                <path d="M90,8.8817842e-16 L84.8778043,8.8817842e-16 L77.1661218,10.1240123 C77.0920425,10.2214181 77.0920425,10.3559888 77.166,10.4533946 L78.0292435,11.5892292 C78.8252307,12.6367669 80.4048993,12.6364026 81.200521,11.5886219 L90,8.8817842e-16 Z" id="Fill-8" fill="#2DBE60"></path>
            </g>
        </g>
    </g>
</svg>