<?xml version="1.0" encoding="UTF-8"?>
<svg width="217px" height="50px" viewBox="0 0 217 50" version="1.1" xmlns="http://www.w3.org/2000/svg" xmlns:xlink="http://www.w3.org/1999/xlink">
    <!-- Generator: Sketch 52.5 (67469) - http://www.bohemiancoding.com/sketch -->
    <title>LX logoTagline-color Copy 3</title>
    <desc>Created with Sketch.</desc>
    <defs>
        <polygon id="path-1" points="0.0516553707 0.110122699 11.8629 0.110122699 11.8629 11.5755138 0.0516553707 11.5755138"></polygon>
        <polygon id="path-3" points="0 49.6932515 216.834435 49.6932515 216.834435 0.110122699 0 0.110122699"></polygon>
    </defs>
    <g id="01-Landing-page" stroke="none" stroke-width="1" fill="none" fill-rule="evenodd">
        <g id="Desktop-Copy-6" transform="translate(-164.000000, -25.000000)">
            <g id="LX-logoTagline-color-Copy-3" transform="translate(164.000000, 25.000000)">
                <g id="Group-56">
                    <polygon id="Fill-1" fill="#5E798D" points="0 4.86006135 0 23.123865 11.5996087 23.123865 11.5996087 19.9404294 3.83113043 19.9404294 3.83113043 4.86006135"></polygon>
                    <g id="Group-55" transform="translate(0.000000, 0.196626)">
                        <path d="M21.8545174,18.0313497 C21.8545174,18.512638 21.7336913,18.9442331 21.4917348,19.3246012 C21.2497783,19.7049693 20.9165174,20.0068098 20.4919522,20.229816 C20.0670826,20.4525153 19.577387,20.5641718 19.0231696,20.5641718 C18.4449087,20.5641718 17.9686043,20.428589 17.5939522,20.1586503 C17.2196043,19.8880982 17.0321261,19.4942331 17.0321261,18.9767485 C17.0321261,18.62 17.1237348,18.321227 17.3066478,18.0804294 C17.4892565,17.8396319 17.7458217,17.6479141 18.0763435,17.5052761 C18.4065609,17.362638 18.7930826,17.2583436 19.2356043,17.1933129 C19.4419522,17.1635583 19.6717348,17.1295092 19.9258652,17.0908589 C20.1790826,17.0522086 20.4329087,17.0074233 20.6867348,16.9568098 C20.9399522,16.9061963 21.1688217,16.8497546 21.3724304,16.7874847 C21.5757348,16.724908 21.7364304,16.6552761 21.8545174,16.5776687 L21.8545174,18.0313497 Z M25.1280826,11.5884049 C24.8155174,11.0025153 24.3894304,10.522454 23.8498217,10.1479141 C23.3099087,9.77337423 22.6936043,9.49730061 22.0006043,9.31877301 C21.3073,9.14055215 20.5832565,9.05128834 19.8284739,9.05128834 C18.7428652,9.05128834 17.7887348,9.21601227 16.9660826,9.54607362 C16.1431261,9.87582822 15.4720391,10.3454601 14.9528217,10.9552761 C14.4339087,11.5647853 14.0857348,12.2853374 13.9089087,13.117546 L17.395213,13.4028221 C17.5248652,12.9512883 17.7902565,12.5752147 18.191387,12.274908 C18.5925174,11.974908 19.1321261,11.8246012 19.8105174,11.8246012 C20.4536043,11.8246012 20.9506043,11.9795092 21.3015174,12.2880982 C21.6521261,12.5976074 21.8280391,13.0344172 21.8280391,13.5991411 L21.8280391,13.6528221 C21.8280391,13.9442331 21.7187783,14.1641718 21.5005609,14.312638 C21.2823435,14.4611043 20.9311261,14.5727607 20.4475174,14.6473006 C19.9639087,14.7215337 19.3269087,14.8003681 18.5365174,14.8831902 C17.8639087,14.9488344 17.2223435,15.0617178 16.6118217,15.222454 C16.0016043,15.3828834 15.4571261,15.6209202 14.9796043,15.9356442 C14.5014739,16.2506748 14.124387,16.6669325 13.8468217,17.1841104 C13.5695609,17.7015951 13.4310826,18.3405521 13.4310826,19.1015951 C13.4310826,20.0055828 13.6270826,20.7589571 14.019387,21.3620245 C14.4116913,21.9657055 14.9470391,22.4206135 15.6254304,22.7267485 C16.3038217,23.0328834 17.0765609,23.1859509 17.9433435,23.1859509 C18.6162565,23.1859509 19.2088217,23.0951534 19.7222565,22.9141718 C20.235387,22.7325767 20.6745609,22.4801227 21.0406913,22.1558896 C21.406213,21.8322699 21.6980826,21.4558896 21.9166043,21.0279755 L22.0225174,21.0279755 L22.0225174,22.927362 L25.597387,22.927362 L25.597387,13.6884049 C25.597387,12.8739877 25.4406478,12.173681 25.1280826,11.5884049 Z" id="Fill-2" fill="#5E798D"></path>
                        <path d="M32.2950783,15.0081902 L32.2950783,22.9272086 L28.5257304,22.9272086 L28.5257304,9.22935583 L32.1182522,9.22935583 L32.1182522,11.646227 L32.2774261,11.646227 C32.5781217,10.8492945 33.0824261,10.2180061 33.7903391,9.75113497 C34.4982522,9.28457055 35.356513,9.05113497 36.3654261,9.05113497 C37.3089043,9.05113497 38.1318609,9.25911043 38.8339913,9.6753681 C39.5358174,10.0916258 40.0812087,10.6845706 40.4707739,11.4545092 C40.8603391,12.2244479 41.054513,13.141319 41.054513,14.2057362 L41.054513,22.9272086 L37.2854696,22.9272086 L37.2854696,14.8833436 C37.2912522,14.045 37.0788174,13.3897853 36.6481652,12.9170859 C36.2178174,12.4443865 35.6249478,12.2081902 34.8698609,12.2081902 C34.362513,12.2081902 33.9157304,12.3180061 33.529513,12.5379448 C33.1429913,12.7581902 32.8419913,13.0775153 32.6268174,13.4965337 C32.4113391,13.9155521 32.3008609,14.4195399 32.2950783,15.0081902" id="Fill-4" fill="#5E798D"></path>
                        <path d="M52.7382435,18.2095706 C52.5108957,18.816319 52.1867652,19.2874847 51.7649391,19.6230675 C51.343113,19.9592638 50.8284609,20.1270552 50.2209826,20.1270552 C49.6016348,20.1270552 49.0808957,19.9561963 48.6590696,19.6141718 C48.2375478,19.2727607 47.9161565,18.7969939 47.6948957,18.1874847 C47.4736348,17.5779755 47.3631565,16.8752147 47.3631565,16.078589 C47.3631565,15.2880982 47.472113,14.5920859 47.6903304,13.9917791 C47.9085478,13.3911656 48.2302435,12.9215337 48.6548087,12.5825767 C49.0796783,12.2436196 49.6016348,12.0742945 50.2209826,12.0742945 C50.8284609,12.0742945 51.3446348,12.2377914 51.7695043,12.5647853 C52.1940696,12.8917791 52.5182,13.3555828 52.7428087,13.9558896 C52.9665043,14.5565031 53.079113,15.263865 53.079113,16.078589 C53.079113,16.8930061 52.965287,17.6034356 52.7382435,18.2095706 Z M52.9990696,4.66355828 L52.9990696,11.5301227 L52.8843304,11.5301227 C52.7193739,11.161411 52.4786348,10.7856442 52.1633304,10.4022086 C51.8474174,10.018773 51.4344174,9.69760736 50.9243304,9.43871166 C50.4142435,9.1801227 49.7787652,9.05128834 49.0175913,9.05128834 C48.0208522,9.05128834 47.1050696,9.31110429 46.2702435,9.83165644 C45.4354174,10.3519018 44.7676783,11.1334969 44.2664174,12.1767485 C43.7648522,13.2203067 43.5140696,14.5264417 43.5140696,16.0960736 C43.5140696,17.6242945 43.7575478,18.9129448 44.2438957,19.9623313 C44.7308522,21.0117178 45.391287,21.8052761 46.226113,22.3433129 C47.0609391,22.8810429 47.9940696,23.1500613 49.0267217,23.1500613 C49.7580696,23.1500613 50.3786348,23.0282822 50.8890261,22.7847239 C51.399113,22.5408589 51.8148522,22.2331902 52.1365478,21.861411 C52.4579391,21.4899387 52.7075043,21.1141718 52.8843304,20.7338037 L53.0435043,20.7338037 L53.0435043,22.927362 L56.7598957,22.927362 L56.7598957,4.66355828 L52.9990696,4.66355828 Z" id="Fill-6" fill="#5E798D"></path>
                        <g id="Group-10" transform="translate(70.608696, 0.000000)">
                            <mask id="mask-2" fill="white">
                                <use xlink:href="#path-1"></use>
                            </mask>
                            <g id="Clip-9"></g>
                            <path d="M11.8629,0.11006135 L7.16924783,0.11006135 L0.102595652,9.49042945 C0.034726087,9.5806135 0.034726087,9.70515337 0.102291304,9.79564417 L0.893595652,10.8477914 C1.62311739,11.8183436 3.07059565,11.8180368 3.7995087,10.8471779 L11.8629,0.11006135 Z" id="Fill-8" fill="#2DBE60" mask="url(#mask-2)"></path>
                        </g>
                        <path d="M72.0823174,13.1880675 C72.2932304,13.1880675 72.3611,12.9040184 72.1733174,12.8070859 C71.6102739,12.5150613 70.8999261,12.0052454 70.2264043,11.1205828 C69.5781435,10.2687423 65.3848391,4.66352761 65.3848391,4.66352761 L60.5898391,4.66352761 L66.3584478,12.3834663 C66.7370565,12.889908 67.3299261,13.1880675 67.959013,13.1880675 L72.0823174,13.1880675 Z" id="Fill-11" fill="#2DBE60"></path>
                        <path d="M56.8350696,27.9060123 L61.6297652,27.9060123 C61.6297652,27.9060123 69.6283304,17.2412883 70.2628957,16.3928221 C70.8889391,15.5544785 71.5898522,15.0646012 72.1614174,14.7796319 C72.3525478,14.6842331 72.2877217,14.3961963 72.0743739,14.3961963 L70.7805913,14.3961963 L68.008287,14.3961963 C67.3819391,14.3961963 66.7915043,14.6915951 66.4125913,15.1943558 L56.8350696,27.9060123 Z" id="Fill-13" fill="#5E798D"></path>
                        <path d="M71.5073435,16.7423313 L71.0544739,17.35 C70.9875174,17.4398773 70.9875174,17.5638037 71.0544739,17.653681 L74.9860391,22.9208589 L79.7810391,22.9208589 L75.103213,16.7300613 C74.1971696,15.5312883 72.4051696,15.5371166 71.5073435,16.7423313" id="Fill-15" fill="#5E798D"></path>
                        <path d="M61.2705435,42.5559509 C61.1539783,42.7988957 60.9713696,42.9903067 60.7227174,43.130184 C60.4734565,43.2706748 60.1493261,43.3406135 59.749413,43.3406135 L58.1926739,43.3406135 L58.1926739,40.1341718 L59.733587,40.1341718 C60.1411087,40.1341718 60.470413,40.2022699 60.720587,40.3384663 C60.9707609,40.4746626 61.1539783,40.6626994 61.2705435,40.9028834 C61.3871087,41.1430675 61.4452391,41.4179141 61.4452391,41.7277301 C61.4452391,42.0372393 61.3871087,42.3133129 61.2705435,42.5559509 M61.4373261,39.4215951 C61.0218913,39.1896933 60.4971957,39.0734356 59.8647609,39.0734356 L56.9655435,39.0734356 L56.9655435,47.2712883 L58.1926739,47.2712883 L58.1926739,44.3893865 L59.8605,44.3893865 C60.4905,44.3893865 61.014587,44.2728221 61.4312391,44.0390798 C61.8481957,43.8056442 62.1607609,43.4881595 62.3686304,43.086319 C62.5765,42.685092 62.6802826,42.2317178 62.6802826,41.7277301 C62.6802826,41.2258896 62.5771087,40.7740491 62.3707609,40.3725153 C62.1641087,39.9709816 61.8530652,39.6538037 61.4373261,39.4215951" id="Fill-17" fill="#5E798D"></path>
                        <path d="M66.778813,41.0308896 C66.4187696,41.0308896 66.0982913,41.1262883 65.8176826,41.3173926 C65.5370739,41.5081902 65.3413783,41.7689264 65.229987,42.0996012 L65.1663783,42.0996012 L65.1663783,41.1232209 L64.0186826,41.1232209 L64.0186826,47.2713804 L65.2062478,47.2713804 L65.2062478,43.5167791 C65.2062478,43.2496012 65.2692478,43.0121779 65.3949435,42.8042025 C65.5203348,42.596227 65.6913783,42.4327301 65.9071609,42.3140184 C66.1229435,42.1953067 66.3682478,42.1357975 66.643987,42.1357975 C66.7605522,42.1357975 66.8634217,42.1471472 66.9535087,42.1698466 C67.0435957,42.192546 67.1242478,42.2210736 67.1960739,42.2557362 L67.5774217,41.2551227 C67.4763783,41.1857975 67.3601174,41.1308896 67.2277261,41.0910123 C67.0953348,41.0508282 66.9455957,41.0308896 66.778813,41.0308896" id="Fill-19" fill="#5E798D"></path>
                        <path d="M72.289487,45.3061963 C72.1714,45.6341104 71.9909217,45.8973006 71.7474435,46.0945399 C71.5036609,46.2920859 71.1965739,46.3905521 70.8255739,46.3905521 C70.4524435,46.3905521 70.1432261,46.2920859 69.8985304,46.0945399 C69.6535304,45.8973006 69.4721391,45.6341104 69.3543565,45.3061963 C69.2365739,44.9779755 69.1775304,44.616319 69.1775304,44.221227 C69.1775304,43.8292025 69.2365739,43.4681595 69.3543565,43.1387117 C69.4721391,42.8086503 69.6535304,42.5439264 69.8985304,42.3439264 C70.1432261,42.1436196 70.4524435,42.0436196 70.8255739,42.0436196 C71.1965739,42.0436196 71.5036609,42.1436196 71.7474435,42.3439264 C71.9909217,42.5439264 72.1714,42.8086503 72.289487,43.1387117 C72.4072696,43.4681595 72.4660087,43.8292025 72.4660087,44.221227 C72.4660087,44.616319 72.4072696,44.9779755 72.289487,45.3061963 M72.319313,41.4393252 C71.8926174,41.174908 71.3937913,41.0430061 70.8219217,41.0430061 C70.2497478,41.0430061 69.7509217,41.174908 69.3248348,41.4393252 C68.8981391,41.7034356 68.567313,42.0742945 68.3317478,42.5519018 C68.0961826,43.0295092 67.9784,43.5871779 67.9784,44.2252147 C67.9784,44.8604908 68.0961826,45.415092 68.3317478,45.8902454 C68.567313,46.3653988 68.8981391,46.7350307 69.3248348,46.9994479 C69.7509217,47.2635583 70.2497478,47.3957669 70.8219217,47.3957669 C71.3937913,47.3957669 71.8926174,47.2635583 72.319313,46.9994479 C72.7454,46.7350307 73.0762261,46.3653988 73.3117913,45.8902454 C73.5476609,45.415092 73.6654435,44.8604908 73.6654435,44.2252147 C73.6654435,43.5871779 73.5476609,43.0295092 73.3117913,42.5519018 C73.0762261,42.0742945 72.7454,41.7034356 72.319313,41.4393252" id="Fill-21" fill="#5E798D"></path>
                        <path d="M79.1759348,45.3061963 C79.0526739,45.6341104 78.8721957,45.8939264 78.6338913,46.0844172 C78.395587,46.2752147 78.0988478,46.3709202 77.7442826,46.3709202 C77.4025,46.3709202 77.1139783,46.2795092 76.8781087,46.0963804 C76.6425435,45.9135583 76.4623696,45.6595706 76.3381957,45.3341104 C76.2137174,45.0083436 76.1516304,44.6295092 76.1516304,44.1973006 C76.1516304,43.7703067 76.2121957,43.3963804 76.3342391,43.076135 C76.4559783,42.7561963 76.6352391,42.5068098 76.8723261,42.3279755 C77.1091087,42.1491411 77.4000652,42.0595706 77.7442826,42.0595706 C78.101587,42.0595706 78.3998478,42.1534356 78.6396739,42.3399387 C78.8791957,42.5264417 79.0593696,42.7816564 79.179587,43.1043558 C79.300413,43.427362 79.3606739,43.7917791 79.3606739,44.1973006 C79.3606739,44.6083436 79.2988913,44.9779755 79.1759348,45.3061963 M79.3168478,41.4193865 C78.9303261,41.168773 78.4908478,41.0430061 77.9981087,41.0430061 C77.6195,41.0430061 77.3151522,41.1065031 77.0847609,41.2331902 C76.8546739,41.360184 76.6741957,41.5074233 76.5448478,41.6752147 C76.4151957,41.8436196 76.3156739,41.9917791 76.2468913,42.1196933 L76.1476739,42.1196933 L76.1476739,41.1230675 L74.9878043,41.1230675 L74.9878043,49.5770552 L76.1753696,49.5770552 L76.1753696,46.3144785 L76.2468913,46.3144785 C76.318413,46.4454601 76.4203696,46.5948466 76.5524565,46.7629448 C76.6851522,46.9310429 76.8680652,47.0779755 77.1027174,47.2034356 C77.3370652,47.328589 77.6392826,47.3914724 78.0099783,47.3914724 C78.5027174,47.3914724 78.9409783,47.2641718 79.3247609,47.0092638 C79.7085435,46.7543558 80.0104565,46.3899387 80.2305,45.916319 C80.4499348,45.4430061 80.5598043,44.873681 80.5598043,44.2092638 C80.5598043,43.5448466 80.4496304,42.9764417 80.2283696,42.5040491 C80.0071087,42.0316564 79.7033696,41.67 79.3168478,41.4193865" id="Fill-23" fill="#5E798D"></path>
                        <path d="M82.8128,43.6607055 C82.8274087,43.3978221 82.883713,43.1478221 83.0005826,42.9183742 C83.1341913,42.6557975 83.3250174,42.4416871 83.5727565,42.2775767 C83.819887,42.113773 84.1108435,42.0315644 84.4441043,42.0315644 C84.7514957,42.0315644 85.0193217,42.1024233 85.2484957,42.2438344 C85.4773652,42.3852454 85.655713,42.5781902 85.7826261,42.822362 C85.9095391,43.0665337 85.9731478,43.3462883 85.9731478,43.6607055 L82.8128,43.6607055 Z M86.3070174,41.7554908 C86.0501478,41.5097853 85.7604087,41.3297239 85.4371913,41.2146933 C85.1142783,41.1002761 84.7804087,41.0429141 84.4361913,41.0429141 C83.8698,41.0429141 83.3752348,41.1775767 82.9531043,41.4472086 C82.5306696,41.7165337 82.2025826,42.0916871 81.9679304,42.5717485 C81.733887,43.0527301 81.616713,43.6073313 81.616713,44.2370859 C81.616713,44.8751227 81.733887,45.4309509 81.9679304,45.9042638 C82.2025826,46.3778834 82.5358435,46.7450613 82.9689304,47.0048773 C83.401713,47.2656135 83.9188,47.3956748 84.5195826,47.3956748 C84.9645391,47.3956748 85.3611043,47.3269632 85.7092783,47.1892331 C86.0574522,47.0518098 86.3471913,46.8585583 86.5791043,46.608865 C86.810713,46.3594785 86.9714087,46.0680675 87.0614957,45.7343252 L85.9378435,45.5303374 C85.8660174,45.7226687 85.7628435,45.8840184 85.627713,46.0146933 C85.492887,46.1453681 85.3324957,46.2432209 85.1471478,46.308865 C84.9618,46.3742025 84.7566696,46.4067178 84.5314522,46.4067178 C84.1848,46.4067178 83.8816696,46.3312577 83.6220609,46.1806442 C83.3627565,46.0300307 83.1609739,45.8107055 83.0164087,45.5220552 C82.8828,45.255184 82.8179739,44.9300307 82.8082348,44.557638 L87.1369739,44.557638 L87.1369739,44.1330982 C87.1369739,43.5754294 87.0630174,43.1011963 86.9148,42.710092 C86.7662783,42.3189877 86.5635826,42.0008896 86.3070174,41.7554908 Z" id="Fill-25" fill="#5E798D"></path>
                        <path d="M91.2193739,41.0308896 C90.8593304,41.0308896 90.5388522,41.1262883 90.2585478,41.3173926 C89.9776348,41.5081902 89.7819391,41.7689264 89.6705478,42.0996012 L89.6072435,42.0996012 L89.6072435,41.1232209 L88.4592435,41.1232209 L88.4592435,47.2713804 L89.6468087,47.2713804 L89.6468087,43.5167791 C89.6468087,43.2496012 89.7098087,43.0121779 89.8355043,42.8042025 C89.9608957,42.596227 90.1319391,42.4327301 90.3477217,42.3140184 C90.5635043,42.1953067 90.8088087,42.1357975 91.0845478,42.1357975 C91.201113,42.1357975 91.304287,42.1471472 91.3940696,42.1698466 C91.4841565,42.192546 91.5648087,42.2210736 91.6366348,42.2557362 L92.0179826,41.2551227 C91.9169391,41.1857975 91.8006783,41.1308896 91.668287,41.0910123 C91.5358957,41.0508282 91.3861565,41.0308896 91.2193739,41.0308896" id="Fill-27" fill="#5E798D"></path>
                        <path d="M95.8741913,46.2626994 C95.8029739,46.2761963 95.7192783,46.282638 95.6240174,46.282638 C95.4943652,46.282638 95.3744522,46.2620859 95.2645826,46.2206748 C95.154713,46.1792638 95.0652348,46.1001227 94.9964522,45.982638 C94.9276696,45.8651534 94.8929739,45.6918405 94.8929739,45.4620859 L94.8929739,42.083865 L96.1441478,42.083865 L96.1441478,41.1231288 L94.8929739,41.1231288 L94.8929739,39.6501227 L93.705713,39.6501227 L93.705713,41.1231288 L92.8121478,41.1231288 L92.8121478,42.083865 L93.705713,42.083865 L93.705713,45.7102454 C93.705713,46.0811043 93.7891043,46.3893865 93.9561913,46.635092 C94.1226696,46.8807975 94.3411913,47.0620859 94.6111478,47.1792638 C94.8814087,47.2967485 95.1723652,47.3528834 95.4852348,47.347362 C95.6754522,47.3446012 95.8346261,47.3295706 95.9615391,47.3013497 C96.0887565,47.2734356 96.1864522,47.246135 96.2555391,47.2194479 L96.0409739,46.2307975 C96.0011043,46.2384663 95.9454087,46.2495092 95.8741913,46.2626994" id="Fill-29" fill="#5E798D"></path>
                        <path d="M99.9054609,45.8945399 L99.8415478,45.8945399 L98.2969826,41.1230675 L97.0260261,41.1230675 L99.2578087,47.3515951 L99.083113,47.8356442 C98.985113,48.1025153 98.8706783,48.2948466 98.7395043,48.4123313 C98.6086348,48.529816 98.458287,48.5930061 98.2887652,48.6022086 C98.1195478,48.611411 97.9250696,48.5868712 97.7050261,48.5282822 L97.4192435,49.5209202 C97.4828522,49.5503681 97.5845043,49.5813497 97.7248087,49.6129448 C97.865113,49.6451534 98.0279391,49.6611043 98.213287,49.6611043 C98.5416783,49.6611043 98.8323304,49.6031288 99.0852435,49.4871779 C99.3378522,49.3709202 99.5557652,49.2019018 99.7386783,48.9807362 C99.921287,48.7589571 100.069504,48.4884049 100.18333,48.1681595 L102.725243,41.1230675 L101.450026,41.1230675 L99.9054609,45.8945399 Z" id="Fill-31" fill="#5E798D"></path>
                        <mask id="mask-4" fill="white">
                            <use xlink:href="#path-3"></use>
                        </mask>
                        <g id="Clip-34"></g>
                        <polygon id="Fill-33" fill="#5E798D" mask="url(#mask-4)" points="106.89913 47.2711656 108.126261 47.2711656 108.126261 39.0733129 106.89913 39.0733129"></polygon>
                        <path d="M113.924483,41.305 C113.612222,41.1304601 113.247917,41.0430368 112.832483,41.0430368 C112.374135,41.0430368 111.994917,41.1418098 111.694526,41.3390491 C111.394135,41.5369018 111.173483,41.7982515 111.033178,42.1237117 L110.957396,42.1237117 L110.957396,41.1230982 L109.817613,41.1230982 L109.817613,47.2712577 L111.005483,47.2712577 L111.005483,43.6209509 C111.005483,43.295184 111.066961,43.0169632 111.190222,42.7862883 C111.313178,42.5553067 111.481483,42.3798466 111.694526,42.259908 C111.90757,42.1399693 112.151961,42.0795399 112.427396,42.0795399 C112.829743,42.0795399 113.145961,42.2059202 113.376657,42.4580675 C113.606743,42.7102147 113.721787,43.0589877 113.721787,43.5046933 L113.721787,47.2712577 L114.909352,47.2712577 L114.909352,43.3605215 C114.909352,42.853773 114.823526,42.4280061 114.651265,42.0838344 C114.479004,41.7396626 114.237048,41.4801534 113.924483,41.305" id="Fill-35" fill="#5E798D" mask="url(#mask-4)"></path>
                        <polygon id="Fill-36" fill="#5E798D" mask="url(#mask-4)" points="118.678304 45.8546933 118.615 45.8546933 117.069826 41.1230982 115.795217 41.1230982 118.011174 47.2712577 119.28213 47.2712577 121.49413 41.1230982 120.219217 41.1230982"></polygon>
                        <path d="M123.318117,43.6607055 C123.332726,43.3978221 123.38903,43.1478221 123.5059,42.9183742 C123.639509,42.6557975 123.830335,42.4416871 124.078074,42.2775767 C124.325509,42.113773 124.616161,42.0315644 124.949422,42.0315644 C125.256813,42.0315644 125.524639,42.1024233 125.753813,42.2438344 C125.982683,42.3852454 126.16103,42.5781902 126.287943,42.822362 C126.415161,43.0665337 126.478465,43.3462883 126.478465,43.6607055 L123.318117,43.6607055 Z M126.812335,41.7554908 C126.555465,41.5097853 126.265726,41.3297239 125.942509,41.2146933 C125.619596,41.1002761 125.285726,41.0429141 124.941509,41.0429141 C124.375117,41.0429141 123.880552,41.1775767 123.458422,41.4472086 C123.035987,41.7165337 122.7079,42.0916871 122.473248,42.5717485 C122.239204,43.0527301 122.12203,43.6073313 122.12203,44.2370859 C122.12203,44.8751227 122.239204,45.4309509 122.473248,45.9042638 C122.7079,46.3778834 123.041161,46.7450613 123.474248,47.0048773 C123.90703,47.2656135 124.424117,47.3956748 125.0249,47.3956748 C125.469857,47.3956748 125.866422,47.3269632 126.214596,47.1892331 C126.56277,47.0518098 126.852509,46.8585583 127.084422,46.608865 C127.31603,46.3594785 127.476726,46.0680675 127.566813,45.7343252 L126.443161,45.5303374 C126.371335,45.7226687 126.268161,45.8840184 126.13303,46.0146933 C125.998204,46.1453681 125.838117,46.2432209 125.652465,46.308865 C125.467117,46.3742025 125.262291,46.4067178 125.03677,46.4067178 C124.690117,46.4067178 124.386987,46.3312577 124.127683,46.1806442 C123.868074,46.0300307 123.666291,45.8107055 123.521726,45.5220552 C123.388117,45.255184 123.323291,44.9300307 123.313552,44.557638 L127.642291,44.557638 L127.642291,44.1330982 C127.642291,43.5754294 127.568335,43.1011963 127.420117,42.710092 C127.2719,42.3189877 127.0689,42.0008896 126.812335,41.7554908 Z" id="Fill-37" fill="#5E798D" mask="url(#mask-4)"></path>
                        <path d="M131.98713,43.8290798 L131.018087,43.6048466 C130.681783,43.5247853 130.438304,43.4223313 130.287652,43.2965644 C130.136391,43.1711043 130.061217,43.0057669 130.061217,42.8002454 C130.061217,42.5628221 130.173826,42.3683436 130.398435,42.2177301 C130.623652,42.0671166 130.903957,41.9919632 131.240565,41.9919632 C131.486783,41.9919632 131.691913,42.0318405 131.855957,42.1119018 C132.020304,42.1916564 132.150565,42.2944172 132.247348,42.4198773 C132.343826,42.5453374 132.414739,42.677546 132.460087,42.8161963 L133.535957,42.6241718 C133.414217,42.1438037 133.164043,41.7600613 132.785739,41.4732515 C132.406826,41.1864417 131.887913,41.0428834 131.228696,41.0428834 C130.770348,41.0428834 130.364043,41.1198773 130.009174,41.2732515 C129.654304,41.4266258 129.376435,41.6395092 129.175261,41.9115951 C128.974087,42.1839877 128.873652,42.5014724 128.873652,42.8640491 C128.873652,43.3020859 129.009391,43.6634356 129.280565,43.9493252 C129.552043,44.2346012 129.972348,44.4425767 130.541478,44.5735583 L131.57413,44.8017791 C131.865391,44.8686503 132.081783,44.9671166 132.223304,45.0980982 C132.364826,45.2284663 132.436043,45.3901227 132.436043,45.5821472 C132.436043,45.8195706 132.319478,46.0204908 132.086652,46.1846012 C131.853522,46.3487117 131.542478,46.4306135 131.153217,46.4306135 C130.795609,46.4306135 130.50587,46.3542331 130.283391,46.2005521 C130.061217,46.0468712 129.913913,45.8195706 129.842696,45.5180368 L128.694696,45.6941104 C128.792696,46.2382822 129.057783,46.6585276 129.489043,46.9533129 C129.920609,47.2480982 130.478174,47.3956442 131.16113,47.3956442 C131.653565,47.3956442 132.087261,47.3140491 132.461609,47.1511656 C132.836261,46.9888957 133.129043,46.7637423 133.339652,46.4769325 C133.549957,46.1901227 133.654957,45.8625153 133.654957,45.4941104 C133.654957,45.0594479 133.517696,44.7054601 133.242261,44.4333742 C132.966826,44.1609816 132.548652,43.9597546 131.98713,43.8290798" id="Fill-38" fill="#5E798D" mask="url(#mask-4)"></path>
                        <path d="M137.535361,46.2626994 C137.464143,46.2761963 137.380448,46.282638 137.285187,46.282638 C137.155535,46.282638 137.035622,46.2620859 136.925752,46.2206748 C136.815883,46.1792638 136.726404,46.1001227 136.657622,45.982638 C136.588839,45.8651534 136.554143,45.6918405 136.554143,45.4620859 L136.554143,42.083865 L137.805317,42.083865 L137.805317,41.1231288 L136.554143,41.1231288 L136.554143,39.6501227 L135.366883,39.6501227 L135.366883,41.1231288 L134.473317,41.1231288 L134.473317,42.083865 L135.366883,42.083865 L135.366883,45.7102454 C135.366883,46.0811043 135.450274,46.3893865 135.617361,46.635092 C135.783839,46.8807975 136.002361,47.0620859 136.272317,47.1792638 C136.542578,47.2967485 136.833535,47.3528834 137.146404,47.347362 C137.336622,47.3446012 137.495796,47.3295706 137.622709,47.3013497 C137.749926,47.2734356 137.847622,47.246135 137.916709,47.2194479 L137.702143,46.2307975 C137.662274,46.2384663 137.606578,46.2495092 137.535361,46.2626994" id="Fill-39" fill="#5E798D" mask="url(#mask-4)"></path>
                        <path d="M139.767296,38.7413497 C139.560643,38.7413497 139.384122,38.8122086 139.237122,38.9533129 C139.090122,39.0947239 139.016774,39.2658896 139.016774,39.4655828 C139.016774,39.6661963 139.090122,39.837362 139.237122,39.98 C139.384122,40.1232515 139.560643,40.1944172 139.767296,40.1944172 C139.973948,40.1944172 140.15047,40.1232515 140.29747,39.98 C140.44447,39.837362 140.517817,39.6661963 140.517817,39.4655828 C140.517817,39.2658896 140.44447,39.0947239 140.29747,38.9533129 C140.15047,38.8122086 139.973948,38.7413497 139.767296,38.7413497" id="Fill-40" fill="#5E798D" mask="url(#mask-4)"></path>
                        <polygon id="Fill-41" fill="#5E798D" mask="url(#mask-4)" points="139.167609 47.2711656 140.355174 47.2711656 140.355174 41.1230061 139.167609 41.1230061"></polygon>
                        <path d="M146.058013,41.305 C145.745752,41.1304601 145.381752,41.0430368 144.966013,41.0430368 C144.507665,41.0430368 144.128448,41.1418098 143.828057,41.3390491 C143.527665,41.5369018 143.307013,41.7982515 143.167013,42.1237117 L143.09123,42.1237117 L143.09123,41.1230982 L141.951448,41.1230982 L141.951448,47.2712577 L143.139013,47.2712577 L143.139013,43.6209509 C143.139013,43.295184 143.200491,43.0169632 143.323752,42.7862883 C143.446709,42.5553067 143.615013,42.3798466 143.828057,42.259908 C144.0411,42.1399693 144.285491,42.0795399 144.560926,42.0795399 C144.963274,42.0795399 145.279796,42.2059202 145.510187,42.4580675 C145.740274,42.7102147 145.855622,43.0589877 145.855622,43.5046933 L145.855622,47.2712577 L147.042883,47.2712577 L147.042883,43.3605215 C147.042883,42.853773 146.957057,42.4280061 146.784796,42.0838344 C146.612535,41.7396626 146.370578,41.4801534 146.058013,41.305" id="Fill-42" fill="#5E798D" mask="url(#mask-4)"></path>
                        <path d="M152.584996,45.2480675 C152.462039,45.5508282 152.281865,45.7827301 152.045083,45.9443865 C151.807691,46.1060429 151.518865,46.1867178 151.177387,46.1867178 C150.824952,46.1867178 150.529126,46.101135 150.289604,45.9305828 C150.049778,45.7597239 149.8693,45.5223006 149.747561,45.2180061 C149.625517,44.9134049 149.564952,44.5600307 149.564952,44.1572699 C149.564952,43.7646319 149.624909,43.4103374 149.74543,43.092546 C149.865648,42.7747546 150.045213,42.5235276 150.283517,42.3379448 C150.521822,42.152362 150.819778,42.0594172 151.177387,42.0594172 C151.524039,42.0594172 151.8153,42.148681 152.050865,42.3259816 C152.28643,42.503589 152.465083,42.7492945 152.587126,43.0643252 C152.708865,43.3793558 152.769735,43.743773 152.769735,44.1572699 C152.769735,44.5815031 152.708257,44.945 152.584996,45.2480675 Z M152.777952,41.1232209 L152.777952,42.1198466 L152.690604,42.1198466 C152.618778,41.9919325 152.517735,41.8434663 152.386561,41.6753681 C152.255387,41.5075767 152.073387,41.3600307 151.840561,41.2330368 C151.60743,41.1063497 151.301561,41.0428528 150.922952,41.0428528 C150.433257,41.0428528 149.994996,41.1676994 149.60817,41.4173926 C149.221648,41.6667791 148.917909,42.0250613 148.696952,42.4922393 C148.475691,42.9591104 148.365213,43.5192331 148.365213,44.1732209 C148.365213,44.8269018 148.477213,45.3775153 148.700909,45.8244479 C148.924604,46.2713804 149.228952,46.6091104 149.614561,46.8373313 C149.999561,47.0652454 150.433257,47.1793558 150.915039,47.1793558 C151.288474,47.1793558 151.5913,47.1207669 151.82443,47.003589 C152.057561,46.8861043 152.241083,46.7471472 152.374691,46.5870245 C152.5083,46.4269018 152.610865,46.2815031 152.682387,46.1502147 L152.757561,46.1502147 L152.757561,47.3594172 C152.757561,47.8345706 152.610865,48.1815031 152.31717,48.4002147 C152.02317,48.6189264 151.651257,48.7287423 151.201126,48.7287423 C150.872735,48.7287423 150.604604,48.6818098 150.396735,48.5885583 C150.188865,48.4946933 150.024822,48.3830368 149.9043,48.2520552 C149.783778,48.1213804 149.687604,47.999908 149.616387,47.8879448 L148.595909,48.3121779 C148.704257,48.5575767 148.868604,48.785184 149.088039,48.9946933 C149.308083,49.2038957 149.592039,49.3729141 149.940213,49.5008282 C150.288083,49.6290491 150.704735,49.6931595 151.189257,49.6931595 C151.707865,49.6931595 152.17443,49.6118712 152.589257,49.4489877 C153.003474,49.2861043 153.332474,49.0361043 153.575952,48.698681 C153.81943,48.3606442 153.94117,47.9305828 153.94117,47.4075767 L153.94117,41.1232209 L152.777952,41.1232209 Z" id="Fill-43" fill="#5E798D" mask="url(#mask-4)"></path>
                        <path d="M159.819191,40.1342945 L161.360104,40.1342945 C161.765191,40.1342945 162.09267,40.1950307 162.342843,40.3165031 C162.593322,40.4376687 162.777452,40.6119018 162.89493,40.8388957 C163.013017,41.0658896 163.071757,41.333681 163.071757,41.6431902 C163.071757,41.9505521 163.013626,42.2131288 162.897061,42.4318405 C162.780496,42.6508589 162.597278,42.8177301 162.347104,42.932454 C162.09693,43.0468712 161.773104,43.1045399 161.37593,43.1045399 L159.819191,43.1045399 L159.819191,40.1342945 Z M163.057757,43.8526994 C163.475017,43.6422699 163.787278,43.3468712 163.995148,42.9661963 C164.203017,42.5858282 164.3068,42.1450307 164.3068,41.6431902 C164.3068,41.1388957 164.20393,40.6941104 163.997278,40.3082209 C163.790626,39.9229448 163.478974,39.6207975 163.062017,39.4014724 C162.644757,39.1827607 162.121278,39.0735583 161.491278,39.0735583 L158.592061,39.0735583 L158.592061,47.271411 L159.819191,47.271411 L159.819191,44.1692638 L161.487017,44.1692638 C161.514104,44.1692638 161.538148,44.1665031 161.56493,44.1661963 L163.218757,47.271411 L164.61693,47.271411 L162.814583,43.9542331 C162.897974,43.922638 162.98167,43.8913497 163.057757,43.8526994 Z" id="Fill-44" fill="#2DBE60" mask="url(#mask-4)"></path>
                        <path d="M166.55587,43.6607055 C166.570478,43.3978221 166.626783,43.1478221 166.743652,42.9183742 C166.877261,42.6557975 167.068087,42.4416871 167.315826,42.2775767 C167.562957,42.113773 167.853609,42.0315644 168.187174,42.0315644 C168.494565,42.0315644 168.762391,42.1024233 168.991565,42.2438344 C169.220435,42.3852454 169.398783,42.5781902 169.525696,42.822362 C169.652609,43.0665337 169.716217,43.3462883 169.716217,43.6607055 L166.55587,43.6607055 Z M170.050087,41.7554908 C169.793217,41.5097853 169.503174,41.3297239 169.180261,41.2146933 C168.857348,41.1002761 168.523478,41.0429141 168.179261,41.0429141 C167.61287,41.0429141 167.118304,41.1775767 166.696174,41.4472086 C166.273739,41.7165337 165.945348,42.0916871 165.711,42.5717485 C165.476652,43.0527301 165.359478,43.6073313 165.359478,44.2370859 C165.359478,44.8751227 165.476652,45.4309509 165.711,45.9042638 C165.945348,46.3778834 166.278913,46.7450613 166.711696,47.0048773 C167.144783,47.2656135 167.661565,47.3956748 168.262652,47.3956748 C168.707304,47.3956748 169.10387,47.3269632 169.452348,47.1892331 C169.800522,47.0518098 170.090261,46.8585583 170.322174,46.608865 C170.553783,46.3594785 170.714478,46.0680675 170.804261,45.7343252 L169.680609,45.5303374 C169.609087,45.7226687 169.505913,45.8840184 169.370783,46.0146933 C169.235957,46.1453681 169.075565,46.2432209 168.889913,46.308865 C168.70487,46.3742025 168.499739,46.4067178 168.274522,46.4067178 C167.927565,46.4067178 167.624739,46.3312577 167.36513,46.1806442 C167.105826,46.0300307 166.903739,45.8107055 166.759478,45.5220552 C166.625565,45.255184 166.561043,44.9300307 166.551,44.557638 L170.880043,44.557638 L170.880043,44.1330982 C170.880043,43.5754294 170.805783,43.1011963 170.657565,42.710092 C170.509348,42.3189877 170.306652,42.0008896 170.050087,41.7554908 Z" id="Fill-45" fill="#2DBE60" mask="url(#mask-4)"></path>
                        <path d="M172.802122,38.7413497 C172.59547,38.7413497 172.418948,38.8122086 172.271948,38.9533129 C172.125252,39.0947239 172.0516,39.2658896 172.0516,39.4655828 C172.0516,39.6661963 172.125252,39.837362 172.271948,39.98 C172.418948,40.1232515 172.59547,40.1944172 172.802122,40.1944172 C173.008774,40.1944172 173.1856,40.1232515 173.332296,39.98 C173.4796,39.837362 173.552643,39.6661963 173.552643,39.4655828 C173.552643,39.2658896 173.4796,39.0947239 173.332296,38.9533129 C173.1856,38.8122086 173.008774,38.7413497 172.802122,38.7413497" id="Fill-46" fill="#2DBE60" mask="url(#mask-4)"></path>
                        <polygon id="Fill-47" fill="#2DBE60" mask="url(#mask-4)" points="172.202435 47.2711656 173.39 47.2711656 173.39 41.1230061 172.202435 41.1230061"></polygon>
                        <path d="M179.092839,41.305 C178.780578,41.1304601 178.416578,41.0430368 178.000839,41.0430368 C177.542491,41.0430368 177.163274,41.1418098 176.863187,41.3390491 C176.562491,41.5369018 176.341839,41.7982515 176.201839,42.1237117 L176.126057,42.1237117 L176.126057,41.1230982 L174.986274,41.1230982 L174.986274,47.2712577 L176.173839,47.2712577 L176.173839,43.6209509 C176.173839,43.295184 176.235317,43.0169632 176.358578,42.7862883 C176.481839,42.5553067 176.649839,42.3798466 176.863187,42.259908 C177.075926,42.1399693 177.320317,42.0795399 177.595752,42.0795399 C177.9981,42.0795399 178.314622,42.2059202 178.545013,42.4580675 C178.7751,42.7102147 178.890448,43.0589877 178.890448,43.5046933 L178.890448,47.2712577 L180.077709,47.2712577 L180.077709,43.3605215 C180.077709,42.853773 179.991883,42.4280061 179.819622,42.0838344 C179.647361,41.7396626 179.405404,41.4801534 179.092839,41.305" id="Fill-48" fill="#2DBE60" mask="url(#mask-4)"></path>
                        <polygon id="Fill-49" fill="#2DBE60" mask="url(#mask-4)" points="183.846783 45.8546933 183.783478 45.8546933 182.238304 41.1230982 180.963696 41.1230982 183.179652 47.2712577 184.450609 47.2712577 186.662609 41.1230982 185.387696 41.1230982"></polygon>
                        <path d="M188.486596,43.6607055 C188.501204,43.3978221 188.557509,43.1478221 188.674378,42.9183742 C188.807987,42.6557975 188.998813,42.4416871 189.246552,42.2775767 C189.493683,42.113773 189.784639,42.0315644 190.1179,42.0315644 C190.425291,42.0315644 190.693117,42.1024233 190.922291,42.2438344 C191.151161,42.3852454 191.329509,42.5781902 191.456422,42.822362 C191.583335,43.0665337 191.646943,43.3462883 191.646943,43.6607055 L188.486596,43.6607055 Z M191.980813,41.7554908 C191.723943,41.5097853 191.434204,41.3297239 191.110987,41.2146933 C190.788074,41.1002761 190.454204,41.0429141 190.109987,41.0429141 C189.543596,41.0429141 189.04903,41.1775767 188.6269,41.4472086 C188.204465,41.7165337 187.876378,42.0916871 187.641726,42.5717485 C187.407683,43.0527301 187.290509,43.6073313 187.290509,44.2370859 C187.290509,44.8751227 187.407683,45.4309509 187.641726,45.9042638 C187.876378,46.3778834 188.209639,46.7450613 188.642726,47.0048773 C189.075509,47.2656135 189.592596,47.3956748 190.193378,47.3956748 C190.638335,47.3956748 191.0349,47.3269632 191.383074,47.1892331 C191.731248,47.0518098 192.020987,46.8585583 192.2529,46.608865 C192.484509,46.3594785 192.645204,46.0680675 192.735291,45.7343252 L191.611639,45.5303374 C191.539813,45.7226687 191.436639,45.8840184 191.301509,46.0146933 C191.166683,46.1453681 191.006291,46.2432209 190.820943,46.308865 C190.635596,46.3742025 190.430465,46.4067178 190.205248,46.4067178 C189.858596,46.4067178 189.555465,46.3312577 189.295857,46.1806442 C189.036552,46.0300307 188.834465,45.8107055 188.690204,45.5220552 C188.556596,45.255184 188.49177,44.9300307 188.48203,44.557638 L192.81077,44.557638 L192.81077,44.1330982 C192.81077,43.5754294 192.736813,43.1011963 192.588596,42.710092 C192.440074,42.3189877 192.237378,42.0008896 191.980813,41.7554908 Z" id="Fill-50" fill="#2DBE60" mask="url(#mask-4)"></path>
                        <path d="M198.239848,41.305 C197.927587,41.1304601 197.563283,41.0430368 197.147848,41.0430368 C196.6895,41.0430368 196.310283,41.1418098 196.009891,41.3390491 C195.7095,41.5369018 195.488848,41.7982515 195.348543,42.1237117 L195.273065,42.1237117 L195.273065,41.1230982 L194.133283,41.1230982 L194.133283,47.2712577 L195.320848,47.2712577 L195.320848,43.6209509 C195.320848,43.295184 195.382326,43.0169632 195.505587,42.7862883 C195.628543,42.5553067 195.796848,42.3798466 196.009891,42.259908 C196.222935,42.1399693 196.467326,42.0795399 196.742457,42.0795399 C197.145109,42.0795399 197.461326,42.2059202 197.692022,42.4580675 C197.922109,42.7102147 198.037152,43.0589877 198.037152,43.5046933 L198.037152,47.2712577 L199.224717,47.2712577 L199.224717,43.3605215 C199.224717,42.853773 199.138891,42.4280061 198.96663,42.0838344 C198.79437,41.7396626 198.552413,41.4801534 198.239848,41.305" id="Fill-51" fill="#2DBE60" mask="url(#mask-4)"></path>
                        <path d="M203.390722,46.2626994 C203.319504,46.2761963 203.235809,46.282638 203.140548,46.282638 C203.010896,46.282638 202.890678,46.2620859 202.781113,46.2206748 C202.671243,46.1792638 202.581765,46.1001227 202.512983,45.982638 C202.443896,45.8651534 202.409504,45.6918405 202.409504,45.4620859 L202.409504,42.083865 L203.660678,42.083865 L203.660678,41.1231288 L202.409504,41.1231288 L202.409504,39.6501227 L201.222243,39.6501227 L201.222243,41.1231288 L200.328678,41.1231288 L200.328678,42.083865 L201.222243,42.083865 L201.222243,45.7102454 C201.222243,46.0811043 201.305635,46.3893865 201.472417,46.635092 C201.6392,46.8807975 201.857722,47.0620859 202.127678,47.1792638 C202.397939,47.2967485 202.688896,47.3528834 203.001461,47.347362 C203.191983,47.3446012 203.351157,47.3295706 203.47807,47.3013497 C203.605287,47.2734356 203.702983,47.246135 203.77207,47.2194479 L203.557504,46.2307975 C203.517635,46.2384663 203.461939,46.2495092 203.390722,46.2626994" id="Fill-52" fill="#2DBE60" mask="url(#mask-4)"></path>
                        <path d="M205.881687,43.6607055 C205.896296,43.3978221 205.9526,43.1478221 206.06947,42.9183742 C206.203078,42.6557975 206.393904,42.4416871 206.641643,42.2775767 C206.888774,42.113773 207.17973,42.0315644 207.512991,42.0315644 C207.820383,42.0315644 208.088209,42.1024233 208.317383,42.2438344 C208.546252,42.3852454 208.7246,42.5781902 208.851513,42.822362 C208.97873,43.0665337 209.042035,43.3462883 209.042035,43.6607055 L205.881687,43.6607055 Z M209.375904,41.7554908 C209.119035,41.5097853 208.829296,41.3297239 208.506078,41.2146933 C208.183165,41.1002761 207.849296,41.0429141 207.505078,41.0429141 C206.938687,41.0429141 206.444122,41.1775767 206.021991,41.4472086 C205.599557,41.7165337 205.27147,42.0916871 205.036817,42.5717485 C204.802774,43.0527301 204.6856,43.6073313 204.6856,44.2370859 C204.6856,44.8751227 204.802774,45.4309509 205.036817,45.9042638 C205.27147,46.3778834 205.60473,46.7450613 206.037817,47.0048773 C206.4706,47.2656135 206.987687,47.3956748 207.58847,47.3956748 C208.033426,47.3956748 208.429991,47.3269632 208.778165,47.1892331 C209.126339,47.0518098 209.416078,46.8585583 209.647991,46.608865 C209.8796,46.3594785 210.040296,46.0680675 210.130383,45.7343252 L209.00673,45.5303374 C208.934904,45.7226687 208.83173,45.8840184 208.6966,46.0146933 C208.561774,46.1453681 208.401383,46.2432209 208.216035,46.308865 C208.030687,46.3742025 207.825557,46.4067178 207.600339,46.4067178 C207.253687,46.4067178 206.950557,46.3312577 206.690948,46.1806442 C206.431643,46.0300307 206.229557,45.8107055 206.085296,45.5220552 C205.951687,45.255184 205.886861,44.9300307 205.877122,44.557638 L210.205861,44.557638 L210.205861,44.1330982 C210.205861,43.5754294 210.131904,43.1011963 209.983687,42.710092 C209.835165,42.3189877 209.63247,42.0008896 209.375904,41.7554908 Z" id="Fill-53" fill="#2DBE60" mask="url(#mask-4)"></path>
                        <path d="M215.482004,45.3340491 C215.359048,45.659816 215.17857,45.9138037 214.942091,46.096319 C214.7047,46.2794479 214.415874,46.3708589 214.074091,46.3708589 C213.721961,46.3708589 213.426135,46.2751534 213.186613,46.0843558 C212.946787,45.893865 212.766309,45.6343558 212.64457,45.306135 C212.522526,44.9779141 212.461961,44.6082822 212.461961,44.1972393 C212.461961,43.7917178 212.521917,43.4273006 212.642439,43.1042945 C212.762657,42.7815951 212.942222,42.5266871 213.180526,42.3398773 C213.41883,42.1533742 213.716787,42.0595092 214.074091,42.0595092 C214.421048,42.0595092 214.712004,42.1490798 214.947874,42.3279141 C215.183439,42.5067485 215.362091,42.7564417 215.48383,43.0763804 C215.605874,43.3966258 215.666439,43.7702454 215.666439,44.1972393 C215.666439,44.6294479 215.605265,45.0082822 215.482004,45.3340491 Z M215.646961,39.0736196 L215.646961,42.1196319 L215.575439,42.1196319 C215.503917,41.9917178 215.403787,41.8435583 215.275352,41.6751534 C215.146917,41.507362 214.967048,41.3601227 214.735439,41.2331288 C214.50383,41.1064417 214.19857,41.0429448 213.819961,41.0429448 C213.330265,41.0429448 212.8917,41.1687117 212.505178,41.4193252 C212.118657,41.6702454 211.814917,42.0315951 211.593961,42.5039877 C211.3727,42.9763804 211.262222,43.5447853 211.262222,44.2092025 C211.262222,44.8736196 211.371483,45.4429448 211.590004,45.9162577 C211.808526,46.3898773 212.110135,46.7542945 212.495439,47.0092025 C212.880743,47.2641104 213.319309,47.391411 213.812048,47.391411 C214.182743,47.391411 214.484657,47.3285276 214.717483,47.2033742 C214.950309,47.0782209 215.13383,46.9309816 215.267439,46.7628834 C215.401352,46.5947853 215.503917,46.4453988 215.575439,46.3144172 L215.674657,46.3144172 L215.674657,47.2711656 L216.834526,47.2711656 L216.834526,39.0736196 L215.646961,39.0736196 Z" id="Fill-54" fill="#2DBE60" mask="url(#mask-4)"></path>
                    </g>
                </g>
            </g>
        </g>
    </g>
</svg>