<?xml version="1.0" encoding="UTF-8"?>
<svg width="123px" height="60px" viewBox="0 0 123 60" version="1.1" xmlns="http://www.w3.org/2000/svg" xmlns:xlink="http://www.w3.org/1999/xlink">
    <!-- Generator: Sketch 52.5 (67469) - http://www.bohemiancoding.com/sketch -->
    <title>LX logoTagline-color Copy 2</title>
    <desc>Created with Sketch.</desc>
    <defs>
        <polygon id="path-1" points="0.0770905904 0.10993985 17.6911218 0.10993985 17.6911218 16.9719136 0.0770905904 16.9719136"></polygon>
        <polygon id="path-3" points="0 59.5488722 122.990015 59.5488722 122.990015 0.10962406 0 0.10962406"></polygon>
    </defs>
    <g id="01-Landing-page" stroke="none" stroke-width="1" fill="none" fill-rule="evenodd">
        <g id="LX-logoTagline-color">
            <g id="Group-56">
                <polygon id="Fill-1" fill="#5E798D" points="0 7.14780451 0 34.0079549 17.2989742 34.0079549 17.2989742 29.3261504 5.71337269 29.3261504 5.71337269 7.14780451"></polygon>
                <g id="Group-55" transform="translate(0.000000, 0.341504)">
                    <path d="M32.5916867,26.4663158 C32.5916867,27.1741353 32.4114985,27.8084211 32.0506683,28.3678195 C31.689838,28.9276692 31.1928454,29.3711278 30.5596904,29.6990977 C29.9260815,30.0270677 29.1957974,30.1912782 28.3692919,30.1912782 C27.5069303,30.1912782 26.7966166,29.9918797 26.237897,29.5944361 C25.6796314,29.1965414 25.4000446,28.6172932 25.4000446,27.8566917 C25.4000446,27.3320301 25.5366609,26.8926316 25.8094395,26.5384962 C26.0817642,26.1843609 26.4643804,25.902406 26.9572882,25.6926316 C27.4497421,25.4828571 28.0261627,25.3294737 28.6860963,25.2338346 C28.9938232,25.1896241 29.3364985,25.1395489 29.7154838,25.0827068 C30.0931074,25.0258647 30.4716387,24.9604511 30.8501701,24.886015 C31.2277937,24.8115789 31.5691074,24.7285714 31.8727494,24.6369925 C32.1759376,24.5449624 32.4155834,24.4421053 32.5916867,24.3284211 L32.5916867,26.4663158 Z M37.4735613,16.9908271 C37.0074321,16.1291729 36.3720077,15.4231579 35.5672882,14.8723308 C34.7621148,14.3215038 33.8430188,13.9150376 32.8095465,13.6524812 C31.7756203,13.3903759 30.6958528,13.2590977 29.5702439,13.2590977 C27.9512734,13.2590977 26.5283768,13.5018045 25.3015539,13.987218 C24.0742771,14.4721805 23.0734838,15.1628571 22.2991738,16.0592481 C21.5253177,16.9556391 21.0060852,18.0157895 20.7423841,19.2396992 L25.941517,19.6592481 C26.1348675,18.995188 26.5306461,18.4416541 27.1288528,18 C27.7270594,17.558797 28.531779,17.3377444 29.5434653,17.3377444 C30.5025022,17.3377444 31.2436793,17.5655639 31.7669967,18.0198496 C32.2898601,18.4750376 32.5521996,19.1174436 32.5521996,19.9479699 L32.5521996,20.0264662 C32.5521996,20.4550376 32.3892587,20.7784962 32.0638306,20.9968421 C31.7384026,21.2156391 31.2146314,21.3798496 30.4934247,21.4890226 C29.7722181,21.5981955 28.8222587,21.7141353 27.6435465,21.836391 C26.6404838,21.9329323 25.6837162,22.0989474 24.7732439,22.3348872 C23.8632255,22.5708271 23.0512439,22.9209023 22.3391148,23.3842105 C21.6260779,23.8475188 21.0637273,24.4596992 20.6497937,25.2203008 C20.236314,25.9813534 20.0298011,26.9210526 20.0298011,28.0403008 C20.0298011,29.3693233 20.3220963,30.4777444 20.9071406,31.3646617 C21.4921849,32.2524812 22.2905502,32.9210526 23.3022365,33.3717293 C24.3139229,33.8219549 25.4663103,34.0470677 26.758945,34.0470677 C27.7624616,34.0470677 28.6461554,33.9135338 29.4118417,33.6469173 C30.1770742,33.3803008 30.832469,33.0090226 31.3780262,32.5321805 C31.9231295,32.0557895 32.3583952,31.5027068 32.6842771,30.8733835 L32.8422255,30.8733835 L32.8422255,33.6663158 L38.1734358,33.6663158 L38.1734358,20.0792481 C38.1734358,18.8815038 37.9396904,17.8515789 37.4735613,16.9908271 Z" id="Fill-2" fill="#5E798D"></path>
                    <path d="M48.1617166,22.0202256 L48.1617166,33.6665414 L42.5404804,33.6665414 L42.5404804,13.5214286 L47.8980155,13.5214286 L47.8980155,17.0758647 L48.1353919,17.0758647 C48.5838199,15.9038346 49.33589,14.9749624 50.3920561,14.288797 C51.4473144,13.6026316 52.7272406,13.2593233 54.2318347,13.2593233 C55.6388458,13.2593233 56.8661225,13.565188 57.9132111,14.1769173 C58.9598458,14.7890977 59.7731889,15.6615789 60.3541483,16.7939098 C60.9351077,17.9257895 61.2246797,19.2746617 61.2246797,20.8396241 L61.2246797,33.6665414 L55.6038974,33.6665414 L55.6038974,21.8366165 C55.612521,20.6036842 55.2957166,19.6396241 54.6534841,18.9448872 C54.0117055,18.2492481 53.1275579,17.9018797 52.0014952,17.9018797 C51.2448863,17.9018797 50.5785985,18.0633835 50.0026317,18.3872932 C49.4262111,18.7107519 48.9773292,19.1808271 48.6564399,19.7970677 C48.3350967,20.4133083 48.1703402,21.1545113 48.1617166,22.0202256" id="Fill-4" fill="#5E798D"></path>
                    <path d="M78.6486509,26.7284211 C78.3096066,27.6203008 77.8262303,28.3136842 77.1971601,28.807218 C76.56809,29.3016541 75.8005882,29.5484211 74.8946546,29.5484211 C73.9710199,29.5484211 73.1944406,29.2971429 72.5658244,28.7941353 C71.9367542,28.2915789 71.4574627,27.5918797 71.1274959,26.6959398 C70.7975292,25.7995489 70.6327727,24.766015 70.6327727,23.593985 C70.6327727,22.4314286 70.7952598,21.4082707 71.1206878,20.5249624 C71.4461159,19.6421053 71.9258613,18.9514286 72.5590162,18.4529323 C73.1926251,17.953985 73.9710199,17.7054135 74.8946546,17.7054135 C75.8005882,17.7054135 76.5708133,17.9458647 77.2039683,18.4267669 C77.8371232,18.907218 78.3209535,19.5893233 78.655459,20.4726316 C78.9890568,21.3554887 79.1569904,22.3962406 79.1569904,23.593985 C79.1569904,24.7921805 78.9872413,25.8369925 78.6486509,26.7284211 Z M79.0376214,6.80616541 L79.0376214,16.9051128 L78.8665107,16.9051128 C78.6205107,16.3628571 78.2614959,15.8102256 77.7912819,15.2458647 C77.3201601,14.6819549 76.7047063,14.2100752 75.9435587,13.8293233 C75.1828649,13.4490226 74.2351749,13.2590977 73.1000347,13.2590977 C71.6135956,13.2590977 70.2478871,13.6416541 69.0029092,14.4067669 C67.7579314,15.1718797 66.7621306,16.3218045 66.0145993,17.8560902 C65.266614,19.3908271 64.8926214,21.3117293 64.8926214,23.6201504 C64.8926214,25.867218 65.255721,27.7628571 65.9810125,29.3057143 C66.7072118,30.8490226 67.6921196,32.0160902 68.9370974,32.8078195 C70.1820753,33.5986466 71.5736546,33.9942857 73.1136509,33.9942857 C74.2043114,33.9942857 75.1297616,33.815188 75.8909092,33.4565414 C76.651603,33.0983459 77.2715956,32.6458647 77.751341,32.0990977 C78.2306325,31.552782 78.6028096,31.0001504 78.8665107,30.4403008 L79.1038871,30.4403008 L79.1038871,33.6663158 L84.6461491,33.6663158 L84.6461491,6.80616541 L79.0376214,6.80616541 Z" id="Fill-6" fill="#5E798D"></path>
                    <g id="Group-10" transform="translate(105.298893, 0.000000)">
                        <mask id="mask-2" fill="white">
                            <use xlink:href="#path-1"></use>
                        </mask>
                        <g id="Clip-9"></g>
                        <path d="M17.6911672,0.10993985 L10.691514,0.10993985 L0.153001107,13.9049774 C0.0517870849,14.037609 0.0517870849,14.221218 0.153001107,14.3538496 L1.33262103,15.9016692 C2.4205583,17.3290376 4.57918561,17.3285865 5.66621513,15.9007669 L17.6911672,0.10993985 Z" id="Fill-8" fill="#2DBE60" mask="url(#mask-2)"></path>
                    </g>
                    <path d="M107.496508,19.343188 C107.811043,19.343188 107.912257,18.9258947 107.632217,18.7828872 C106.792549,18.3534135 105.733206,17.6036391 104.728781,16.3025865 C103.762028,15.0498045 97.508545,6.80634586 97.508545,6.80634586 L90.3577517,6.80634586 L98.9604897,18.1598797 C99.5255635,18.9051429 100.409257,19.343188 101.347416,19.343188 L107.496508,19.343188 Z" id="Fill-11" fill="#2DBE60"></path>
                    <path d="M84.7582107,40.9885263 L91.9085502,40.9885263 C91.9085502,40.9885263 103.836827,25.3046165 104.783155,24.0558947 C105.716775,22.8234135 106.762048,22.1025113 107.614425,21.6838647 C107.899458,21.544015 107.802783,21.1199549 107.484617,21.1199549 L105.555196,21.1199549 L101.420853,21.1199549 C100.486779,21.1199549 99.6062624,21.554391 99.0411886,22.2937895 L84.7582107,40.9885263 Z" id="Fill-13" fill="#5E798D"></path>
                    <path d="M106.639048,24.570406 L105.963683,25.4645414 C105.863831,25.5967218 105.863831,25.7785263 105.963683,25.9107068 L111.826834,33.6570226 L118.977628,33.6570226 L112.001576,24.5523609 C110.650392,22.7889023 107.977978,22.7979248 106.639048,24.570406" id="Fill-15" fill="#5E798D"></path>
                    <path d="M3.31192251,54.1340301 C3.22250923,54.3180902 3.08180812,54.4633534 2.89027306,54.5698195 C2.69873801,54.6762857 2.44956089,54.7290677 2.14183395,54.7290677 L0.944059041,54.7290677 L0.944059041,52.2965865 L2.12957934,52.2965865 C2.44320664,52.2965865 2.69646863,52.3484662 2.88891144,52.4517744 C3.08135424,52.5550827 3.22250923,52.6976391 3.31192251,52.8798947 C3.40178967,53.0621504 3.44626937,53.2705714 3.44626937,53.505609 C3.44626937,53.7401955 3.40178967,53.9499699 3.31192251,54.1340301 M3.440369,51.7561353 C3.12084133,51.5801955 2.71734686,51.4917744 2.23033948,51.4917744 L0,51.4917744 L0,57.7114737 L0.944059041,57.7114737 L0.944059041,55.5248571 L2.22716236,55.5248571 C2.71190037,55.5248571 3.11494096,55.4364361 3.43537638,55.2591429 C3.75626568,55.0823008 3.99681919,54.8413985 4.15658303,54.5364361 C4.31634686,54.2319248 4.39668266,53.8881654 4.39668266,53.505609 C4.39668266,53.1248571 4.31725461,52.782 4.15839852,52.4774887 C3.99954244,52.1729774 3.76035055,51.9325263 3.440369,51.7561353" id="Fill-17" fill="#5E798D"></path>
                    <path d="M7.54947675,52.9768872 C7.27261328,52.9768872 7.02615941,53.0495188 6.810569,53.1938797 C6.59452472,53.3386917 6.4433845,53.5367368 6.35805609,53.788015 L6.30949151,53.788015 L6.30949151,53.046812 L5.42625166,53.046812 L5.42625166,57.7114737 L6.33944723,57.7114737 L6.33944723,54.8630526 C6.33944723,54.6604962 6.38801181,54.4800451 6.48468708,54.3221504 C6.58136236,54.1642556 6.71298598,54.0401955 6.87910406,53.9504211 C7.04476827,53.8601955 7.23403395,53.8150827 7.44553948,53.8150827 C7.53540664,53.8150827 7.61483469,53.8236541 7.68382362,53.840797 C7.75326642,53.858391 7.81544723,53.879594 7.87036605,53.9062105 L8.16402288,53.1469624 C8.08641033,53.0946316 7.99654317,53.0526767 7.89487528,53.0224511 C7.79320738,52.9922256 7.67792325,52.9768872 7.54947675,52.9768872" id="Fill-19" fill="#5E798D"></path>
                    <path d="M11.789028,56.2204962 C11.6982531,56.4695188 11.5593675,56.6689173 11.3719173,56.8186917 C11.1844672,56.9684662 10.9479985,57.0433534 10.6629653,57.0433534 C10.3761166,57.0433534 10.1378325,56.9684662 9.94947454,56.8186917 C9.76111661,56.6689173 9.62177712,56.4695188 9.53100221,56.2204962 C9.44022731,55.9714737 9.39529373,55.697188 9.39529373,55.3976391 C9.39529373,55.0998947 9.44022731,54.8260602 9.53100221,54.5756842 C9.62177712,54.3257594 9.76111661,54.1250075 9.94947454,53.9729774 C10.1378325,53.8213985 10.3761166,53.745609 10.6629653,53.745609 C10.9479985,53.745609 11.1844672,53.8213985 11.3719173,53.9729774 C11.5593675,54.1250075 11.6982531,54.3257594 11.789028,54.5756842 C11.8793491,54.8260602 11.9247365,55.0998947 11.9247365,55.3976391 C11.9247365,55.697188 11.8793491,55.9714737 11.789028,56.2204962 M11.8117218,53.286812 C11.4840244,53.0865113 11.1000465,52.9863609 10.6602421,52.9863609 C10.2199838,52.9863609 9.8360059,53.0865113 9.50830849,53.286812 C9.1801572,53.4871128 8.92553358,53.7686165 8.74443764,54.1308722 C8.56288782,54.4931278 8.47256679,54.9167368 8.47256679,55.4003459 C8.47256679,55.8821504 8.56288782,56.3035038 8.74443764,56.6635038 C8.92553358,57.0239549 9.1801572,57.3045564 9.50830849,57.5048571 C9.8360059,57.705609 10.2199838,57.8057594 10.6602421,57.8057594 C11.1000465,57.8057594 11.4840244,57.705609 11.8117218,57.5048571 C12.1394192,57.3045564 12.3940428,57.0239549 12.5755926,56.6635038 C12.7566886,56.3035038 12.8479173,55.8821504 12.8479173,55.4003459 C12.8479173,54.9167368 12.7566886,54.4931278 12.5755926,54.1308722 C12.3940428,53.7686165 12.1394192,53.4871128 11.8117218,53.286812" id="Fill-21" fill="#5E798D"></path>
                    <path d="M17.0868332,56.2204962 C16.9924273,56.4695188 16.8530878,56.6662105 16.6701764,56.8110226 C16.4863572,56.9558346 16.2585122,57.0284662 15.9852797,57.0284662 C15.7224863,57.0284662 15.5005417,56.9589925 15.3189919,56.8200451 C15.1378959,56.6815489 14.9994642,56.4884662 14.9036967,56.2416992 C14.8079292,55.9949323 14.7602723,55.7071128 14.7602723,55.3791429 C14.7602723,55.0552331 14.8070214,54.7719248 14.9005196,54.5287669 C14.9944716,54.2860602 15.1324494,54.0965865 15.314907,53.9612481 C15.4969107,53.8254586 15.7206708,53.7573383 15.9852797,53.7573383 C16.2603277,53.7573383 16.4899882,53.8286165 16.6742613,53.9702707 C16.8589882,54.1119248 16.9974199,54.3050075 17.0895565,54.5499699 C17.1826007,54.7949323 17.2288959,55.0714737 17.2288959,55.3791429 C17.2288959,55.6908722 17.1812391,55.9714737 17.0868332,56.2204962 M17.1953092,53.2714737 C16.8980214,53.0815489 16.5598849,52.9863609 16.1808996,52.9863609 C15.8895122,52.9863609 15.6553129,53.0341805 15.4783018,53.1302707 C15.3008369,53.226812 15.1624052,53.3382406 15.0625528,53.4659098 C14.9627004,53.5935789 14.8864494,53.7059098 14.8338,53.8033534 L14.7570952,53.8033534 L14.7570952,53.046812 L13.8647779,53.046812 L13.8647779,59.4604962 L14.7784273,59.4604962 L14.7784273,56.985609 L14.8338,56.985609 C14.8887188,57.0848571 14.9672391,57.1980902 15.068907,57.3257594 C15.1705749,57.4534286 15.3117299,57.564406 15.4919181,57.659594 C15.6721063,57.754782 15.9049439,57.8026015 16.1899771,57.8026015 C16.5689624,57.8026015 16.9061911,57.705609 17.2012096,57.5125263 C17.4966819,57.3194436 17.7290657,57.0429023 17.8983609,56.6833534 C18.0672022,56.3242556 18.1516229,55.8920752 18.1516229,55.3881654 C18.1516229,54.8842556 18.0667483,54.4529774 17.8965454,54.094782 C17.7263424,53.7361353 17.4930509,53.4618496 17.1953092,53.2714737" id="Fill-23" fill="#5E798D"></path>
                    <path d="M19.8847428,54.9721805 C19.8960897,54.772782 19.9396616,54.5833083 20.0290749,54.4087218 C20.1321044,54.2097744 20.2791598,54.0473684 20.4693332,53.9228571 C20.6599605,53.7983459 20.8832668,53.7360902 21.1401598,53.7360902 C21.3761745,53.7360902 21.5826875,53.7897744 21.7583369,53.8971429 C21.9348941,54.0045113 22.0719642,54.1506767 22.1695472,54.3360902 C22.2675841,54.5210526 22.3161487,54.7335338 22.3161487,54.9721805 L19.8847428,54.9721805 Z M22.5730417,53.5267669 C22.3751524,53.3404511 22.1523,53.2037594 21.9040306,53.1166917 C21.6553074,53.0296241 21.3984144,52.9863158 21.1338055,52.9863158 C20.698086,52.9863158 20.3172852,53.0882707 19.9927649,53.2926316 C19.6677908,53.4969925 19.4154365,53.7816541 19.2347945,54.1461654 C19.0546063,54.5106767 18.9647391,54.9315789 18.9647391,55.4093233 C18.9647391,55.8933835 19.0546063,56.315188 19.2347945,56.6742857 C19.4154365,57.0338346 19.6718756,57.3121805 20.0050196,57.5097744 C20.3377096,57.7069173 20.7357576,57.8057143 21.1982557,57.8057143 C21.5400232,57.8057143 21.8450269,57.7538346 22.1132668,57.6491729 C22.3810528,57.5449624 22.6039052,57.3983459 22.7822779,57.2088722 C22.9601967,57.0198496 23.0841044,56.7983459 23.1535472,56.5452632 L22.2889162,56.3905263 C22.2335435,56.5362406 22.1541155,56.6589474 22.0501782,56.7577444 C21.9466948,56.8569925 21.823241,56.9314286 21.6807244,56.9810526 C21.5382077,57.0306767 21.3802594,57.0554887 21.2073332,57.0554887 C20.940455,57.0554887 20.7071635,56.9981955 20.5074587,56.8840602 C20.3077539,56.7694737 20.1525288,56.6030075 20.0417834,56.3842105 C19.9387539,56.1816541 19.8888277,55.9348872 19.8811118,55.6524812 L23.2116432,55.6524812 L23.2116432,55.3303759 C23.2116432,54.907218 23.154455,54.5476692 23.0405325,54.2508271 C22.92661,53.9544361 22.7704771,53.7126316 22.5730417,53.5267669 Z" id="Fill-25" fill="#5E798D"></path>
                    <path d="M26.352228,52.9768872 C26.0753646,52.9768872 25.8284568,53.0495188 25.6128664,53.1938797 C25.3968221,53.3386917 25.2461358,53.5367368 25.1608074,53.788015 L25.1117889,53.788015 L25.1117889,53.046812 L24.2285491,53.046812 L24.2285491,57.7114737 L25.1421985,57.7114737 L25.1421985,54.8630526 C25.1421985,54.6604962 25.1907631,54.4800451 25.2874384,54.3221504 C25.3841137,54.1642556 25.5157373,54.0401955 25.6814015,53.9504211 C25.8475196,53.8601955 26.0363314,53.8150827 26.2482908,53.8150827 C26.3381579,53.8150827 26.417586,53.8236541 26.4865749,53.840797 C26.5560177,53.858391 26.6177446,53.879594 26.6731173,53.9062105 L26.9663203,53.1469624 C26.8887077,53.0946316 26.7992945,53.0526767 26.6976266,53.0224511 C26.5955048,52.9922256 26.4806745,52.9768872 26.352228,52.9768872" id="Fill-27" fill="#5E798D"></path>
                    <path d="M29.933162,56.9460902 C29.8782432,56.9564662 29.813793,56.9614286 29.7407192,56.9614286 C29.6408668,56.9614286 29.5487303,56.9456391 29.4643096,56.9145113 C29.3798889,56.8829323 29.3109,56.8229323 29.2582506,56.733609 C29.2051472,56.6447368 29.1783686,56.5130075 29.1783686,56.3388722 L29.1783686,53.7755639 L30.1410365,53.7755639 L30.1410365,53.0469925 L29.1783686,53.0469925 L29.1783686,51.9290977 L28.2651731,51.9290977 L28.2651731,53.0469925 L27.5775531,53.0469925 L27.5775531,53.7755639 L28.2651731,53.7755639 L28.2651731,56.5269925 C28.2651731,56.8084962 28.3291694,57.0421805 28.4576159,57.2284962 C28.5856085,57.4152632 28.7535421,57.5528571 28.9614166,57.6417293 C29.1692911,57.7306015 29.3935052,57.7730075 29.6336048,57.7693985 C29.7806601,57.7671429 29.9027524,57.7554135 30.0003354,57.7342105 C30.0983723,57.7130075 30.1732616,57.6922556 30.2263649,57.6719549 L30.0616085,56.9217293 C30.030745,56.927594 29.9880808,56.9361654 29.933162,56.9460902" id="Fill-29" fill="#5E798D"></path>
                    <path d="M33.0344867,56.6667519 L32.9854683,56.6667519 L31.7967708,53.0469023 L30.819579,53.0469023 L32.5361325,57.7724662 L32.4017856,58.1396842 C32.3264424,58.3417895 32.2383908,58.4879549 32.1376306,58.5768271 C32.0368705,58.6661504 31.9211325,58.7139699 31.7908705,58.721188 C31.6606085,58.728406 31.5108299,58.7094586 31.3415347,58.6652481 L31.1218594,59.4181805 C31.1708779,59.4402857 31.2489443,59.4637444 31.3569664,59.4881053 C31.4649886,59.5124662 31.5902579,59.5246466 31.7327745,59.5246466 C31.9851288,59.5246466 32.2088889,59.4804361 32.4036011,59.3924662 C32.5978594,59.3044962 32.765793,59.1759248 32.9060402,59.0081053 C33.0467413,58.8398346 33.1606638,58.6345714 33.2482616,58.3918647 L35.2035531,53.0469023 L34.2227303,53.0469023 L33.0344867,56.6667519 Z" id="Fill-31" fill="#5E798D"></path>
                    <mask id="mask-4" fill="white">
                        <use xlink:href="#path-3"></use>
                    </mask>
                    <g id="Clip-34"></g>
                    <polygon id="Fill-33" fill="#5E798D" mask="url(#mask-4)" points="38.4145793 57.7114286 39.3586384 57.7114286 39.3586384 51.4917293 38.4145793 51.4917293"></polygon>
                    <path d="M43.8195443,53.1848571 C43.5794446,53.0526767 43.2994041,52.9863609 42.9794225,52.9863609 C42.626762,52.9863609 42.3349207,53.0612481 42.1043524,53.2110226 C41.8728764,53.360797 41.7031273,53.5592932 41.595559,53.8060602 L41.5370092,53.8060602 L41.5370092,53.046812 L40.6601236,53.046812 L40.6601236,57.7114737 L41.5737731,57.7114737 L41.5737731,54.942 C41.5737731,54.694782 41.620976,54.4836541 41.7158358,54.3086165 C41.8106956,54.1335789 41.9400498,54.0004962 42.1043524,53.9093684 C42.2682011,53.8182406 42.4561052,53.7726767 42.6676107,53.7726767 C42.977607,53.7726767 43.2208838,53.8683158 43.3978948,54.059594 C43.5749059,54.2508722 43.6638653,54.5156842 43.6638653,54.8535789 L43.6638653,57.7114737 L44.5770609,57.7114737 L44.5770609,54.744406 C44.5770609,54.359594 44.5107952,54.0370376 44.3787177,53.7758346 C44.2461863,53.5146316 44.0600978,53.3174887 43.8195443,53.1848571" id="Fill-35" fill="#5E798D" mask="url(#mask-4)"></path>
                    <polygon id="Fill-36" fill="#5E798D" mask="url(#mask-4)" points="47.4766838 56.6365714 47.4281192 56.6365714 46.2394218 53.0469474 45.2585989 53.0469474 46.9638055 57.711609 47.9414513 57.711609 49.6430269 53.0469474 48.6622041 53.0469474"></polygon>
                    <path d="M51.0462708,54.9721805 C51.0576177,54.772782 51.1007358,54.5833083 51.190603,54.4087218 C51.2936325,54.2097744 51.4402339,54.0473684 51.6308613,53.9228571 C51.8210347,53.7983459 52.0447948,53.7360902 52.3012339,53.7360902 C52.5377026,53.7360902 52.7437616,53.7897744 52.9198649,53.8971429 C53.0964221,54.0045113 53.2334923,54.1506767 53.3310753,54.3360902 C53.4291122,54.5210526 53.4776768,54.7335338 53.4776768,54.9721805 L51.0462708,54.9721805 Z M53.7345697,53.5267669 C53.5366804,53.3404511 53.313828,53.2037594 53.0651048,53.1166917 C52.8168354,53.0296241 52.5599424,52.9863158 52.2953336,52.9863158 C51.859614,52.9863158 51.4788133,53.0882707 51.154293,53.2926316 C50.8293188,53.4969925 50.5765107,53.7816541 50.3963225,54.1461654 C50.2161343,54.5106767 50.1262672,54.9315789 50.1262672,55.4093233 C50.1262672,55.8933835 50.2161343,56.315188 50.3963225,56.6742857 C50.5765107,57.0338346 50.8334037,57.3121805 51.1665476,57.5097744 C51.4992376,57.7069173 51.8972856,57.8057143 52.3593299,57.8057143 C52.7015513,57.8057143 53.006555,57.7538346 53.2747948,57.6491729 C53.5425808,57.5449624 53.7654332,57.3983459 53.9438059,57.2088722 C54.1217247,57.0198496 54.2456325,56.7983459 54.3150753,56.5452632 L53.4499904,56.3905263 C53.3950716,56.5362406 53.3156435,56.6589474 53.2117063,56.7577444 C53.107769,56.8569925 52.984769,56.9314286 52.8422524,56.9810526 C52.6997358,57.0306767 52.5417875,57.0554887 52.3688613,57.0554887 C52.1015292,57.0554887 51.8686915,56.9981955 51.6689867,56.8840602 C51.4692819,56.7694737 51.3140568,56.6030075 51.2028576,56.3842105 C51.1002819,56.1816541 51.0503557,55.9348872 51.0426399,55.6524812 L54.3731712,55.6524812 L54.3731712,55.3303759 C54.3731712,54.907218 54.315983,54.5476692 54.2020605,54.2508271 C54.0876841,53.9544361 53.9320052,53.7126316 53.7345697,53.5267669 Z" id="Fill-37" fill="#5E798D" mask="url(#mask-4)"></path>
                    <path d="M57.7154579,55.0999398 L56.9697421,54.9298647 C56.7114875,54.8689624 56.5240373,54.7909173 56.4078454,54.6957293 C56.2916535,54.6009925 56.2335576,54.4751278 56.2335576,54.3194887 C56.2335576,54.1390376 56.3202476,53.9915188 56.4931738,53.8773835 C56.6665539,53.762797 56.8825982,53.7059549 57.1413066,53.7059549 C57.3305723,53.7059549 57.4885207,53.7361805 57.6146978,53.7970827 C57.7413288,53.8575338 57.8411812,53.9355789 57.9156166,54.0307669 C57.990052,54.1259549 58.044517,54.2261053 58.0794653,54.331218 L58.9068786,54.1859549 C58.8133804,53.8214436 58.6209376,53.5304662 58.3300041,53.3125714 C58.0381627,53.0951278 57.639207,52.9859549 57.1317753,52.9859549 C56.7795686,52.9859549 56.4668491,53.0441504 56.1936166,53.1605414 C55.920838,53.2769323 55.7070631,53.4384361 55.5522919,53.6450526 C55.3975207,53.8516692 55.320362,54.0925714 55.320362,54.3677594 C55.320362,54.7002406 55.4247531,54.9740752 55.6330815,55.1910677 C55.8423177,55.407609 56.1654764,55.5655038 56.6034653,55.6647519 L57.3977458,55.837985 C57.6219598,55.8885113 57.7885317,55.9633985 57.8970077,56.0626466 C58.0063915,56.1618947 58.0608565,56.2841504 58.0608565,56.4298647 C58.0608565,56.6103158 57.9709893,56.7623459 57.7917089,56.8868571 C57.6124284,57.0113684 57.3732365,57.0736241 57.0736793,57.0736241 C56.7990852,57.0736241 56.575779,57.0158797 56.4046683,56.8990376 C56.2335576,56.7826466 56.1205428,56.6103158 56.065624,56.3811429 L55.1823841,56.5151278 C55.2581812,56.9279098 55.4619708,57.246406 55.7937531,57.4701654 C56.1259893,57.6939248 56.5544469,57.8058045 57.0800336,57.8058045 C57.4590188,57.8058045 57.7921627,57.7435489 58.0808269,57.620391 C58.3685834,57.496782 58.594159,57.3262556 58.7557384,57.108812 C58.9177716,56.8913684 58.9985613,56.6423459 58.9985613,56.3630977 C58.9985613,56.0328722 58.8928085,55.7649023 58.6808491,55.5582857 C58.4693435,55.3516692 58.1475465,55.199188 57.7154579,55.0999398" id="Fill-38" fill="#5E798D" mask="url(#mask-4)"></path>
                    <path d="M61.9838303,56.9460902 C61.9289114,56.9564662 61.8644613,56.9614286 61.7913875,56.9614286 C61.6915351,56.9614286 61.5993985,56.9456391 61.5149779,56.9145113 C61.4305572,56.8829323 61.3615683,56.8229323 61.3089188,56.733609 C61.2558155,56.6447368 61.2290369,56.5130075 61.2290369,56.3388722 L61.2290369,53.7755639 L62.1917048,53.7755639 L62.1917048,53.0469925 L61.2290369,53.0469925 L61.2290369,51.9290977 L60.3158413,51.9290977 L60.3158413,53.0469925 L59.6282214,53.0469925 L59.6282214,53.7755639 L60.3158413,53.7755639 L60.3158413,56.5269925 C60.3158413,56.8084962 60.3798376,57.0421805 60.5082841,57.2284962 C60.6362768,57.4152632 60.8042103,57.5528571 61.0120849,57.6417293 C61.2199594,57.7306015 61.4441734,57.7730075 61.6842731,57.7693985 C61.8313284,57.7671429 61.9534207,57.7554135 62.0510037,57.7342105 C62.1485867,57.7130075 62.2239299,57.6922556 62.2770332,57.6719549 L62.1122768,56.9217293 C62.0814133,56.927594 62.0387491,56.9361654 61.9838303,56.9460902" id="Fill-39" fill="#5E798D" mask="url(#mask-4)"></path>
                    <path d="M63.7009284,51.24 C63.5420723,51.24 63.4063638,51.2936842 63.2933491,51.4006015 C63.1803343,51.5079699 63.1236,51.6378947 63.1236,51.7894737 C63.1236,51.9415038 63.1803343,52.0714286 63.2933491,52.1796992 C63.4063638,52.2884211 63.5420723,52.3421053 63.7009284,52.3421053 C63.8597845,52.3421053 63.9959469,52.2884211 64.1085077,52.1796992 C64.2219764,52.0714286 64.2782568,51.9415038 64.2782568,51.7894737 C64.2782568,51.6378947 64.2219764,51.5079699 64.1085077,51.4006015 C63.9959469,51.2936842 63.8597845,51.24 63.7009284,51.24" id="Fill-40" fill="#5E798D" mask="url(#mask-4)"></path>
                    <polygon id="Fill-41" fill="#5E798D" mask="url(#mask-4)" points="63.2397011 57.7114286 64.1533506 57.7114286 64.1533506 53.0467669 63.2397011 53.0467669"></polygon>
                    <path d="M68.5404111,53.1848571 C68.3003114,53.0526767 68.0202708,52.9863609 67.7002893,52.9863609 C67.3480827,52.9863609 67.0557875,53.0612481 66.8252192,53.2110226 C66.5937432,53.360797 66.4239941,53.5592932 66.3164258,53.8060602 L66.257876,53.8060602 L66.257876,53.046812 L65.3814443,53.046812 L65.3814443,57.7114737 L66.2946399,57.7114737 L66.2946399,54.942 C66.2946399,54.694782 66.3422967,54.4836541 66.4367026,54.3086165 C66.5315624,54.1335789 66.6609166,54.0004962 66.8252192,53.9093684 C66.9890679,53.8182406 67.176972,53.7726767 67.3884775,53.7726767 C67.6984738,53.7726767 67.9417506,53.8683158 68.1187616,54.059594 C68.2957727,54.2508722 68.3847321,54.5156842 68.3847321,54.8535789 L68.3847321,57.7114737 L69.2979277,57.7114737 L69.2979277,54.744406 C69.2979277,54.359594 69.2321159,54.0370376 69.0995845,53.7758346 C68.9670531,53.5146316 68.7809646,53.3174887 68.5404111,53.1848571" id="Fill-42" fill="#5E798D" mask="url(#mask-4)"></path>
                    <path d="M73.561852,56.1764211 C73.4674461,56.4060451 73.3285605,56.581985 73.146103,56.7046917 C72.9640993,56.8269474 72.7417007,56.8883008 72.4789074,56.8883008 C72.2079443,56.8883008 71.9800993,56.8237895 71.7958262,56.6943158 C71.6115531,56.564391 71.4726675,56.384391 71.3787155,56.1538647 C71.2847635,55.9228872 71.2384683,55.6544662 71.2384683,55.3490526 C71.2384683,55.0508571 71.2843096,54.781985 71.3773539,54.5410827 C71.4699443,54.2997293 71.6079221,54.1093534 71.7912875,53.9686015 C71.9746528,53.8278496 72.2038594,53.7574737 72.4789074,53.7574737 C72.7457856,53.7574737 72.9695458,53.8251429 73.1506417,53.9591278 C73.3321915,54.094015 73.4697155,54.280782 73.5632137,54.5198797 C73.6571657,54.7585263 73.7039148,55.0350677 73.7039148,55.3490526 C73.7039148,55.6707068 73.6567118,55.9463459 73.561852,56.1764211 Z M73.710269,53.0469474 L73.710269,53.8030376 L73.6430956,53.8030376 C73.5877229,53.7060451 73.5101103,53.5932632 73.4093502,53.4660451 C73.3081362,53.3383759 73.1683428,53.2264962 72.9890624,53.130406 C72.8097819,53.0343158 72.5746749,52.9860451 72.2832875,52.9860451 C71.9065716,52.9860451 71.5693428,53.080782 71.272055,53.2702556 C70.9743133,53.4592782 70.7405679,53.7313083 70.5708188,54.0854436 C70.4006159,54.4400301 70.3157413,54.8649925 70.3157413,55.360782 C70.3157413,55.8570226 70.4015236,56.2747669 70.5739959,56.6135639 C70.7455605,56.952812 70.9802137,57.2090526 71.2765937,57.3818346 C71.5729738,57.5550677 71.9065716,57.6416842 72.2769332,57.6416842 C72.5642358,57.6416842 72.7975273,57.5970226 72.9768077,57.5081504 C73.1560882,57.4188271 73.2972432,57.3137143 73.4002727,57.1923609 C73.5028483,57.0705564 73.5818225,56.9604812 73.6367413,56.8612331 L73.6943834,56.8612331 L73.6943834,57.7783759 C73.6943834,58.1388271 73.5818225,58.4018346 73.355793,58.5678496 C73.1293096,58.7338647 72.8433686,58.8168722 72.4970624,58.8168722 C72.2447081,58.8168722 72.0381952,58.7816842 71.8784314,58.7108571 C71.7182137,58.6395789 71.5924904,58.5547669 71.4994461,58.4555188 C71.4068557,58.3562707 71.3328742,58.2637895 71.2779554,58.1789774 L70.4927524,58.5010827 C70.5762653,58.6873985 70.7024424,58.8597293 70.8717376,59.0189774 C71.040579,59.1777744 71.2593465,59.3058947 71.5271325,59.4028872 C71.7949185,59.5003308 72.1153539,59.5490526 72.4879849,59.5490526 C72.8869406,59.5490526 73.2459554,59.486797 73.5650292,59.3636391 C73.8836491,59.2400301 74.1369111,59.0501053 74.3243613,58.7943158 C74.5113576,58.5380752 74.6053096,58.2114586 74.6053096,57.8149173 L74.6053096,53.0469474 L73.710269,53.0469474 Z" id="Fill-43" fill="#5E798D" mask="url(#mask-4)"></path>
                    <path d="M79.1273524,52.2966767 L80.3128727,52.2966767 C80.6242306,52.2966767 80.8765849,52.3426917 81.0685738,52.4351729 C81.2614705,52.527203 81.4030793,52.6589323 81.4934004,52.8312632 C81.5841753,53.0031429 81.6295627,53.2070526 81.6295627,53.4416391 C81.6295627,53.6744211 81.5846292,53.8738195 81.4952159,54.0398346 C81.4053487,54.2058496 81.2641937,54.3326165 81.0717509,54.4196842 C80.8793081,54.5063008 80.6305849,54.5500602 80.3246734,54.5500602 L79.1273524,54.5500602 L79.1273524,52.2966767 Z M81.6186697,55.1180301 C81.939559,54.9578797 82.1801125,54.7336692 82.3398764,54.4453985 C82.4996402,54.1566767 82.5795221,53.822391 82.5795221,53.4416391 C82.5795221,53.0586316 82.500548,52.721188 82.3416919,52.4288571 C82.1823819,52.1365263 81.9427362,51.9069023 81.6218469,51.7408872 C81.3009576,51.5748722 80.8983708,51.4918647 80.4136328,51.4918647 L78.1828395,51.4918647 L78.1828395,57.7115639 L79.1273524,57.7115639 L79.1273524,55.3580301 L80.4104557,55.3580301 C80.4313339,55.3580301 80.4499428,55.3557744 80.4699133,55.3553233 L81.7425775,57.7115639 L82.8182601,57.7115639 L81.4316734,55.1947218 C81.4956697,55.170812 81.5601199,55.1473534 81.6186697,55.1180301 Z" id="Fill-44" fill="#2DBE60" mask="url(#mask-4)"></path>
                    <path d="M84.3096465,54.9721805 C84.3209934,54.772782 84.3645653,54.5833083 84.4539786,54.4087218 C84.5570081,54.2097744 84.7040635,54.0473684 84.8942369,53.9228571 C85.0848642,53.7983459 85.3081705,53.7360902 85.5650635,53.7360902 C85.8010782,53.7360902 86.0075911,53.7897744 86.1836945,53.8971429 C86.3597978,54.0045113 86.4968679,54.1506767 86.5944509,54.3360902 C86.6924878,54.5210526 86.7410524,54.7335338 86.7410524,54.9721805 L84.3096465,54.9721805 Z M86.9979454,53.5267669 C86.8000561,53.3404511 86.5772037,53.2037594 86.3289343,53.1166917 C86.0802111,53.0296241 85.8233181,52.9863158 85.5587092,52.9863158 C85.1229897,52.9863158 84.7426428,53.0882707 84.4176686,53.2926316 C84.0926945,53.4969925 83.8403402,53.7816541 83.6596982,54.1461654 C83.47951,54.5106767 83.3896428,54.9315789 83.3896428,55.4093233 C83.3896428,55.8933835 83.47951,56.315188 83.6596982,56.6742857 C83.8403402,57.0338346 84.0967793,57.3121805 84.4299232,57.5097744 C84.7630672,57.7069173 85.1606613,57.8057143 85.6231594,57.8057143 C85.9649269,57.8057143 86.2699306,57.7538346 86.5381705,57.6491729 C86.8059565,57.5449624 87.0288089,57.3983459 87.2071815,57.2088722 C87.3851004,57.0198496 87.5090081,56.7983459 87.5784509,56.5452632 L86.7138199,56.3905263 C86.6584472,56.5362406 86.5790192,56.6589474 86.4750819,56.7577444 C86.3715985,56.8569925 86.2481446,56.9314286 86.105628,56.9810526 C85.9631114,57.0306767 85.8051631,57.0554887 85.6322369,57.0554887 C85.3653587,57.0554887 85.1320672,56.9981955 84.9323624,56.8840602 C84.7326576,56.7694737 84.5774325,56.6030075 84.4666871,56.3842105 C84.3636576,56.1816541 84.3137314,55.9348872 84.3060155,55.6524812 L87.6365469,55.6524812 L87.6365469,55.3303759 C87.6365469,54.907218 87.5793587,54.5476692 87.4654362,54.2508271 C87.3515137,53.9544361 87.1953808,53.7126316 86.9979454,53.5267669 Z" id="Fill-45" fill="#2DBE60" mask="url(#mask-4)"></path>
                    <path d="M89.1152247,51.24 C88.9563686,51.24 88.8206601,51.2936842 88.7076454,51.4006015 C88.5946306,51.5079699 88.5378963,51.6378947 88.5378963,51.7894737 C88.5378963,51.9415038 88.5946306,52.0714286 88.7076454,52.1796992 C88.8206601,52.2884211 88.9563686,52.3421053 89.1152247,52.3421053 C89.2740808,52.3421053 89.4097893,52.2884211 89.5228041,52.1796992 C89.6362727,52.0714286 89.6925531,51.9415038 89.6925531,51.7894737 C89.6925531,51.6378947 89.6362727,51.5079699 89.5228041,51.4006015 C89.4097893,51.2936842 89.2740808,51.24 89.1152247,51.24" id="Fill-46" fill="#2DBE60" mask="url(#mask-4)"></path>
                    <polygon id="Fill-47" fill="#2DBE60" mask="url(#mask-4)" points="88.653952 57.7114286 89.5676015 57.7114286 89.5676015 53.0467669 88.653952 53.0467669"></polygon>
                    <path d="M93.9547074,53.1848571 C93.7146077,53.0526767 93.4345672,52.9863609 93.1145856,52.9863609 C92.762379,52.9863609 92.4700838,53.0612481 92.2395155,53.2110226 C92.0080395,53.360797 91.8382904,53.5592932 91.7307221,53.8060602 L91.6721723,53.8060602 L91.6721723,53.046812 L90.7957406,53.046812 L90.7957406,57.7114737 L91.7089362,57.7114737 L91.7089362,54.942 C91.7089362,54.694782 91.756593,54.4836541 91.8509989,54.3086165 C91.9458587,54.1335789 92.0752129,54.0004962 92.2395155,53.9093684 C92.4033642,53.8182406 92.5912683,53.7726767 92.8027738,53.7726767 C93.1127701,53.7726767 93.3560469,53.8683158 93.5330579,54.059594 C93.710069,54.2508722 93.7990284,54.5156842 93.7990284,54.8535789 L93.7990284,57.7114737 L94.712224,57.7114737 L94.712224,54.744406 C94.712224,54.359594 94.6464122,54.0370376 94.5138808,53.7758346 C94.3813494,53.5146316 94.1952609,53.3174887 93.9547074,53.1848571" id="Fill-48" fill="#2DBE60" mask="url(#mask-4)"></path>
                    <polygon id="Fill-49" fill="#2DBE60" mask="url(#mask-4)" points="97.6120738 56.6365714 97.5630554 56.6365714 96.3743579 53.0469474 95.3939889 53.0469474 97.0987417 57.711609 98.0763875 57.711609 99.778417 53.0469474 98.7975941 53.0469474"></polygon>
                    <path d="M101.181479,54.9721805 C101.192826,54.772782 101.235944,54.5833083 101.325811,54.4087218 C101.428841,54.2097744 101.575442,54.0473684 101.76607,53.9228571 C101.956243,53.7983459 102.180003,53.7360902 102.436442,53.7360902 C102.672911,53.7360902 102.87897,53.7897744 103.055073,53.8971429 C103.231631,54.0045113 103.368701,54.1506767 103.466284,54.3360902 C103.564321,54.5210526 103.612885,54.7335338 103.612885,54.9721805 L101.181479,54.9721805 Z M103.869778,53.5267669 C103.671889,53.3404511 103.449037,53.2037594 103.200313,53.1166917 C102.952044,53.0296241 102.695151,52.9863158 102.430542,52.9863158 C101.994823,52.9863158 101.614022,53.0882707 101.289501,53.2926316 C100.964527,53.4969925 100.711719,53.7816541 100.531531,54.1461654 C100.351343,54.5106767 100.261476,54.9315789 100.261476,55.4093233 C100.261476,55.8933835 100.351343,56.315188 100.531531,56.6742857 C100.711719,57.0338346 100.968612,57.3121805 101.301756,57.5097744 C101.634446,57.7069173 102.032494,57.8057143 102.494538,57.8057143 C102.83676,57.8057143 103.141763,57.7538346 103.410003,57.6491729 C103.677789,57.5449624 103.900642,57.3983459 104.079014,57.2088722 C104.256933,57.0198496 104.380841,56.7983459 104.450284,56.5452632 L103.585653,56.3905263 C103.53028,56.5362406 103.450852,56.6589474 103.346915,56.7577444 C103.243431,56.8569925 103.119977,56.9314286 102.977461,56.9810526 C102.834944,57.0306767 102.676996,57.0554887 102.50407,57.0554887 C102.236738,57.0554887 102.0039,56.9981955 101.804195,56.8840602 C101.60449,56.7694737 101.449265,56.6030075 101.33852,56.3842105 C101.23549,56.1816541 101.185564,55.9348872 101.177848,55.6524812 L104.50838,55.6524812 L104.50838,55.3303759 C104.50838,54.907218 104.451192,54.5476692 104.337269,54.2508271 C104.222893,53.9544361 104.067214,53.7126316 103.869778,53.5267669 Z" id="Fill-50" fill="#2DBE60" mask="url(#mask-4)"></path>
                    <path d="M108.684797,53.1848571 C108.444697,53.0526767 108.164657,52.9863609 107.844675,52.9863609 C107.492469,52.9863609 107.200173,53.0612481 106.969605,53.2110226 C106.738129,53.360797 106.56838,53.5592932 106.460812,53.8060602 L106.402262,53.8060602 L106.402262,53.046812 L105.52583,53.046812 L105.52583,57.7114737 L106.439026,57.7114737 L106.439026,54.942 C106.439026,54.694782 106.486683,54.4836541 106.581089,54.3086165 C106.675948,54.1335789 106.805303,54.0004962 106.969605,53.9093684 C107.133454,53.8182406 107.321358,53.7726767 107.532863,53.7726767 C107.84286,53.7726767 108.086137,53.8683158 108.263148,54.059594 C108.440159,54.2508722 108.529118,54.5156842 108.529118,54.8535789 L108.529118,57.7114737 L109.442314,57.7114737 L109.442314,54.744406 C109.442314,54.359594 109.376502,54.0370376 109.24397,53.7758346 C109.111439,53.5146316 108.925351,53.3174887 108.684797,53.1848571" id="Fill-51" fill="#2DBE60" mask="url(#mask-4)"></path>
                    <path d="M112.647576,56.9460902 C112.592657,56.9564662 112.528207,56.9614286 112.455133,56.9614286 C112.35528,56.9614286 112.263144,56.9456391 112.178723,56.9145113 C112.093849,56.8829323 112.025314,56.8229323 111.97221,56.733609 C111.919561,56.6447368 111.892782,56.5130075 111.892782,56.3388722 L111.892782,53.7755639 L112.85545,53.7755639 L112.85545,53.0469925 L111.892782,53.0469925 L111.892782,51.9290977 L110.979587,51.9290977 L110.979587,53.0469925 L110.291967,53.0469925 L110.291967,53.7755639 L110.979587,53.7755639 L110.979587,56.5269925 C110.979587,56.8084962 111.043583,57.0421805 111.17203,57.2284962 C111.300022,57.4152632 111.467956,57.5528571 111.67583,57.6417293 C111.883705,57.7306015 112.107919,57.7730075 112.348018,57.7693985 C112.49462,57.7671429 112.617166,57.7554135 112.714749,57.7342105 C112.812332,57.7130075 112.887675,57.6922556 112.940779,57.6719549 L112.776022,56.9217293 C112.745159,56.927594 112.702494,56.9361654 112.647576,56.9460902" id="Fill-52" fill="#2DBE60" mask="url(#mask-4)"></path>
                    <path d="M114.563925,54.9721805 C114.575272,54.772782 114.61839,54.5833083 114.708257,54.4087218 C114.811286,54.2097744 114.957888,54.0473684 115.148515,53.9228571 C115.338689,53.7983459 115.562449,53.7360902 115.818888,53.7360902 C116.055356,53.7360902 116.261415,53.7897744 116.437519,53.8971429 C116.614076,54.0045113 116.751146,54.1506767 116.848729,54.3360902 C116.946312,54.5210526 116.995331,54.7335338 116.995331,54.9721805 L114.563925,54.9721805 Z M117.252224,53.5267669 C117.054334,53.3404511 116.831482,53.2037594 116.582759,53.1166917 C116.334489,53.0296241 116.077596,52.9863158 115.812987,52.9863158 C115.377268,52.9863158 114.996467,53.0882707 114.671947,53.2926316 C114.346973,53.4969925 114.094165,53.7816541 113.913976,54.1461654 C113.733788,54.5106767 113.643467,54.9315789 113.643467,55.4093233 C113.643467,55.8933835 113.733788,56.315188 113.913976,56.6742857 C114.094165,57.0338346 114.351058,57.3121805 114.683748,57.5097744 C115.016892,57.7069173 115.414939,57.8057143 115.876984,57.8057143 C116.219205,57.8057143 116.524209,57.7538346 116.792449,57.6491729 C117.059781,57.5449624 117.283087,57.3983459 117.46146,57.2088722 C117.639379,57.0198496 117.763286,56.7983459 117.832729,56.5452632 L116.967644,56.3905263 C116.912725,56.5362406 116.833297,56.6589474 116.72936,56.7577444 C116.625423,56.8569925 116.502423,56.9314286 116.359906,56.9810526 C116.21739,57.0306767 116.059441,57.0554887 115.886061,57.0554887 C115.619183,57.0554887 115.386345,56.9981955 115.186641,56.8840602 C114.986936,56.7694737 114.831711,56.6030075 114.720511,56.3842105 C114.617936,56.1816541 114.56801,55.9348872 114.560294,55.6524812 L117.890371,55.6524812 L117.890371,55.3303759 C117.890371,54.907218 117.833637,54.5476692 117.719714,54.2508271 C117.605338,53.9544361 117.449205,53.7126316 117.252224,53.5267669 Z" id="Fill-53" fill="#2DBE60" mask="url(#mask-4)"></path>
                    <path d="M121.949553,56.241609 C121.855147,56.4883759 121.716261,56.6814586 121.533804,56.8199549 C121.3518,56.9589023 121.129401,57.0283759 120.866608,57.0283759 C120.595645,57.0283759 120.3678,56.9557444 120.183527,56.8109323 C119.999254,56.6661203 119.860368,56.4694286 119.766416,56.220406 C119.672464,55.9713835 119.626169,55.690782 119.626169,55.3790526 C119.626169,55.0713835 119.67201,54.7948421 119.765055,54.5498797 C119.857645,54.3053684 119.995623,54.1118346 120.178988,53.9701805 C120.362354,53.8285263 120.59156,53.7572481 120.866608,53.7572481 C121.133486,53.7572481 121.357246,53.8253684 121.538342,53.9611579 C121.719892,54.0964962 121.857416,54.2859699 121.950914,54.5286767 C122.044866,54.7718346 122.091615,55.0551429 122.091615,55.3790526 C122.091615,55.7070226 122.044413,55.9948421 121.949553,56.241609 Z M122.076184,51.4916842 L122.076184,53.8032632 L122.021719,53.8032632 C121.966346,53.7058195 121.889641,53.5934887 121.790697,53.4658195 C121.691752,53.3381504 121.55332,53.2267218 121.374948,53.1306316 C121.197029,53.0340902 120.962376,52.9862707 120.670988,52.9862707 C120.294272,52.9862707 119.957044,53.0814586 119.659756,53.2718346 C119.362014,53.4617594 119.128269,53.7360451 118.95852,54.0946917 C118.788317,54.4528872 118.703442,54.8841654 118.703442,55.3880752 C118.703442,55.8924361 118.787409,56.3241654 118.955342,56.6832632 C119.123276,57.042812 119.35566,57.3193534 119.65204,57.5124361 C119.94842,57.7059699 120.285649,57.8025113 120.664634,57.8025113 C120.950121,57.8025113 121.182505,57.7546917 121.361785,57.6599549 C121.540612,57.5647669 121.681767,57.4533383 121.784796,57.3256692 C121.887372,57.1984511 121.966346,57.0847669 122.021719,56.9855188 L122.09797,56.9855188 L122.09797,57.7113835 L122.989833,57.7113835 L122.989833,51.4916842 L122.076184,51.4916842 Z" id="Fill-54" fill="#2DBE60" mask="url(#mask-4)"></path>
                </g>
            </g>
        </g>
    </g>
</svg>