<?xml version="1.0" encoding="UTF-8"?>
<svg width="217px" height="92px" viewBox="0 0 217 92" version="1.1" xmlns="http://www.w3.org/2000/svg" xmlns:xlink="http://www.w3.org/1999/xlink">
    <!-- Generator: Sketch 64 (93537) - https://sketch.com -->
    <title>App Store</title>
    <desc>Created with Sketch.</desc>
    <defs>
        <rect id="path-1" x="0" y="0" width="185.366667" height="60" rx="12"></rect>
        <filter x="-13.8%" y="-37.5%" width="127.5%" height="186.7%" filterUnits="objectBoundingBox" id="filter-3">
            <feMorphology radius="1.5" operator="erode" in="SourceAlpha" result="shadowSpreadOuter1"></feMorphology>
            <feOffset dx="0" dy="5" in="shadowSpreadOuter1" result="shadowOffsetOuter1"></feOffset>
            <feGaussianBlur stdDeviation="2.5" in="shadowOffsetOuter1" result="shadowBlurOuter1"></feGaussianBlur>
            <feColorMatrix values="0 0 0 0 0   0 0 0 0 0   0 0 0 0 0  0 0 0 0.2 0" type="matrix" in="shadowBlurOuter1" result="shadowMatrixOuter1"></feColorMatrix>
            <feMorphology radius="1" operator="dilate" in="SourceAlpha" result="shadowSpreadOuter2"></feMorphology>
            <feOffset dx="0" dy="3" in="shadowSpreadOuter2" result="shadowOffsetOuter2"></feOffset>
            <feGaussianBlur stdDeviation="7" in="shadowOffsetOuter2" result="shadowBlurOuter2"></feGaussianBlur>
            <feColorMatrix values="0 0 0 0 0   0 0 0 0 0   0 0 0 0 0  0 0 0 0.12 0" type="matrix" in="shadowBlurOuter2" result="shadowMatrixOuter2"></feColorMatrix>
            <feMorphology radius="0.5" operator="dilate" in="SourceAlpha" result="shadowSpreadOuter3"></feMorphology>
            <feOffset dx="0" dy="8" in="shadowSpreadOuter3" result="shadowOffsetOuter3"></feOffset>
            <feGaussianBlur stdDeviation="5" in="shadowOffsetOuter3" result="shadowBlurOuter3"></feGaussianBlur>
            <feColorMatrix values="0 0 0 0 0   0 0 0 0 0   0 0 0 0 0  0 0 0 0.14 0" type="matrix" in="shadowBlurOuter3" result="shadowMatrixOuter3"></feColorMatrix>
            <feMerge>
                <feMergeNode in="shadowMatrixOuter1"></feMergeNode>
                <feMergeNode in="shadowMatrixOuter2"></feMergeNode>
                <feMergeNode in="shadowMatrixOuter3"></feMergeNode>
            </feMerge>
        </filter>
    </defs>
    <g id="Page-1" stroke="none" stroke-width="1" fill="none" fill-rule="evenodd">
        <g id="LandX-Website-v3_homepage" transform="translate(-966.000000, -1223.000000)">
            <g id="App-Store" transform="translate(981.633333, 1236.000000)">
                <g id="appStoreShadow">
                    <mask id="mask-2" fill="white">
                        <use xlink:href="#path-1"></use>
                    </mask>
                    <g id="Elevation/08">
                        <use fill="black" fill-opacity="1" filter="url(#filter-3)" xlink:href="#path-1"></use>
                        <use fill="#FAFAFA" fill-rule="evenodd" xlink:href="#path-1"></use>
                    </g>
                </g>
                <g>
                    <path d="M11.8895234,59.9968629 C11.4111047,59.9968629 10.944243,59.9907456 10.4695772,59.9800795 C9.48626851,59.9672813 8.50525808,59.881771 7.53459144,59.7242497 C6.62949378,59.5685373 5.75269743,59.2788839 4.93312323,58.8648437 C4.12106409,58.454234 3.38040087,57.9158311 2.73950741,57.2702604 C2.08933715,56.6322941 1.54804071,55.8923622 1.13706869,55.0797867 C0.721568116,54.2619301 0.43401699,53.3852864 0.284432048,52.4803932 C0.122893296,51.5080752 0.0354941386,50.5249084 0.0229882145,49.5393705 C0.0130329358,49.2085643 0,48.1071317 0,48.1071317 L0,11.8728537 C0,11.8728537 0.0138808618,10.7883457 0.0230667262,10.4697271 C0.0350410527,9.48575037 0.121931983,8.50410922 0.282987433,7.53330022 C0.432848488,6.62592818 0.720622225,5.74675656 1.13634639,4.92622085 C1.54580798,4.1142066 2.08409925,3.37372209 2.73035295,2.73347276 C3.37588027,2.08714015 4.11891273,1.54596484 4.93235382,1.12968211 C5.7500444,0.716972084 6.62518371,0.429361934 7.52845183,0.276487504 C8.50230629,0.117383884 9.48672241,0.0313647668 10.47344,0.0191519398 L11.8902928,0 L173.260885,0 L174.694665,0.019920527 C175.672407,0.0315265048 176.647881,0.116778217 177.612787,0.274950329 C178.525199,0.429742343 179.409459,0.719359303 180.236489,1.13427795 C181.866106,1.97320827 183.192095,3.30047519 184.028603,4.9300481 C184.437691,5.74491932 184.721026,6.61691952 184.868991,7.51645404 C185.031965,8.49522856 185.123176,9.48458382 185.141898,10.4766287 C185.146452,10.9208407 185.146452,11.3979923 185.146452,11.8728537 C185.158857,12.4610582 185.158857,13.0209192 185.158857,13.5853759 L185.158857,46.4129457 C185.158857,46.9827983 185.158857,47.5388476 185.146452,48.0994458 C185.146452,48.6095368 185.146452,49.0768064 185.140328,49.5577225 C185.122011,50.5320647 185.03232,51.5037607 184.871975,52.4650214 C184.725456,53.3764423 184.43947,54.2599286 184.024049,55.0844923 C183.610172,55.8882481 183.071984,56.6217707 182.42932,57.2580257 C181.78785,57.9070657 181.04588,58.4486187 180.231936,58.8618634 C179.407196,59.2790866 178.524238,59.5698112 177.612787,59.7242497 C176.642193,59.8826116 175.661089,59.9681274 174.677707,59.9800795 C174.217785,59.9907456 173.736195,59.9968629 173.268579,59.9968629 L171.566447,60 L11.8895234,59.9968629 Z" id="Path" fill="#2DBE60" fill-rule="nonzero"></path>
                    <path d="M28.2784966,22.1839059 C29.6335236,22.1839059 32.2114018,20.3025172 34.8704984,20.5832863 C37.3979608,20.6628344 39.7401659,21.9365927 41.1905478,24.0203104 C38.901871,25.4357303 37.4935178,27.9318817 37.458907,30.634234 C37.4621741,33.691623 39.2823155,36.4508046 42.0815583,37.6417854 C41.5432017,39.401054 40.7317033,41.0636285 39.6771221,42.5679244 C38.2608607,44.6990998 36.7759224,46.7811813 34.419055,46.8196664 C32.1289642,46.8728382 31.3593299,45.4639272 28.7326636,45.4639272 C26.0813896,45.4639272 25.2610671,46.7811972 23.0646411,46.8728382 C20.8200921,46.9564668 19.1047053,44.5982198 17.6369481,42.4870356 C14.7033181,38.1756067 12.4189596,30.3367391 15.4814717,25.0029545 C16.919581,22.4033402 19.6084858,20.7537268 22.5643938,20.65766 C24.8109697,20.6111625 26.8972466,22.1839059 28.2784966,22.1839059 Z M34.898194,12.1875 C35.0515016,14.2013285 34.4184003,16.1959575 33.1333383,17.7477987 C31.8865857,19.3076923 29.9974888,20.2061878 28.0078744,20.1855805 C27.8813433,18.2297267 28.5328699,16.3034913 29.8189528,14.8311356 C31.1213759,13.3388344 32.934905,12.3949316 34.898194,12.1875 Z" id="Combined-Shape" fill="#FFFFFF"></path>
                    <path d="M78.9286713,32.6126921 C82.5357218,32.6127077 84.9134481,35.4471697 84.9134481,39.8253711 C84.9134481,44.2157599 82.5495829,47.0365052 78.9823263,47.0365052 C77.1384425,47.1323885 75.4016048,46.1723262 74.510611,44.5646996 L74.4431106,44.5646996 L74.4431106,51.5625 L71.525836,51.5625 L71.525836,32.7605167 L74.349646,32.7605167 L74.349646,35.1103862 L74.403301,35.1103862 C75.3338782,33.5128381 77.0725888,32.5531891 78.9286713,32.6126921 Z M94.5712059,32.6127077 C98.1783663,32.6127077 100.55603,35.4471697 100.55603,39.8253711 C100.55603,44.2157599 98.1921646,47.0365052 94.624908,47.0365052 C92.7810242,47.1323885 91.0441865,46.1723262 90.1531927,44.5646996 L90.0856923,44.5646996 L90.0856923,51.5625 L87.1684178,51.5625 L87.1684178,32.7605167 L89.9921649,32.7605167 L89.9921649,35.1103862 L90.0458199,35.1103862 C90.9764039,33.5128391 92.7151211,32.5531957 94.5712059,32.6127077 Z M115.514911,27.1875 C119.634007,27.1875 122.457801,29.4840322 122.552851,32.8274926 L119.607948,32.8274926 C119.431662,30.893648 117.823551,29.726344 115.473484,29.726344 C113.123417,29.726344 111.515322,30.9073803 111.515322,32.6263463 C111.515322,33.9963415 112.542427,34.8024872 115.054981,35.4196116 L117.202688,35.9438404 C121.202246,36.884094 122.864012,38.4811863 122.864012,41.3156171 C122.864012,44.9409945 119.958998,47.2116227 115.338577,47.2116227 C111.015552,47.2116227 108.096754,44.9943318 107.908193,41.4893301 L110.89449,41.4894706 C111.110649,43.4111278 112.988573,44.6728567 115.554767,44.6728567 C118.013682,44.6728567 119.782743,43.4110654 119.782743,41.6783671 C119.782743,40.174264 118.715781,39.2736622 116.189428,38.6564598 L113.663075,38.0514604 C110.083559,37.1919774 108.421792,35.5278623 108.421792,32.8274926 C108.421792,29.4840322 111.352865,27.1875 115.514911,27.1875 Z M140.168455,32.5868037 C144.289121,32.5868037 146.910524,35.3800689 146.910524,39.8253711 C146.910524,44.2828138 144.302919,47.0639385 140.168455,47.0639385 C136.03545,47.0639385 133.427909,44.2827982 133.427909,39.8253711 C133.427909,35.3801313 136.061571,32.5868037 140.168455,32.5868037 Z M163.791707,32.5867881 C167.723811,32.5867881 170.196525,35.2719118 170.196525,39.555626 L170.196525,40.5492169 L160.158535,40.5492169 L160.158535,40.7244592 C160.064816,41.7762744 160.430172,42.8174255 161.16167,43.5830774 C161.893168,44.3487293 162.920304,44.7650864 163.981807,44.7262408 C165.397499,44.858101 166.732219,44.0499861 167.263929,42.7390589 L170.034021,42.7390745 C169.641577,45.3038069 167.129007,47.0639229 163.914338,47.0639229 C159.779874,47.0639229 157.213664,44.3102159 157.213664,39.8924095 C157.213664,35.4608864 159.793672,32.5867881 163.791707,32.5867881 Z M129.160013,29.4170562 L129.160013,32.7605167 L131.862668,32.7605167 L131.862668,35.0570489 L129.160013,35.0570489 L129.160013,42.8457491 C129.160013,44.0557323 129.701163,44.6195818 130.889217,44.6195818 C131.210066,44.6140201 131.530396,44.591622 131.848869,44.552481 L131.848869,46.8352965 C131.314719,46.9345113 130.771799,46.9794454 130.228498,46.9694044 C127.351096,46.9694044 126.22894,45.8950428 126.22894,43.1550525 L126.22894,35.0570489 L124.162485,35.0570489 L124.162485,32.7605167 L126.228909,32.7605167 L126.228909,29.4170562 L129.160013,29.4170562 Z M62.6759485,27.5106137 L69.713889,46.8886962 L66.5130027,46.8886962 L64.7301593,41.6510118 L57.2997745,41.6510118 L55.515377,46.8886962 L52.3681614,46.8886962 L59.4061019,27.5106137 L62.6759485,27.5106137 Z M155.584141,32.6126765 C155.920331,32.6115096 156.255593,32.6478041 156.58365,32.7208804 L156.58365,35.4334375 C156.15923,35.3045155 155.716488,35.2453232 155.272885,35.2581952 C154.415235,35.2236078 153.585219,35.5633863 153.000776,36.188315 C152.416333,36.8132437 152.135852,37.6608882 152.23298,38.508682 L152.23298,46.888665 L149.315705,46.888665 L149.315705,32.7605167 L152.098089,32.7605167 L152.098089,35.1652216 L152.165589,35.1652216 C152.553601,33.617204 153.98046,32.5518045 155.584141,32.6126765 Z M140.168439,34.9762939 C137.804574,34.9762939 136.400361,36.7897472 136.400361,39.8253711 C136.400361,42.886899 137.804574,44.6729347 140.168439,44.6729347 C142.532304,44.6729347 143.938056,42.886899 143.938056,39.8253711 C143.938056,36.7760305 142.532304,34.9762939 140.168439,34.9762939 Z M78.1591036,35.0844822 C75.9301451,35.0844822 74.430882,37.0046101 74.430882,39.8253711 C74.430882,42.6720361 75.9301451,44.5784474 78.1591036,44.5784474 C80.4279344,44.5784474 81.9149219,42.7116568 81.9149219,39.8253711 C81.9149219,36.9650051 80.4279187,35.0844822 78.1591036,35.0844822 Z M93.8016853,35.0844822 C91.5727268,35.0844822 90.0734637,37.0046101 90.0734637,39.8253711 C90.0734637,42.6720361 91.5727268,44.5784474 93.8016853,44.5784474 C96.0705161,44.5784474 97.5575193,42.7116568 97.5575193,39.8253711 C97.5575193,36.9650051 96.0705004,35.0844822 93.8016853,35.0844822 Z M61.0556555,30.7337141 L60.9744038,30.7337141 L58.0693265,39.2340884 L63.9591317,39.2340884 L61.0556555,30.7337141 Z M163.791707,34.9366576 C162.832167,34.9309653 161.910094,35.3065306 161.230435,35.979877 C160.550776,36.6532234 160.169848,37.5685578 160.172306,38.5224299 L167.277712,38.5224299 C167.330653,37.577288 166.984566,36.6530537 166.322832,35.972384 C165.661098,35.2917144 164.743715,34.9163251 163.791707,34.9366576 Z" id="Combined-Shape" fill="#FFFFFF" fill-rule="nonzero"></path>
                    <path d="M68.7091274,14.6845662 C69.7859489,15.3595753 70.3908671,16.5928865 70.2701811,17.8672524 C70.3931633,19.1429877 69.7887972,20.378691 68.711021,21.0551533 C67.6332447,21.7316156 66.2688217,21.7316156 65.1910455,21.0551533 C64.1132692,20.378691 63.5089031,19.1429877 63.6318853,17.8672524 C63.5111993,16.5928865 64.1161176,15.3595753 65.192939,14.6845662 C66.2697605,14.009557 67.6323059,14.009557 68.7091274,14.6845662 Z M99.2467052,14.6844412 C100.323607,15.3594607 100.92862,16.5928031 100.808027,17.8672524 C100.930853,19.1430334 100.326376,20.3787017 99.2485464,21.0551342 C98.1707166,21.7315667 96.8062756,21.7315667 95.7284459,21.0551342 C94.6506161,20.3787017 94.0461393,19.1430334 94.1689653,17.8672524 C94.048372,16.5928031 94.6533856,15.3594607 95.730287,14.6844412 C96.8071884,14.0094216 98.1698039,14.0094216 99.2467052,14.6844412 Z M105.417745,14.1782439 C107.182265,14.1782439 108.177477,15.0655941 108.177477,16.5674264 L108.177477,21.425211 L106.840352,21.425211 L106.840352,20.4260578 L106.730455,20.4260578 C106.276315,21.155716 105.468705,21.5821602 104.616395,21.5423507 C104.018906,21.6051312 103.423008,21.4096597 102.976021,21.0042603 C102.529033,20.5988609 102.272673,20.0213713 102.270319,19.4145575 C102.270319,18.134768 103.213639,17.3969726 104.888081,17.2921168 L106.794555,17.1811033 L106.794555,16.5674264 C106.794555,15.8165102 106.303061,15.3924926 105.353645,15.3924926 C104.578242,15.3924926 104.04095,15.6800604 103.886773,16.1827238 L102.542021,16.1827238 C102.683975,14.9615278 103.821142,14.1782439 105.417745,14.1782439 Z M116.575697,11.5400032 L116.575697,21.4251794 L115.244684,21.4251794 L115.244684,20.3018919 L115.134787,20.3018919 C114.683672,21.0983392 113.832322,21.5761497 112.924569,21.5423507 C111.134103,21.5424296 110.003033,20.1192115 110.003033,17.8672524 C110.003033,15.6206932 111.146311,14.1975066 112.924554,14.1975066 C113.822478,14.1557129 114.663467,14.6417389 115.082879,15.4448495 L115.18668,15.4448495 L115.18668,11.5400032 L116.575697,11.5400032 Z M128.895246,11.5400032 L128.895246,21.4251794 L127.564232,21.4251794 L127.564232,20.3018919 L127.45432,20.3018919 C127.003205,21.0983392 126.151855,21.5761497 125.244103,21.5423507 C123.453637,21.5424296 122.322581,20.1192115 122.322581,17.8672524 C122.322581,15.6206932 123.465859,14.1975066 125.244103,14.1975066 C126.142027,14.1557129 126.983016,14.6417389 127.402427,15.4448495 L127.506228,15.4448495 L127.506228,11.5400032 L128.895246,11.5400032 Z M60.8982737,13.2955543 C61.748357,14.2023637 62.1510803,15.4464675 61.9955966,16.6854345 C61.9955966,19.6952412 60.3852541,21.4253373 57.6072036,21.4253373 L54.2384529,21.4253373 L54.2384529,12.0042042 L57.6072036,12.0042042 C58.8403504,11.9148127 60.0481903,12.3887449 60.8982737,13.2955543 Z M72.6819045,14.3154516 L73.9427066,19.7406034 L74.0465074,19.7406034 L75.4935289,14.3154516 L76.8260741,14.3154516 L78.2730956,19.7406034 L78.3829922,19.7406034 L79.6376829,14.3154516 L81.0267003,14.3154516 L79.09428,21.4251952 L77.65337,21.4251952 L76.1987209,16.1888658 L76.0888243,16.1888658 L74.6402711,21.4251952 L73.2130844,21.4251952 L71.2730365,14.3154516 L72.6819045,14.3154516 Z M88.0470487,14.9087795 C88.5209669,15.4232092 88.7375987,16.1274203 88.6357782,16.8225791 L88.6357782,21.4251163 L87.2467607,21.4251163 L87.2467607,17.1749298 C87.2467607,16.0323795 86.7552661,15.4641754 85.7279962,15.4641754 C85.2574709,15.4420376 84.8008386,15.6285761 84.4778142,15.9748861 C84.1547898,16.3211962 83.9975897,16.7927392 84.0474268,17.265891 L84.0474268,21.4251952 L82.6584094,21.4251952 L82.6584094,14.3154516 L83.9955343,14.3154516 L83.9955343,15.4448968 L84.099335,15.4448968 C84.460293,14.6133264 85.3037475,14.1046466 86.199656,14.1782123 C86.8933547,14.1255267 87.5731305,14.3943498 88.0470487,14.9087795 Z M92.2380767,11.5400032 L92.2380767,21.4251794 L90.8490593,21.4251794 L90.8490593,11.5400032 L92.2380767,11.5400032 Z M132.583026,14.3154516 L132.583026,21.4251952 L131.198589,21.4251952 L131.198589,14.3154516 L132.583026,14.3154516 Z M106.794555,18.21264 L105.075832,18.3236536 C104.106566,18.3891785 103.666964,18.7222349 103.666964,19.3490167 C103.666964,19.9889036 104.216463,20.3612749 104.972094,20.3612749 C105.419411,20.4070159 105.865954,20.2674164 106.209498,19.9744338 C106.553043,19.6814512 106.764172,19.2601729 106.794555,18.8070384 L106.794555,18.21264 Z M66.9533231,15.4248762 C65.7459453,15.4248762 65.0667464,16.3261208 65.0667464,17.8672682 C65.0667464,19.4207468 65.7459922,20.3150443 66.9533231,20.3150443 C68.1561368,20.3150443 68.8414784,19.4145575 68.8414784,17.8672524 C68.8414784,16.3261208 68.1561055,15.4248762 66.9533231,15.4248762 Z M97.490403,15.4248762 C96.2830252,15.4248762 95.6038264,16.3261208 95.6038264,17.8672682 C95.6038264,19.4207468 96.2830721,20.3150443 97.490403,20.3150443 C98.6932011,20.3150443 99.3785583,19.4145575 99.3785583,17.8672524 C99.3785583,16.3261208 98.6931855,15.4248762 97.490403,15.4248762 Z M113.318422,15.4580176 C112.14915,15.4580176 111.437847,16.3715936 111.437847,17.8672524 C111.437894,19.3752425 112.14157,20.2826607 113.318422,20.2826607 C114.489131,20.2826607 115.212673,19.3621533 115.212673,17.873426 C115.212673,16.3916458 114.481534,15.4580176 113.318422,15.4580176 Z M125.63797,15.4580176 C124.468621,15.4580176 123.757443,16.3715936 123.757443,17.8672524 C123.757443,19.3752425 124.461119,20.2826607 125.63797,20.2826607 C126.808679,20.2826607 127.532221,19.3621533 127.532221,17.873426 C127.532221,16.3916458 126.801083,15.4580176 125.63797,15.4580176 Z M57.4453988,13.3355611 L55.6869905,13.3355611 L55.6869905,20.0929857 L57.4453988,20.0929857 C58.3266691,20.1461983 59.1847639,19.7954534 59.7814222,19.1381397 C60.3780806,18.480826 60.6497806,17.586923 60.5210814,16.7046341 C60.6404172,15.8260067 60.3648044,14.9394802 59.7696254,14.2875268 C59.1744464,13.6355735 58.3219858,13.2864195 57.4453988,13.3355611 Z M132.507614,11.4971675 C132.776119,11.7525099 132.863225,12.1474949 132.727407,12.4938244 C132.59159,12.8401539 132.26034,13.0677234 131.891573,13.0680456 C131.65881,13.0800352 131.43128,12.995578 131.261581,12.8341983 C131.091883,12.6728186 130.994707,12.448487 130.992519,12.2130631 C130.9706,11.8412067 131.175495,11.493477 131.509526,11.3356444 C131.843557,11.1778118 132.239109,11.241825 132.507614,11.4971675 Z" id="Combined-Shape" fill="#FFFFFF" fill-rule="nonzero"></path>
                </g>
            </g>
        </g>
    </g>
</svg>