<?xml version="1.0" encoding="UTF-8"?>
<svg width="144px" height="75px" viewBox="0 0 144 75" version="1.1" xmlns="http://www.w3.org/2000/svg" xmlns:xlink="http://www.w3.org/1999/xlink">
    <!-- Generator: Sketch 64 (93537) - https://sketch.com -->
    <title>Fintech Logo@2x</title>
    <desc>Created with Sketch.</desc>
    <defs>
        <polygon id="path-1" points="0 0.109650872 6.90189912 0.109650872 6.90189912 8.9076 0 8.9076"></polygon>
    </defs>
    <g id="Page-1" stroke="none" stroke-width="1" fill="none" fill-rule="evenodd">
        <g id="LandX-Website-v3_homepage" transform="translate(-1248.000000, -5003.000000)">
            <g id="Group-46" transform="translate(0.000000, 4526.000000)">
                <g id="Group-42" transform="translate(256.000000, 414.000000)">
                    <g id="Group-36" transform="translate(186.000000, 0.000000)">
                        <g id="Group-8" transform="translate(806.000000, 0.000000)">
                            <g id="Fintech-Logo" transform="translate(0.000000, 63.000000)">
                                <path d="M49.992163,38.4496134 C49.992503,41.6897483 49.987403,44.9298831 50,48.1700179 C50.0013431,48.5046637 49.9211025,48.6058753 49.57804,48.5994005 C48.4101312,48.5772498 47.2408625,48.5752051 46.0726138,48.6000821 C45.696911,48.6082608 45.5979702,48.5015967 45.5989902,48.1274204 C45.6112303,43.131247 45.6085103,38.1350736 45.6044303,33.1385595 C45.6040903,32.8035729 45.7496114,32.3666931 45.5347298,32.1605213 C45.3201882,31.9543495 44.8870249,32.1005441 44.5507624,32.0995217 C42.1319844,32.09441 39.7132063,32.1063373 37.2944282,32.0872536 C36.8877852,32.0838458 36.7572242,32.1632475 36.7589243,32.6042167 C36.7766044,37.7639644 36.7636843,42.9233713 36.7817044,48.083119 C36.7830644,48.527496 36.6487634,48.6103055 36.2431404,48.6004229 C35.116032,48.5731605 33.9872236,48.5755459 32.8601151,48.5997413 C32.4901924,48.6075792 32.3858116,48.5097754 32.3868316,48.1308282 C32.4000917,42.9986837 32.3960117,37.8661983 32.3966917,32.733713 C32.3966917,32.0967955 32.3970317,32.0967955 31.7520469,32.0967955 C30.9367208,32.0967955 30.1213947,32.0899799 29.3060686,32.1012256 C29.0813269,32.1042926 28.9987063,32.0443154 29.0010863,31.8061103 C29.0119664,30.7306091 29.0129864,29.6551078 29,28.5796066 C28.9970063,28.3161838 29.0996871,28.2623406 29.3370088,28.2654076 C30.1927952,28.2769941 31.0496016,28.2517764 31.904708,28.2790388 C32.2844908,28.2913069 32.4113118,28.2020226 32.4079118,27.7930867 C32.3983917,26.6507927 32.3358312,25.5061132 32.443272,24.365523 C32.706434,21.5694243 34.3649664,20.0171721 37.1043668,19.6849118 C38.8376998,19.4743098 40.5414525,19.6709398 42.216305,20.1626851 C42.483207,20.2410645 42.5444074,20.3381867 42.5087072,20.6135369 C42.3829062,21.5840779 42.2863455,22.5587082 42.1914848,23.5329978 C42.1663246,23.7923313 42.1081842,23.8581018 41.817142,23.8008508 C40.6981937,23.5813886 39.5717653,23.3953228 38.4228967,23.4447358 C38.1488546,23.4563224 37.8829726,23.5026684 37.6228707,23.583774 C37.258728,23.6972537 37.0326263,23.9371627 36.9194054,24.3069089 C36.7606243,24.8248942 36.7704843,25.3544661 36.7704843,25.8850604 C36.7701443,26.5383353 36.7888445,27.1926326 36.7626643,27.8452261 C36.7494042,28.1764641 36.8306648,28.2797204 37.1805274,28.2783572 C40.9443555,28.2650668 44.7081836,28.2701785 48.4720117,28.2701785 C48.8524745,28.2701785 49.2346374,28.2909661 49.6130602,28.2630222 C49.9217825,28.2405307 50,28.3410607 49.9989631,28.6477626 C49.987743,31.914819 49.991823,35.1822162 49.992163,38.4496134" id="Fill-1" fill="#028CC6"></path>
                                <path d="M132.391678,29.4050856 C133.496209,28.9395758 134.563593,28.536982 135.667442,28.25025 C137.118907,27.8734414 138.577188,27.5592051 140.097835,27.732482 C142.404366,27.9951478 143.549452,29.4680016 143.893659,31.5971762 C143.995218,32.223586 143.993854,32.8544653 143.993514,33.4863759 C143.991469,38.3625397 143.989083,43.2387035 144,48.1148673 C144.001011,48.4758609 143.93217,48.6106319 143.537524,48.6006616 C142.366878,48.5707507 141.194528,48.5755639 140.023541,48.5979111 C139.685809,48.6044434 139.626169,48.4896131 139.62685,48.18019 C139.63537,43.2902741 139.632644,38.4003581 139.631962,33.5104422 C139.631962,32.2036454 139.222321,31.8051772 137.939552,31.9688277 C136.06277,32.2081148 134.304926,32.8589347 132.587979,33.634899 C132.409059,33.7156928 132.368845,33.8435877 132.370549,34.0271787 C132.377705,34.7691065 132.372593,35.5106904 132.372253,36.2522744 C132.371912,40.2084203 132.367141,44.1642223 132.379069,48.1200244 C132.380432,48.4872064 132.299662,48.6092567 131.913196,48.599974 C130.756182,48.5717821 129.597463,48.5717821 128.440449,48.6006616 C128.057391,48.6106319 127.999796,48.4765485 128,48.1337765 C128.008656,39.3430671 128.006612,30.5520138 128.006612,21.7613043 C128.006612,21.3356757 128.021607,20.9097033 128.000818,20.4851061 C127.989912,20.2616339 128.088403,20.1963112 128.275162,20.1694945 C129.567814,19.9845283 130.859785,19.797843 132.151414,19.607376 C132.307501,19.5843411 132.384521,19.6211281 132.372934,19.7919984 C132.366459,19.8875757 132.372253,19.9841845 132.372253,20.0801056 C132.372593,23.1021376 132.372934,26.1238258 132.373616,29.1458578 C132.373616,29.2135871 132.382817,29.2813164 132.391678,29.4050856" id="Fill-3" fill="#028CC6"></path>
                                <path d="M95.4367077,36.7827433 C95.4710698,36.0684111 95.3989093,35.3540788 95.5741563,34.6465174 C95.8456173,33.556399 96.5088068,32.8623795 97.615268,32.6084699 C98.6564412,32.3714876 99.7044868,32.3579458 100.74566,32.6321681 C101.773088,32.8996195 102.31601,33.5970245 102.5428,34.5821937 C102.711175,35.3134533 102.690558,36.0548692 102.700866,36.7996707 C102.704303,37.0501948 102.621833,37.1212895 102.37099,37.117904 C101.274837,37.1077476 100.178684,37.1145185 99.0790957,37.1145185 C97.9829431,37.1145185 96.8833542,37.1077476 95.7872016,37.1212895 C95.522613,37.1246749 95.4229628,37.0535802 95.4367077,36.7827433 M95.8078189,40.9299331 C97.6049594,40.943475 99.4055361,40.9370426 101.202677,40.9370426 C102.975764,40.9370426 104.745414,40.9197767 106.518501,40.9468604 C106.934283,40.9536314 107.006444,40.8283693 106.999571,40.4525831 C106.975518,39.1288679 106.985827,37.8017671 106.992699,36.4746664 C106.999571,35.4861118 106.913666,34.5046666 106.662822,33.5462426 C106.123337,31.4946532 104.937842,29.9779666 102.876113,29.2365507 C100.570413,28.4108367 98.2234781,28.4308109 95.8765432,29.0605067 C93.9763162,29.5683259 92.5605956,30.6787571 91.7393402,32.469666 C91.2135993,33.6071809 91.0108626,34.8157905 91.0039902,36.0548692 C90.9936815,37.8931746 91.0074264,39.7314799 91.000554,41.5731707 C90.9971178,42.4127651 91.0142988,43.2455885 91.1654923,44.0784119 C91.5778381,46.3669836 92.7564599,48.0597141 95.010617,48.933163 C96.5775311,49.5357751 98.2097332,49.6407244 99.8659889,49.5899425 C102.072039,49.5256187 104.226546,49.197229 106.315765,48.4696934 C106.638769,48.3576347 106.700621,48.2120598 106.645641,47.9107538 C106.470394,46.942512 106.315765,45.9674992 106.157699,44.9924864 C106.123337,44.769046 106.064921,44.674253 105.79346,44.7521187 C104.539241,45.0974357 103.267842,45.371658 101.975825,45.5341602 C100.41922,45.7339024 98.8591779,45.8591644 97.3128811,45.4901492 C96.3954117,45.2700942 95.8215638,44.7081077 95.5913373,43.7838768 C95.3886007,42.9544388 95.474506,42.11823 95.4367077,41.2820211 C95.4229628,40.987486 95.5260493,40.9299331 95.8078189,40.9299331" id="Fill-5" fill="#028CC6"></path>
                                <path d="M55.0078323,38.2850647 C55.0081722,35.004099 55.0125913,31.7231333 55.0010338,28.4421676 C55,28.1067201 55.0785369,27.9945592 55.4249216,28.003187 C56.3886121,28.0276898 57.3540022,28.0235485 58.3180326,28.0024967 C58.596432,27.9966299 58.7018091,28.0925706 58.7330823,28.3551997 C58.7660552,28.6281821 58.8275818,28.8973683 58.8741517,29.1686252 C58.909504,29.3736208 58.97375,29.4315994 59.1981012,29.3349685 C60.4840416,28.7803759 61.806694,28.3275909 63.1718372,28.0235485 C64.6046257,27.7046664 66.0418332,27.4340997 67.523571,27.7257181 C69.2990049,28.07497 70.3041664,29.1979596 70.7447106,30.919716 C70.9510457,31.7262393 70.9918369,32.5517436 70.9925167,33.3789736 C70.9955761,38.314054 70.9904772,43.2494796 71,48.1849052 C71.0006749,48.5044775 70.9309901,48.6049047 70.6016017,48.5990378 C69.4067615,48.5779861 68.2105616,48.5766056 67.0157214,48.6000731 C66.6638979,48.6069753 66.5952328,48.4896378 66.5959127,48.1576414 C66.6050907,43.2636291 66.5925134,38.3696168 66.6078101,33.4759496 C66.6112094,32.3395007 66.4786382,31.7334866 64.8728273,31.9184658 C63.0270287,32.1307088 61.2920459,32.7650219 59.6056726,33.5408304 C59.3891397,33.6402222 59.4003572,33.8003535 59.4006972,33.9801561 C59.4010371,34.9450851 59.4000173,35.9100141 59.4003572,36.8749432 C59.4006972,40.6249141 59.3962781,44.3745399 59.4102151,48.1241657 C59.4119147,48.5041324 59.3089171,48.6087009 58.9349984,48.6007634 C57.7670124,48.5752252 56.5983465,48.5783312 55.4303604,48.5990378 C55.0958732,48.6052498 54.9986543,48.5151759 55,48.1693752 C55.0125913,44.874605 55.0074924,41.5798349 55.0078323,38.2850647" id="Fill-7" fill="#028CC6"></path>
                                <path d="M82.6158317,23.6011765 C82.6158317,24.0184394 82.6158317,24.4241211 82.6158317,24.8298028 C82.6158317,26.0679665 82.6244573,27.3061303 82.6095284,28.544294 C82.6058791,28.8300765 82.6841728,28.9108041 82.9631768,28.9084198 C84.5008506,28.8951355 86.0388562,28.9114854 87.5765301,28.8941136 C87.905297,28.8903668 87.9829271,28.9945973 87.9470979,29.3134202 C87.8313162,30.3397166 87.7281411,31.3673755 87.6428806,32.3967375 C87.6209849,32.6579952 87.5440183,32.7356572 87.2875735,32.7336134 C85.8557287,32.7210104 84.4235522,32.739404 82.9920393,32.7189666 C82.6655946,32.7145385 82.6088649,32.8221753 82.6098601,33.127714 C82.6191492,36.9103298 82.6154999,40.6929456 82.6161634,44.4755614 C82.6164952,45.4293051 82.8550254,45.6902221 83.7789567,45.7232625 C84.8621293,45.7620935 85.9107997,45.5403481 86.9478587,45.2497969 C87.443829,45.1108228 87.4418385,45.1029885 87.5277624,45.6350412 C87.6770511,46.5591508 87.808757,47.4873478 87.9862447,48.4060074 C88.0403204,48.6859994 87.930842,48.7541239 87.7301316,48.8287203 C86.4883812,49.2909454 85.2104697,49.5539062 83.8881034,49.593759 C82.8092435,49.6264588 81.7443173,49.5634436 80.7261682,49.1519713 C79.2571672,48.5586064 78.5983063,47.3602956 78.4032357,45.8308993 C78.353141,45.4412269 78.3319089,45.0454232 78.3312453,44.652004 C78.3259373,40.8152291 78.3232833,36.9781137 78.3355581,33.1409982 C78.3368851,32.801738 78.255274,32.7090886 77.9231895,32.7193073 C77.0486893,32.7451946 76.1731939,32.7216916 75.298362,32.7322509 C75.0794052,32.7346353 74.9981258,32.6757075 75.0007798,32.436931 C75.0120594,31.3758911 75.0157087,30.3145105 75,29.2534706 C74.9958035,28.9509976 75.1112535,28.8924105 75.3749969,28.8968386 C76.2498288,28.9108041 77.1249925,28.8941136 77.9998244,28.9084198 C78.2602503,28.9125072 78.3365534,28.8276922 78.3342311,28.5616658 C78.322288,27.2417526 78.3411979,25.9214987 78.3199658,24.6022668 C78.3149895,24.2970688 78.4214821,24.2003319 78.683235,24.1638853 C79.9807199,23.982674 81.2772095,23.7932877 82.6158317,23.6011765" id="Fill-9" fill="#028CC6"></path>
                                <path d="M110.004081,39.1258917 C110.004081,37.9489144 109.993153,36.7715985 110.007061,35.5946212 C110.022294,34.2997769 110.220983,33.0377863 110.794863,31.8672443 C111.617767,30.1893319 113.04336,29.3181994 114.765663,28.9452924 C117.397961,28.3752628 120.018337,28.5415638 122.615865,29.2365731 C122.93741,29.3226025 122.992049,29.4767103 122.958934,29.7751037 C122.843364,30.8088115 122.740376,31.8442128 122.648648,32.8802915 C122.627124,33.1214448 122.537714,33.1282188 122.342998,33.0821558 C120.816074,32.7221193 119.266631,32.5639471 117.70063,32.5957847 C117.212518,32.6059457 116.722749,32.6276224 116.243247,32.7410864 C114.992499,33.0371089 114.454052,33.6491371 114.315963,34.9659968 C114.269603,35.4086757 114.239799,35.8564351 114.244766,36.3011463 C114.26894,38.5731358 114.149396,40.8478348 114.308016,43.116776 C114.413652,44.6246617 115.011044,45.2705598 116.460811,45.5154388 C118.033103,45.7806397 119.598441,45.6109517 121.158812,45.3738628 C121.563144,45.3122197 121.966152,45.2353351 122.365517,45.1459187 C122.558907,45.1025653 122.625799,45.1570958 122.645668,45.3535409 C122.754285,46.4285699 122.86257,47.5039376 122.994367,48.5762571 C123.025826,48.8316357 122.924164,48.9003915 122.723157,48.9623733 C121.436314,49.359328 120.11437,49.5212259 118.778187,49.5777885 C117.026081,49.6519635 115.288546,49.5774498 113.61989,48.9437449 C111.749895,48.2334942 110.691876,46.8184119 110.258403,44.8675086 C110.06435,43.992989 109.99514,43.1062764 110.002094,42.2107576 C110.010042,41.1824689 110.004081,40.1541803 110.004081,39.1258917" id="Fill-11" fill="#028CC6"></path>
                                <path d="M62.8810303,71.4005719 C61.4961122,72.4050855 59.9837266,73.0434052 58.230186,73.0165286 C57.9270198,73.013169 57.6238537,72.9829328 57.3275777,72.9191008 C56.4249694,72.7343241 55.9082089,72.1598364 55.8530878,71.2225143 C55.8048568,70.4598903 55.8186371,69.6939067 55.8186371,68.9312826 C55.8186371,67.1070322 55.7910765,65.2794222 55.8461976,63.4551717 C55.8909835,61.8694513 56.700575,61.0900293 58.3197578,61.0362761 C59.8769294,60.9825229 61.4168756,61.1975358 62.9464867,61.489819 C63.2152021,61.5402127 63.1876416,61.6947532 63.1876416,61.8660917 L63.1876416,66.4149593 C63.1876416,67.879735 63.1773063,69.3411511 63.1945317,70.8025672 C63.1979768,71.0814121 63.0980697,71.2426718 62.8810303,71.4005719 L62.8810303,71.4005719 Z M64.9894131,57.6800584 C64.9894131,56.443734 64.9756328,55.2107692 64.9997483,53.9744447 C65.0066385,53.6250487 64.8722807,53.5645763 64.5691146,53.6183296 C64.2693935,53.6754424 63.9696724,53.7527126 63.6699513,53.7459935 C63.2220923,53.7325552 63.1738613,53.9442085 63.1807514,54.313762 C63.1979768,56.030506 63.1807514,57.74725 63.1945317,59.463994 C63.1979768,59.8033113 63.1635261,59.9309752 62.7501177,59.8503453 C61.14127,59.5446238 59.5151971,59.3833641 57.8718987,59.4841514 C55.6291582,59.6218941 54.1098824,61.0127591 54.0513162,63.2032034 C53.9789697,65.8841461 53.9858599,68.5718079 54.0547613,71.2527505 C54.089212,72.6671325 54.781671,73.7724334 56.2217102,74.2931679 C56.9934059,74.5720128 57.7995522,74.6358448 58.6194789,74.5854511 C60.2076561,74.491383 61.6580305,73.9941655 62.9706022,73.124035 C63.160081,72.9997307 63.2668782,72.9963711 63.2703232,73.2584181 C63.2737683,73.5003077 63.3013289,73.7421972 63.2978838,73.9807272 C63.2978838,74.2158976 63.3736753,74.3234041 63.6355006,74.3032466 C63.9386668,74.2830892 64.245278,74.2730104 64.541554,74.3066062 C64.9101765,74.3435616 64.9997483,74.2192572 64.9997483,73.863142 C64.985968,70.5606776 64.9894131,67.2615727 64.9894131,63.9591083 L64.9894131,57.6800584 Z" id="Fill-13" fill="#767676"></path>
                                <path d="M142.298354,71.2967905 C142.298354,71.4698613 142.265883,71.5996643 142.11002,71.6995129 C140.580611,72.6613869 138.957035,73.2471649 137.125642,72.9642607 C136.378797,72.8477708 135.959914,72.4550333 135.807298,71.6995129 C135.664424,70.9772752 135.661177,70.2450528 135.820287,69.5228152 C136.011869,68.6707745 136.518425,68.2347693 137.473087,68.1815168 C138.236168,68.1415774 139.005743,68.1748602 139.768823,68.1748602 L139.768823,68.1482339 C140.509174,68.1482339 141.249524,68.1582188 141.989875,68.1449057 C142.226917,68.1415774 142.301602,68.2214562 142.298354,68.4644209 C142.288613,69.4096535 142.29186,70.3515579 142.298354,71.2967905 M143.996615,68.7639665 L143.996615,66.2111727 C143.996615,65.359132 143.999862,64.5104196 143.993368,63.658379 C143.983626,61.8211663 143.223793,60.6263123 141.681396,60.0205647 C141.304726,59.8741202 140.915068,59.7776 140.515668,59.7210191 C138.758959,59.4680696 137.02498,59.6444686 135.297496,59.9806253 C134.557145,60.1237415 134.560392,60.1370546 134.690278,60.9092165 C134.709761,61.0423478 134.751974,61.1688226 134.758468,61.301954 C134.774704,61.5815298 134.88186,61.6314541 135.157868,61.5815298 C136.781444,61.2886408 138.408267,61.0390196 140.067561,61.2254034 C141.457342,61.3818328 142.145738,61.9975653 142.259389,63.388788 C142.343815,64.3806166 142.285366,65.38243 142.298354,66.3775869 C142.301602,66.6172234 142.142491,66.5806122 142.006111,66.5806122 C141.226794,66.5806122 140.447478,66.5706274 139.671409,66.5839405 C138.710252,66.6005819 137.752342,66.5207031 136.794432,66.6638193 C135.378674,66.8735012 134.495449,67.6456631 134.173981,69.0135878 C133.972658,69.8756133 133.94668,70.7542802 134.092802,71.6229623 C134.404529,73.5167559 135.339709,74.4087359 137.213315,74.5718218 C138.859621,74.7182663 140.398771,74.3088874 141.853495,73.5200841 C142.421746,73.213882 142.437982,73.213882 142.467206,73.8728822 C142.483442,74.1990541 142.567868,74.3654682 142.921808,74.315544 C143.152355,74.2855894 143.392645,74.2855894 143.623192,74.315544 C143.951155,74.3588117 144.003109,74.2057106 143.999862,73.9094934 C143.99012,72.1954272 143.996615,70.4780327 143.996615,68.7639665" id="Fill-15" fill="#767676"></path>
                                <path d="M100.817495,65.6796335 C100.834613,64.9614819 100.810648,64.2466551 100.951014,63.5384778 C101.207783,62.2318408 102.002052,61.4538432 103.350941,61.2111345 C104.302695,61.0448957 105.251025,61.0448957 106.185662,61.3009035 C107.185346,61.5768599 107.777624,62.2251912 108.04124,63.1860515 C108.291161,64.0704419 108.188453,64.974781 108.208995,65.8757953 C108.215842,66.1417774 108.010428,66.0752819 107.863214,66.0752819 C106.740281,66.0786067 105.620772,66.0786067 104.501262,66.0786067 C103.409142,66.0786067 102.313598,66.0653076 101.221477,66.0852562 C100.885966,66.0919058 100.810648,65.9821882 100.817495,65.6796335 M101.228324,67.6146532 C102.621719,67.6312771 104.018538,67.6213027 105.415357,67.6213027 L107.507162,67.6213027 C108.219266,67.6213027 108.931369,67.617978 109.643473,67.6246275 C109.852311,67.6246275 110.009796,67.6279523 109.999525,67.3420216 C109.961866,66.148427 110.037184,64.9515076 109.92763,63.757913 C109.739333,61.72315 108.565047,60.3034707 106.620456,59.8213781 C105.631042,59.5753447 104.621088,59.5686952 103.607709,59.6418402 C100.988674,59.8313525 99.2529208,61.4471936 99.0988599,63.9075279 C98.9653405,66.0420341 98.968764,68.1798651 99.0988599,70.3143713 C99.2323794,72.56192 100.488832,73.9948984 102.744968,74.4138202 C105.021646,74.8393915 107.260664,74.4902901 109.462024,73.8652322 C109.646897,73.8120357 109.691403,73.718942 109.636626,73.5394041 C109.557884,73.273422 109.475718,73.0007904 109.455176,72.724834 C109.427788,72.4023307 109.297692,72.3857068 109.006688,72.4555271 C107.356525,72.8644746 105.68582,73.1171576 103.977455,73.0307134 C101.974664,72.9276453 101.016062,72.0166567 100.865425,70.0882866 C100.810648,69.4000579 100.848307,68.7085045 100.817495,68.0202759 C100.803801,67.7077469 100.896237,67.6113284 101.228324,67.6146532" id="Fill-17" fill="#767676"></path>
                                <path d="M78.2769169,69.5646115 C78.2508275,71.6367659 77.3344382,72.6894469 75.3255562,72.9717116 C74.5559197,73.0812966 73.7895442,73.0381268 73.0362135,72.8588057 C71.6469542,72.5300504 70.7990495,71.4906525 70.7566542,69.9199329 C70.7077367,68.0370618 70.7012143,66.15087 70.7566542,64.267999 C70.808833,62.4847507 71.8687139,61.4287489 73.6134409,61.2261826 C74.3602493,61.1431636 75.094013,61.1464843 75.8277767,61.3058808 C77.3018265,61.6180323 78.1627759,62.6242226 78.2508275,64.1550931 C78.2801781,64.6432449 78.2736558,65.1347174 78.2801781,65.6261899 C78.2834393,66.1143416 78.2801781,66.6058142 78.2801781,67.0972867 C78.2801781,67.9208352 78.2867004,68.7413951 78.2769169,69.5646115 M79.9694652,67.1006074 C79.9694652,66.1309454 80.0020769,65.1612835 79.9629429,64.1949422 C79.87163,61.9833159 78.5736836,60.3564755 76.4930558,59.8414255 C75.2766387,59.5395684 74.0406545,59.5262854 72.8144538,59.7783311 C70.6262074,60.2332753 69.3902232,61.6017605 69.0901953,63.8529039 C68.9662708,64.779396 69.0217107,65.7092089 69.0282331,66.635701 C69.0347554,67.9208352 68.9206144,69.212611 69.1097624,70.4911036 C69.3967455,72.4304276 70.4403206,73.7388072 72.3154945,74.2900534 C73.5906127,74.6652993 74.8885592,74.6918654 76.1832445,74.419563 C78.3780133,73.9546566 79.5552964,72.6927677 79.9107641,70.4379715 C80.0868674,69.3321583 79.9433758,68.2130621 79.9694652,67.1006074" id="Fill-19" fill="#767676"></path>
                                <path d="M40.7628964,61.1917716 C41.8683373,60.7161053 42.978286,60.3045166 44.130885,60.0129464 C45.3146916,59.7132393 46.511328,59.4647265 47.7377849,59.6857774 C49.0942733,59.9302218 49.8543506,60.8256136 49.9684315,62.2454929 C49.9913171,62.5282482 49.9899301,62.8137158 49.9902768,63.0978273 C49.9913171,66.7824614 49.9850756,70.4674346 50,74.1520687 C50.0013729,74.5165315 49.9011619,74.6290912 49.5370738,74.5945096 C49.2076607,74.5633184 48.8713126,74.56976 48.5401658,74.5931535 C48.2440408,74.6138346 48.1677556,74.5080556 48.1694894,74.2266565 C48.1805854,72.1948187 48.1753841,70.162642 48.1753841,68.1304652 C48.1753841,66.3559552 48.1764244,64.5814452 48.1750374,62.8065961 C48.1743439,61.7013415 47.7176733,61.2429659 46.5824118,61.2619519 C45.4055403,61.2816159 44.2924708,61.6226853 43.1852961,61.9752819 C42.5136402,62.1892131 41.8655633,62.4617973 41.2188734,62.7391281 C40.9362717,62.8608417 40.8156025,63.0093391 40.8173362,63.3415936 C40.8339803,66.9448593 40.821844,70.548464 40.8367543,74.1517297 C40.8381413,74.5124631 40.7469459,74.6314644 40.37835,74.5948487 C40.0489369,74.5623013 39.7125888,74.5714552 39.381442,74.5931535 C39.0971065,74.6114614 38.9944683,74.5297539 39.00175,74.2358104 C39.0218616,73.450605 39.0086851,72.6643824 39.0086851,71.878838 C39.0086851,68.031467 39.0138863,64.1840959 39,60.337064 C38.9986293,59.9797209 39.0853169,59.8522437 39.4570336,59.8908937 C39.826323,59.9295437 40.2871545,59.7925735 40.5482578,59.9641253 C40.8052,60.1326258 40.6304376,60.6235487 40.7178188,60.9632619 C40.7344628,61.0276786 40.7438251,61.0934514 40.7628964,61.1917716" id="Fill-21" fill="#767676"></path>
                                <path d="M84.0076587,67.1961224 C84.0076587,64.8915635 84.0142438,62.5866653 84,60.2821063 C83.9979543,59.9584095 84.0911857,59.8406707 84.417322,59.8820659 C84.5805635,59.9031028 84.7490038,59.8857982 84.9153645,59.8857982 C85.6102672,59.8857982 85.6102672,59.8857982 85.670573,60.5674618 C85.7253334,61.1863539 85.7222141,61.1788892 86.2951189,60.9512156 C87.9926917,60.2773561 89.7155651,59.6910372 91.5691011,59.6079075 C93.6718316,59.51392 94.9330539,60.3995058 94.9673658,62.5608781 C95.029058,66.4642417 94.9829622,70.3693018 94.9902404,74.2736834 C94.990587,74.524769 94.9112191,74.6062022 94.6578655,74.5929693 C94.2988036,74.5739682 93.9362758,74.5688786 93.5779071,74.5943265 C93.2580092,74.6173992 93.1550735,74.528162 93.1578462,74.1966612 C93.1751754,72.2578729 93.1665108,70.319424 93.1665108,68.3806358 C93.1665108,66.4961364 93.1675506,64.6116369 93.1661642,62.7274768 C93.165471,61.7455284 92.7097119,61.2701622 91.7039226,61.253197 C90.5671242,61.2345352 89.4927111,61.5599286 88.4210706,61.8860006 C87.6540783,62.1194424 86.9172388,62.4265133 86.1814391,62.7403704 C85.8948134,62.8628594 85.8144057,63.0294582 85.8154455,63.3270286 C85.825843,66.9331611 85.8164852,70.5392936 85.8306952,74.1454261 C85.831735,74.5016963 85.7478614,74.6333466 85.3738963,74.5946658 C85.0585041,74.5620925 84.735487,74.5675214 84.419055,74.5936479 C84.0936118,74.6207923 83.9979543,74.5173043 84,74.1915716 C84.0145904,71.8598683 84.0076587,69.5278257 84.0076587,67.1961224" id="Fill-23" fill="#767676"></path>
                                <path d="M121.249795,70.5164973 C121.247801,68.8450967 121.028819,68.5523524 119.42284,68.0688757 C118.471148,67.7824448 117.484234,67.6256056 116.544505,67.2963098 C116.244443,67.1913073 115.946707,67.0766685 115.658276,66.9440862 C114.787332,66.5433488 114.249347,65.881102 114.119752,64.9174715 C114.004114,64.0598403 113.963242,63.1972248 114.102141,62.3405905 C114.32079,60.9901785 115.184424,60.1099519 116.625917,59.8205304 C118.624004,59.4194607 120.609131,59.6125191 122.581631,60.0441592 C122.786989,60.0890178 122.827861,60.1810612 122.790312,60.3791039 C122.719533,60.7549198 122.803603,61.2536817 122.589273,61.4819624 C122.374944,61.7105755 121.900095,61.4347777 121.537894,61.3955679 C120.206058,61.2506911 118.87688,61.0592941 117.533081,61.2324153 C117.310776,61.260992 117.088139,61.3065152 116.872147,61.3669913 C116.259396,61.5391157 115.913145,61.9458342 115.823426,62.5785075 C115.729719,63.2407543 115.743011,63.901672 115.834392,64.5612605 C115.91381,65.1351191 116.279334,65.4717252 116.792064,65.6817302 C117.605189,66.0146812 118.467161,66.1788307 119.307866,66.4167477 C120.009339,66.6151227 120.706825,66.823134 121.370417,67.1314958 C122.296854,67.5618066 122.857103,68.2466489 122.942503,69.2970062 C123.01162,70.145998 123.036542,70.9926637 122.912928,71.8363389 C122.72053,73.1445504 121.97187,73.9872287 120.694863,74.3005748 C118.509362,74.8365528 116.353436,74.6159146 114.225422,73.9540001 C114.012089,73.8878751 113.967561,73.7695811 114.020064,73.5665542 C114.109783,73.2209763 114.075225,72.7537816 114.292213,72.5540775 C114.536449,72.3291196 114.948827,72.6434625 115.290093,72.7085907 C116.756841,72.9883758 118.229238,73.1744562 119.716256,72.9079625 C120.802858,72.7132427 121.20859,72.2161422 121.248798,71.113616 C121.256108,70.9149087 121.249795,70.7155369 121.249795,70.5164973" id="Fill-25" fill="#767676"></path>
                                <path d="M32.0079286,67.1020804 C32.0079286,64.7427233 32.0135718,62.3830206 32.0007805,60.0236635 C31.9992756,59.7102115 32.0726376,59.5768129 32.4443385,59.6048059 C32.8623138,59.6359092 33.2855561,59.6200119 33.7057888,59.608953 C33.9232413,59.6030779 34.010147,59.6794538 33.9920887,59.8736765 C33.9860692,59.9421037 33.9917125,60.0115677 33.9917125,60.0806862 C33.9913363,64.7582749 33.9868217,69.4358637 34,74.1134525 C34.0011179,74.483236 33.9142121,74.6380613 33.4849503,74.5938255 C33.1437229,74.5585751 32.7927139,74.5644502 32.4496055,74.5924431 C32.0903197,74.6221641 31.998147,74.5050083 32.000028,74.1804974 C32.0150767,71.8211403 32.0079286,69.4614375 32.0079286,67.1020804" id="Fill-27" fill="#767676"></path>
                                <path d="M127.008687,67.0802712 C127.008311,64.7346625 127.015828,62.3890538 127.000042,60.0434451 C126.997787,59.7048039 127.084986,59.5745307 127.469865,59.6056304 C127.856998,59.6367301 128.250897,59.629128 128.63991,59.6070126 C128.925562,59.5904261 129.000734,59.6902907 128.99472,59.9366695 C128.980061,60.5158151 128.989834,61.0953062 128.989834,61.6747973 C128.989834,65.8141678 128.984196,69.9535382 129,74.0929086 C129.001485,74.4840738 128.910152,74.6413001 128.462129,74.5925772 C128.121602,74.5559487 127.770551,74.5642419 127.427768,74.5918861 C127.085362,74.6191847 126.997787,74.508608 127.000418,74.2000298 C127.015828,72.2960369 127.008687,70.3916985 127.009063,68.4877055 C127.009063,68.0184456 127.009063,67.5495312 127.008687,67.0802712" id="Fill-29" fill="#767676"></path>
                                <path d="M18.8337219,23.229548 C17.902167,23.2230205 17.1184234,22.4919465 17.1115485,21.6237961 C17.1046735,20.7262722 17.9331043,19.9299237 18.8612217,19.9429786 C19.7927766,19.9592972 20.5833951,20.7295359 20.5730827,21.6107412 C20.5593328,22.5278475 19.7962141,23.2360754 18.8337219,23.229548 M21.150578,19.5513318 C19.5315287,17.9292613 16.7265516,18.4612482 15.9084333,20.5598223 C15.7949967,20.8568211 15.636873,20.9579965 15.3103132,20.9318867 C14.9150039,20.9025132 14.5162572,20.9253593 14.1175104,20.9253593 C13.677514,20.9253593 13.2375176,20.9188318 12.7975212,20.928623 C12.3162752,20.9351505 12.0034652,21.2027758 12,21.5944226 C11.9965903,22.0056517 12.3128377,22.2700133 12.825021,22.2700133 C13.6362644,22.273277 14.4475077,22.2895957 15.2553137,22.2634859 C15.6265606,22.250431 15.7984342,22.3418152 15.9290581,22.6910336 C16.3553047,23.8268094 17.5206076,24.5709383 18.8234095,24.6003118 C20.0540245,24.6296853 21.2124525,23.9084024 21.7418232,22.7856816 C22.2402566,21.7184441 22.003071,20.4031636 21.150578,19.5513318" id="Fill-31" fill="#028CC6"></path>
                                <path d="M8.1680734,6.23736299 C7.21580162,6.23736299 6.43667016,5.49309106 6.43667016,4.58488257 C6.44013296,3.67339534 7.208876,2.94551706 8.17499901,2.94878476 C9.13419641,2.95207452 9.92717909,3.69634646 9.92372759,4.59471876 C9.92025348,5.48981232 9.12380799,6.23408426 8.1680734,6.23736299 M14.2072079,3.90946398 C13.3622831,3.89307032 12.5173583,3.89307032 11.6758964,3.91274271 C11.3850206,3.91930017 11.253434,3.83733189 11.1495498,3.56847595 C10.6578313,2.24058989 9.37659286,1.50615415 7.79755311,1.61107354 C6.50592629,1.69632055 5.36320014,2.68977604 5.06886159,3.98487479 C4.7502834,5.3816142 5.56404292,6.8406495 6.95262832,7.36852519 C8.41046985,7.92263073 10.2042036,7.47344459 10.8275088,6.16523091 C11.2465084,5.28325227 11.807483,5.17833288 12.6247053,5.26685862 C12.7043499,5.27669481 12.7909201,5.26685862 12.8705646,5.26685862 L14.241836,5.26685862 C14.5223233,5.26357988 14.7543313,5.17177542 14.8963064,4.92914932 C15.1837193,4.43733967 14.8478271,3.9225789 14.2072079,3.90946398" id="Fill-33" fill="#028CC6"></path>
                                <path d="M23.7452656,14.4418883 C22.752767,14.4384786 21.9835806,13.6883533 21.987113,12.7268289 C21.9906699,11.7857626 22.8094812,10.9947213 23.7629887,11.0117696 C24.7200409,11.0254082 25.5636647,11.8403171 25.5530308,12.7438772 C25.5459415,13.671305 24.7235856,14.4418883 23.7452656,14.4418883 M26.8645468,11.8198592 C26.4250117,10.5139591 25.3226293,9.70245986 23.8764171,9.60698936 C22.6925081,9.52856716 21.4093493,10.2514152 20.8599304,11.3050004 C20.2502527,12.4711044 20.4168507,13.8145107 21.324278,14.7999027 C21.5121438,15.007892 21.5085991,15.1442784 21.3739029,15.3624967 C20.952091,16.0546578 20.5444577,16.7536383 20.140369,17.4526187 C19.9028782,17.861778 19.973771,18.2504793 20.2998777,18.4721073 C20.6791539,18.7312415 21.1647693,18.5914454 21.4377064,18.1311412 C21.8595183,17.4253414 22.2742409,16.716132 22.6783296,16.0001032 C22.7882134,15.8057526 22.8980971,15.751198 23.1391325,15.7989333 C25.1524867,16.1739959 27.0027876,14.7010225 26.999243,12.8598057 C27.0063323,12.4267788 26.9637966,12.1164997 26.8645468,11.8198592" id="Fill-35" fill="#028CC6"></path>
                                <g id="Group-39" transform="translate(0.000000, 7.601176)">
                                    <mask id="mask-2" fill="white">
                                        <use xlink:href="#path-1"></use>
                                    </mask>
                                    <g id="Clip-38"></g>
                                    <path d="M3.2109,7.54094359 C2.2449,7.53426667 1.4574,6.7776 1.4574,5.8576 C1.4609,4.9076 2.2099,4.19093333 3.2004,4.18758878 C4.1699,4.18426667 4.9574,4.92426667 4.9679,5.8476 C4.9819,6.73426667 4.1384,7.54426667 3.2109,7.54094359 M6.7529,1.26426667 C7.0154,0.820933333 6.9244,0.400933333 6.5324,0.1976 C6.1544,-0.0024 5.7554,0.144266667 5.4929,0.580933333 C5.1394,1.1676 4.7509,1.7376 4.4499,2.3476 C4.2399,2.7776 3.9949,2.8876 3.5014,2.83093333 C1.6814,2.62426667 0.1099,3.9376 0.0049,5.70093333 C-0.0966,7.4376 1.3594,8.90426667 3.1899,8.9076 C3.6414,8.9076 4.1174,8.8176 4.4919,8.6576 C6.4659,7.81426667 7.0469,5.4676 5.6434,3.88426667 C5.4159,3.6276 5.4334,3.4576 5.5979,3.20093333 C5.9969,2.56426667 6.3749,1.91426667 6.7529,1.26426667" id="Fill-37" fill="#028CC6" mask="url(#mask-2)"></path>
                                </g>
                                <path d="M7.75627502,24.1747846 C6.76149089,24.1576345 6.01190004,23.3790211 6.03291661,22.3843169 C6.05393317,21.492513 6.90860686,20.7001796 7.82282748,20.7207597 C8.76857295,20.7447698 9.5812135,21.5782634 9.55669417,22.4940773 C9.53217484,23.4373314 8.72653981,24.1919346 7.75627502,24.1747846 M10.9087599,21.725754 C10.8807378,21.6057035 10.8527157,21.485653 10.8071798,21.3724625 C10.204705,19.8906961 8.79659503,19.1155128 7.18182221,19.383054 C6.92962342,19.4242141 6.78601022,19.386484 6.64940254,19.1463829 C6.24658503,18.4260798 5.81224266,17.7263568 5.38140306,17.0232038 C5.12570151,16.608172 4.71938123,16.4915515 4.35159133,16.7076424 C3.98730418,16.9271634 3.89272964,17.3456252 4.13091738,17.7469369 C4.5337349,18.4329399 4.93655241,19.1223728 5.36388926,19.7946557 C5.5215135,20.0484768 5.54253007,20.2131175 5.32185612,20.4669386 C4.40413274,21.5096631 4.33057476,23.0634598 5.11169046,24.2056547 C5.90331445,25.3649997 7.36396579,25.8657818 8.76156742,25.4644701 C10.0716,25.0837385 10.9963289,23.8420731 10.9928262,22.418617 C11.0208483,22.2093861 10.9613013,21.9658551 10.9087599,21.725754" id="Fill-40" fill="#028CC6"></path>
                                <path d="M18.2312892,5.46485962 C17.2932657,5.46828257 16.4707451,4.69555329 16.4567447,3.79231862 C16.4392443,2.81696255 17.2232639,2.0270615 18.2102887,2.01675845 C19.179813,2.00988974 19.9708328,2.77918467 19.9778447,3.72706592 C19.9813331,4.67838153 19.1973134,5.45797951 18.2312892,5.46485962 M21.8608802,8.45616912 C21.4653703,7.7658643 21.0593601,7.07899383 20.6428497,6.40242641 C20.4888458,6.15515304 20.4748455,5.99030413 20.6848508,5.73959641 C21.5248718,4.72302811 21.6823758,3.57938877 21.1153615,2.39797156 C20.5483473,1.21312 19.540322,0.636148799 18.2137888,0.605239627 C17.7202764,0.577764808 17.265265,0.691098436 16.8312541,0.90059393 C15.3892179,1.59776746 14.6681998,3.21878177 15.1477119,4.65777541 C15.6692249,6.22727444 17.2057635,7.13394346 18.8508047,6.82485175 C19.0923108,6.78020517 19.2253141,6.81454869 19.3513173,7.0377816 C19.7573275,7.75212689 20.1878383,8.45616912 20.614849,9.16021136 C20.8703554,9.5895054 21.2693654,9.71314209 21.6683754,9.49677789 C22.0183842,9.30445415 22.1058864,8.87859446 21.8608802,8.45616912" id="Fill-42" fill="#028CC6"></path>
                                <path d="M13.505488,10.6011765 C14.9032959,10.6018761 15.9996502,11.6942152 16,13.0870088 C16.0003496,14.466511 14.8721714,15.6036209 13.5061874,15.6011765 C12.1363566,15.5983743 11.0144732,14.4752553 11.0001349,13.0926051 C10.9857966,11.7249952 12.1164229,10.6008268 13.505488,10.6011765" id="Fill-44" fill="#028CC6"></path>
                                <path d="M47.5085267,25.6011765 C46.1337444,25.6037364 44.9913095,24.4706874 45,23.11308 C45.0087902,21.730196 46.1293742,20.6008102 47.4921385,20.6011765 C48.8687417,20.6015429 49.9867765,21.7140776 49.999887,23.0969616 C50.0129975,24.4633608 48.8836731,25.5986078 47.5085267,25.6011765" id="Fill-46" fill="#028CC6"></path>
                                <path d="M129.999969,56.1104195 C129.994832,56.944595 129.321502,57.6113049 128.494459,57.60106 C127.680062,57.591209 126.996457,56.8945523 127,56.0781085 C127.003175,55.265211 127.699424,54.5925905 128.528047,54.6012593 C129.378798,54.6099281 130.005106,55.2526018 129.999969,56.1104195" id="Fill-48" fill="#767676"></path>
                                <path d="M32,56.0887203 C32.0011883,55.2444923 32.6511059,54.6003893 33.4995985,54.6011765 C34.3421575,54.602359 34.9964264,55.2535531 35,56.0954173 C35.0035466,56.9093114 34.3022052,57.6105367 33.4940605,57.601082 C32.6673242,57.5912333 31.9988149,56.9144327 32,56.0887203" id="Fill-50" fill="#767676"></path>
                            </g>
                        </g>
                    </g>
                </g>
            </g>
        </g>
    </g>
</svg>