<?xml version="1.0" encoding="UTF-8"?>
<svg width="235px" height="92px" viewBox="0 0 235 92" version="1.1" xmlns="http://www.w3.org/2000/svg" xmlns:xlink="http://www.w3.org/1999/xlink">
    <!-- Generator: Sketch 64 (93537) - https://sketch.com -->
    <title>Play Store</title>
    <desc>Created with Sketch.</desc>
    <defs>
        <rect id="path-1" x="0" y="0" width="202.888889" height="60" rx="10"></rect>
        <filter x="-12.6%" y="-37.5%" width="125.1%" height="186.7%" filterUnits="objectBoundingBox" id="filter-3">
            <feMorphology radius="1.5" operator="erode" in="SourceAlpha" result="shadowSpreadOuter1"></feMorphology>
            <feOffset dx="0" dy="5" in="shadowSpreadOuter1" result="shadowOffsetOuter1"></feOffset>
            <feGaussianBlur stdDeviation="2.5" in="shadowOffsetOuter1" result="shadowBlurOuter1"></feGaussianBlur>
            <feColorMatrix values="0 0 0 0 0   0 0 0 0 0   0 0 0 0 0  0 0 0 0.2 0" type="matrix" in="shadowBlurOuter1" result="shadowMatrixOuter1"></feColorMatrix>
            <feMorphology radius="1" operator="dilate" in="SourceAlpha" result="shadowSpreadOuter2"></feMorphology>
            <feOffset dx="0" dy="3" in="shadowSpreadOuter2" result="shadowOffsetOuter2"></feOffset>
            <feGaussianBlur stdDeviation="7" in="shadowOffsetOuter2" result="shadowBlurOuter2"></feGaussianBlur>
            <feColorMatrix values="0 0 0 0 0   0 0 0 0 0   0 0 0 0 0  0 0 0 0.12 0" type="matrix" in="shadowBlurOuter2" result="shadowMatrixOuter2"></feColorMatrix>
            <feMorphology radius="0.5" operator="dilate" in="SourceAlpha" result="shadowSpreadOuter3"></feMorphology>
            <feOffset dx="0" dy="8" in="shadowSpreadOuter3" result="shadowOffsetOuter3"></feOffset>
            <feGaussianBlur stdDeviation="5" in="shadowOffsetOuter3" result="shadowBlurOuter3"></feGaussianBlur>
            <feColorMatrix values="0 0 0 0 0   0 0 0 0 0   0 0 0 0 0  0 0 0 0.14 0" type="matrix" in="shadowBlurOuter3" result="shadowMatrixOuter3"></feColorMatrix>
            <feMerge>
                <feMergeNode in="shadowMatrixOuter1"></feMergeNode>
                <feMergeNode in="shadowMatrixOuter2"></feMergeNode>
                <feMergeNode in="shadowMatrixOuter3"></feMergeNode>
            </feMerge>
        </filter>
    </defs>
    <g id="Page-1" stroke="none" stroke-width="1" fill="none" fill-rule="evenodd">
        <g id="LandX-Website-v3_homepage" transform="translate(-736.000000, -1223.000000)">
            <g id="Play-Store" transform="translate(752.000000, 1236.000000)">
                <g id="playStoreShadow">
                    <mask id="mask-2" fill="white">
                        <use xlink:href="#path-1"></use>
                    </mask>
                    <g id="Elevation/08">
                        <use fill="black" fill-opacity="1" filter="url(#filter-3)" xlink:href="#path-1"></use>
                        <use fill="#FAFAFA" fill-rule="evenodd" xlink:href="#path-1"></use>
                    </g>
                </g>
                <g>
                    <path d="M194.993111,60 L7.49973502,60 C3.37488076,60 0,56.625 0,52.5 L0,7.5 C0,3.375 3.37488076,0 7.49973502,0 L194.993111,0 C199.117965,0 202.492846,3.375 202.492846,7.5 L202.492846,52.5 C202.492846,56.625 199.117965,60 194.993111,60 Z" id="Path" fill="#2DBE60" fill-rule="nonzero"></path>
                    <path d="M102.206389,32.5625 C98.6815134,32.5625 95.8016151,35.2475 95.8016151,38.9375 C95.8016151,42.6125 98.6815134,45.3125 102.206389,45.3125 C105.731264,45.3125 108.611163,42.6125 108.611163,38.9375 C108.611163,35.2475 105.731264,32.5625 102.206389,32.5625 Z M102.206389,42.8075 C100.271457,42.8075 98.606516,41.2175 98.606516,38.9375 C98.606516,36.6425 100.271457,35.0675 102.206389,35.0675 C104.14132,35.0675 105.806262,36.6425 105.806262,38.9375 C105.806262,41.2175 104.126321,42.8075 102.206389,42.8075 Z M88.2268828,32.5625 C84.7020073,32.5625 81.8221091,35.2475 81.8221091,38.9375 C81.8221091,42.6125 84.7020073,45.3125 88.2268828,45.3125 C91.7517582,45.3125 94.6316565,42.6125 94.6316565,38.9375 C94.6316565,35.2475 91.7517582,32.5625 88.2268828,32.5625 Z M88.2268828,42.8075 C86.2919511,42.8075 84.62701,41.2175 84.62701,38.9375 C84.62701,36.6425 86.2919511,35.0675 88.2268828,35.0675 C90.1618144,35.0675 91.8267556,36.6425 91.8267556,38.9375 C91.8267556,41.2175 90.1618144,42.8075 88.2268828,42.8075 Z M71.60747,34.5275 L71.60747,37.2275 L78.087241,37.2275 C77.8922479,38.7425 77.3822659,39.8675 76.617293,40.6325 C75.6723263,41.5775 74.2023783,42.6125 71.6224694,42.6125 C67.6326104,42.6125 64.5127206,39.4025 64.5127206,35.4125 C64.5127206,31.4225 67.6326104,28.2125 71.6224694,28.2125 C73.7673937,28.2125 75.342338,29.0525 76.4972972,30.1475 L78.4022299,28.2425 C76.7822871,26.6975 74.6373629,25.5125 71.60747,25.5125 C66.1476629,25.5125 61.557825,29.9525 61.557825,35.4275 C61.557825,40.8875 66.1476629,45.3425 71.60747,45.3425 C74.5623656,45.3425 76.7822871,44.3825 78.5222257,42.5675 C80.3071626,40.7825 80.862143,38.2625 80.862143,36.2375 C80.862143,35.6075 80.8171446,35.0225 80.7121483,34.5425 L71.60747,34.5425 L71.60747,34.5275 Z M139.570069,36.6275 C139.045087,35.2025 137.425145,32.5625 134.110262,32.5625 C130.825378,32.5625 128.095474,35.1425 128.095474,38.9375 C128.095474,42.5075 130.795379,45.3125 134.42525,45.3125 C137.350147,45.3125 139.045087,43.5275 139.735063,42.4925 L137.56014,41.0375 C136.840165,42.1025 135.8502,42.8075 134.42525,42.8075 C133.000301,42.8075 131.980337,42.1475 131.33536,40.8725 L139.870058,37.3475 L139.570069,36.6275 Z M130.870376,38.7575 C130.795379,36.2975 132.775309,35.0375 134.200258,35.0375 C135.310219,35.0375 136.255186,35.5925 136.570175,36.3875 L130.870376,38.7575 Z M123.940621,44.9375 L126.745522,44.9375 L126.745522,26.1875 L123.940621,26.1875 L123.940621,44.9375 Z M119.350783,33.9875 L119.245787,33.9875 C118.615809,33.2375 117.415851,32.5625 115.885906,32.5625 C112.691018,32.5625 109.766122,35.3675 109.766122,38.9675 C109.766122,42.5375 112.691018,45.3275 115.885906,45.3275 C117.400852,45.3275 118.615809,44.6525 119.245787,43.8725 L119.335784,43.8725 L119.335784,44.7875 C119.335784,47.2325 118.03083,48.5375 115.930904,48.5375 C114.220964,48.5375 113.156002,47.3075 112.721017,46.2725 L110.276104,47.2925 C110.981079,48.9875 112.841013,51.0575 115.930904,51.0575 C119.215788,51.0575 121.99069,49.1225 121.99069,44.4125 L121.99069,32.9525 L119.335784,32.9525 L119.335784,33.9875 L119.350783,33.9875 Z M116.125897,42.8075 C114.190965,42.8075 112.571023,41.1875 112.571023,38.9675 C112.571023,36.7175 114.190965,35.0825 116.125897,35.0825 C118.03083,35.0825 119.530777,36.7325 119.530777,38.9675 C119.545776,41.1875 118.045829,42.8075 116.125897,42.8075 Z M152.709604,26.1875 L146.004841,26.1875 L146.004841,44.9375 L148.809742,44.9375 L148.809742,37.8275 L152.724604,37.8275 C155.829494,37.8275 158.874387,35.5775 158.874387,32.0075 C158.874387,28.4375 155.799495,26.1875 152.709604,26.1875 Z M152.769602,35.2175 L148.794743,35.2175 L148.794743,28.7825 L152.769602,28.7825 C154.869528,28.7825 156.054486,30.5225 156.054486,31.9925 C156.054486,33.4625 154.869528,35.2175 152.769602,35.2175 Z M170.078991,32.5325 C168.054062,32.5325 165.954137,33.4325 165.084167,35.3975 L167.574079,36.4325 C168.099061,35.3975 169.089026,35.0525 170.123989,35.0525 C171.563938,35.0525 173.048886,35.9225 173.063885,37.4675 L173.063885,37.6625 C172.553903,37.3775 171.473941,36.9425 170.138989,36.9425 C167.454084,36.9425 164.739179,38.4125 164.739179,41.1575 C164.739179,43.6625 166.929102,45.2825 169.389015,45.2825 C171.263949,45.2825 172.313912,44.4425 172.958889,43.4525 L173.048886,43.4525 L173.048886,44.9075 L175.748858,44.9075 L175.748858,37.7225 C175.76379,34.3925 173.273878,32.5325 170.078991,32.5325 Z M169.734003,42.8075 C168.819035,42.8075 167.54408,42.3425 167.54408,41.2175 C167.54408,39.7775 169.134024,39.2225 170.513975,39.2225 C171.743932,39.2225 172.328911,39.4925 173.063885,39.8525 C172.853893,41.5775 171.353946,42.8075 169.734003,42.8075 Z M185.603442,32.9375 L182.393556,41.0675 L182.303559,41.0675 L178.973677,32.9375 L175.958783,32.9375 L180.953607,44.3075 L178.103707,50.6225 L181.028604,50.6225 L188.723332,32.9375 L185.603442,32.9375 Z M160.404333,44.9375 L163.209234,44.9375 L163.209234,26.1875 L160.404333,26.1875 L160.404333,44.9375 Z" id="Shape" fill="#FFFFFF" fill-rule="nonzero"></path>
                    <path d="M88.5852835,10.3125 L88.5852835,15.9107143 C88.5852835,16.603125 88.7662646,17.1776786 89.1433086,17.6049107 C89.5203525,18.0321429 90.0632958,18.253125 90.7721385,18.253125 C91.4809811,18.253125 92.0239244,18.0321429 92.4009683,17.6049107 C92.7780123,17.1776786 92.9589934,16.603125 92.9589934,15.9107143 L92.9589934,10.3125 L94.1202888,10.3125 L94.1202888,15.8665179 C94.1202888,16.9125 93.8186536,17.7522321 93.2153833,18.3857143 C92.6271947,19.0339286 91.8127798,19.3433036 90.7872202,19.3433036 C89.7918242,19.3433036 88.992491,19.0191964 88.3590572,18.3857143 C87.7407051,17.7375 87.4239882,16.8977679 87.4239882,15.8665179 L87.4239882,10.3125 L88.5852835,10.3125 Z M68.3154006,10.3125 L68.3154006,11.4026786 L65.7816653,11.4026786 L65.7816653,19.1517857 L64.6354517,19.1517857 L64.6354517,11.4026786 L62.1017163,11.4026786 L62.1017163,10.3125 L68.3154006,10.3125 Z M75.0720283,10.3125 L75.0720283,11.4026786 L70.9547083,11.4026786 L70.9547083,14.2017857 L74.6648208,14.2017857 L74.6648208,15.2625 L70.9547083,15.2625 L70.9547083,18.0616071 L75.0720283,18.0616071 L75.0720283,19.1517857 L69.7934129,19.1517857 L69.7934129,10.3125 L75.0720283,10.3125 Z M78.0582164,10.3125 L81.2103038,15.6897321 L81.2555491,15.6897321 L84.3925548,10.3125 L85.5538502,10.3125 L85.5538502,19.1517857 L84.3925548,19.1517857 L84.3925548,13.9071429 L84.4378001,12.4191964 L84.3925548,12.4191964 L81.5571843,17.2660714 L80.8785051,17.2660714 L78.0431346,12.4191964 L77.9978893,12.4191964 L78.0431346,13.9071429 L78.0431346,19.1517857 L76.896921,19.1517857 L76.896921,10.3125 L78.0582164,10.3125 Z M97.1668039,10.3125 L97.1668039,14.8647321 L97.2120492,14.8647321 L101.193633,10.3125 L102.701809,10.3125 L102.701809,10.3566964 L99.3385771,14.1428571 L102.928036,19.0928571 L102.928036,19.1517857 L101.495268,19.1517857 L98.5543257,15.0267857 L97.1668039,16.5883929 L97.1668039,19.1517857 L96.0055085,19.1517857 L96.0055085,10.3125 L97.1668039,10.3125 Z M108.070915,10.3125 L111.479392,19.1517857 L110.197443,19.1517857 L109.322701,16.7504464 L105.522098,16.7504464 L104.647356,19.1517857 L103.350325,19.1517857 L106.758802,10.3125 L108.070915,10.3125 Z M114.224272,10.3125 L118.628146,17.1924107 L118.673391,17.1924107 L118.628146,15.4834821 L118.628146,10.3125 L119.789441,10.3125 L119.789441,19.1517857 L118.5829,19.1517857 L113.982964,11.9477679 L113.922637,11.9477679 L113.967882,13.6566964 L113.967882,19.1517857 L112.806587,19.1517857 L112.806587,10.3125 L114.224272,10.3125 Z M127.647037,10.3125 C129.034559,10.3125 130.150609,10.725 130.980106,11.5352679 C131.809602,12.3602679 132.231892,13.4209821 132.231892,14.7321429 C132.231892,16.0433036 131.809602,17.1040179 130.980106,17.9290179 C130.165691,18.7392857 129.049641,19.1517857 127.662119,19.1517857 L124.887075,19.1517857 L124.887075,10.3125 L127.647037,10.3125 Z M135.037099,10.3125 L135.037099,19.1517857 L133.875803,19.1517857 L133.875803,10.3125 L135.037099,10.3125 Z M127.647037,11.3879464 L126.048371,11.3879464 L126.048371,18.0616071 L127.647037,18.0616071 C128.687678,18.0616071 129.517175,17.7669643 130.135527,17.1776786 C130.753879,16.5883929 131.055514,15.778125 131.055514,14.7174107 C131.055514,13.6714286 130.753879,12.8611607 130.135527,12.271875 C129.517175,11.6825893 128.70276,11.3879464 127.647037,11.3879464 Z M107.437481,11.6973214 L107.392236,11.6973214 L105.914224,15.6897321 L108.915493,15.6897321 L107.437481,11.6973214 Z" id="Combined-Shape" fill="#FFFFFF"></path>
                    <path d="M15.2816055,9.375 L32.9608848,29.4998754 L15.2265277,49.6875 C14.5415853,49.3695236 14.0317623,48.6856275 14.0317623,47.8240595 L14.0317623,47.8240595 L14.0317623,11.2652323 C14.0317623,10.3811028 14.5684181,9.68169566 15.2816055,9.375 L15.2816055,9.375 Z M34.4146484,30.7169118 L39.4677706,36.4864365 L19.355578,47.9090074 L34.4146484,30.7169118 Z M41.5141141,23.0101103 L49.6533608,27.4930746 C51.0581292,28.2668825 51.0581292,30.2318563 49.6533608,31.0049721 L49.6533608,31.0049721 L41.567568,35.4595588 L35.9185601,29.2054188 L41.5141141,23.0101103 Z M19.355578,10.5606618 L39.4677706,21.9835363 L34.413685,27.7527574 L19.355578,10.5606618 Z" id="Combined-Shape" fill="#FFFFFF" fill-rule="nonzero"></path>
                </g>
            </g>
        </g>
    </g>
</svg>