<?xml version="1.0" encoding="UTF-8"?>
<svg width="460px" height="197px" viewBox="0 0 460 197" version="1.1" xmlns="http://www.w3.org/2000/svg" xmlns:xlink="http://www.w3.org/1999/xlink">
    <title>Card_5 lot@2x</title>
    <defs>
        <linearGradient x1="5.98517236%" y1="41.6452611%" x2="93.6631397%" y2="58.1739282%" id="linearGradient-1">
            <stop stop-color="#7962FF" offset="0%"></stop>
            <stop stop-color="#3D27BE" offset="100%"></stop>
        </linearGradient>
    </defs>
    <g id="LandX-Festival-End-Year-CUAN" stroke="none" stroke-width="1" fill="none" fill-rule="evenodd">
        <g id="LandX-CUAN-Landingpage_Desktop-1" transform="translate(-1205.000000, -1851.000000)">
            <g id="Card_5-lot" transform="translate(1205.755895, 1851.000000)">
                <path d="M169.567054,3.55271368e-15 C169.567054,3.85815942 172.730294,6.9858156 176.632348,6.9858156 C180.534402,6.9858156 183.697642,3.85815942 183.697642,3.55271368e-15 L442.4464,6.82121026e-13 C451.723517,6.80416848e-13 459.244105,7.52058874 459.244105,16.7977051 L459.244105,180.202295 C459.244105,189.479411 451.723517,197 442.4464,197 L183.697642,197.001001 C183.697642,197.000667 183.697642,197.000334 183.697642,197 C183.697642,193.141841 180.534402,190.014184 176.632348,190.014184 C172.730294,190.014184 169.567054,193.141841 169.567054,197 L169.567,197 L16.7977051,197 C7.52058874,197 4.68883276e-15,189.479411 0,180.202295 L0,16.7977051 C-1.13611909e-15,7.52058874 7.52058874,6.80272491e-13 16.7977051,6.82121026e-13 L169.567054,3.55271368e-15 L169.567054,3.55271368e-15 Z" id="Combined-Shape" fill="url(#linearGradient-1)"></path>
                <g id="Beli-Copy-2" transform="translate(27.363506, 47.600713)" fill="#FFFFFF" fill-rule="nonzero">
                    <path d="M0,16.2886682 L6.95926986,16.2886682 C10.6178574,16.2886682 12.566453,14.3798399 12.566453,11.7870148 C12.566453,9.37711905 10.8405541,7.92163747 8.98739994,7.8341495 L8.98739994,7.67508048 C10.6814851,7.29331482 11.9301769,6.09234367 11.9301769,4.17556192 C11.9301769,1.73385238 10.11679,0 6.52183004,0 L0,0 L0,16.2886682 Z M3.4438444,13.4731465 L3.4438444,9.14646896 L6.33094721,9.14646896 C7.98526508,9.14646896 9.01126029,10.1008831 9.01126029,11.4450164 C9.01126029,12.6698479 8.17614791,13.4731465 6.2514127,13.4731465 L3.4438444,13.4731465 Z M3.4438444,6.81610774 L3.4438444,2.78370795 L6.06052987,2.78370795 C7.58759251,2.78370795 8.4545187,3.57109962 8.4545187,4.74821041 C8.4545187,6.03666952 7.40466313,6.81610774 5.99690226,6.81610774 L3.4438444,6.81610774 Z" id="Shape"></path>
                    <polygon id="Path" points="14.8013869 16.2886682 25.8089635 16.2886682 25.8089635 13.4492861 18.2452313 13.4492861 18.2452313 9.56004843 25.2124546 9.56004843 25.2124546 6.72066632 18.2452313 6.72066632 18.2452313 2.8393821 25.7771497 2.8393821 25.7771497 0 14.8013869 0"></polygon>
                    <polygon id="Path" points="28.5211035 16.2886682 38.9480781 16.2886682 38.9480781 13.4492861 31.9649479 13.4492861 31.9649479 0 28.5211035 0"></polygon>
                    <polygon id="Path" points="44.6745751 0 41.2307307 0 41.2307307 16.2886682 44.6745751 16.2886682"></polygon>
                </g>
                <g id="Group-34" transform="translate(200.841763, 89.704076)" fill="#FFFFFF" fill-rule="nonzero">
                    <g id="Ribu" transform="translate(148.080041, 24.224943)">
                        <path d="M9.09494702e-13,33.6242415 L9.09494702e-13,2.06491676 L13.0367132,2.06491676 C15.3995533,2.06491676 17.4413553,2.48868699 19.1621193,3.33622744 C20.8828833,4.1837679 22.2106966,5.39600759 23.1455595,6.97294651 C24.0804223,8.54988542 24.5478537,10.4170427 24.5478537,12.5744185 C24.5478537,14.7626138 24.070149,16.6194979 23.1147398,18.1450707 C22.1593306,19.6706436 20.8032658,20.8315172 19.0465456,21.6276915 C17.2898254,22.4238659 15.2094988,22.8219531 12.8055659,22.8219531 L4.56130865,22.8219531 L4.56130865,16.8121208 L11.3878618,16.8121208 C12.5384622,16.8121208 13.5015763,16.6605908 14.2772043,16.3575309 C15.0528322,16.0544709 15.6409739,15.5921761 16.0416294,14.9706465 C16.4422849,14.3491168 16.6426127,13.5503741 16.6426127,12.5744185 C16.6426127,11.5984628 16.4422849,10.7894469 16.0416294,10.1473708 C15.6409739,9.50529467 15.0502639,9.02245344 14.2694994,8.69884708 C13.4887348,8.37524072 12.528189,8.21343754 11.3878618,8.21343754 L7.62786414,8.21343754 L7.62786414,33.6242415 L9.09494702e-13,33.6242415 Z M17.76753,19.2006439 L25.6265415,33.6242415 L17.3052352,33.6242415 L9.60032193,19.2006439 L17.76753,19.2006439 Z" id="Shape"></path>
                        <path d="M28.7239167,33.6242415 L28.7239167,9.95474794 L36.2593218,9.95474794 L36.2593218,33.6242415 L28.7239167,33.6242415 Z M32.514734,7.19638899 C31.4463193,7.19638899 30.532003,6.84453129 29.7717849,6.14081587 C29.0115668,5.43710046 28.6314577,4.5869917 28.6314577,3.59048958 C28.6314577,2.60426068 29.0115668,1.75928853 29.7717849,1.05557312 C30.532003,0.351857706 31.4411827,0 32.4993242,0 C33.5677388,0 34.4794869,0.351857706 35.2345684,1.05557312 C35.9896499,1.75928853 36.3671906,2.60426068 36.3671906,3.59048958 C36.3671906,4.5869917 35.9896499,5.43710046 35.2345684,6.14081587 C34.4794869,6.84453129 33.5728754,7.19638899 32.514734,7.19638899 Z" id="Shape"></path>
                        <path d="M41.0363681,33.6242415 L41.0363681,2.06491676 L48.5717732,2.06491676 L48.5717732,14.0075323 L48.7258715,14.0075323 C49.034068,13.2884071 49.4732481,12.5949649 50.0434117,11.9272057 C50.6135753,11.2594466 51.3429737,10.7123977 52.231607,10.2860592 C53.1202404,9.85972068 54.1860867,9.64655141 55.429146,9.64655141 C57.0728609,9.64655141 58.6112752,10.0780266 60.0443891,10.9409768 C61.477503,11.8039271 62.6358083,13.1343088 63.519305,14.9321219 C64.4028017,16.729935 64.8445501,19.0208626 64.8445501,21.8049045 C64.8445501,24.4862144 64.4207798,26.7309124 63.5732394,28.5389987 C62.7256989,30.3470851 61.5853717,31.7031498 60.1522579,32.6071929 C58.719144,33.5112361 57.1293636,33.9632577 55.3829166,33.9632577 C54.1912233,33.9632577 53.1587649,33.7680665 52.2855414,33.3776843 C51.4123179,32.987302 50.6803512,32.4736411 50.0896412,31.8367016 C49.4989311,31.1997621 49.0443413,30.5165931 48.7258715,29.7871947 L48.4947241,29.7871947 L48.4947241,33.6242415 L41.0363681,33.6242415 Z M48.417675,21.7894947 C48.417675,23.0633737 48.5897514,24.1728812 48.9339042,25.1180173 C49.278057,26.0631533 49.776308,26.79512 50.4286573,27.3139175 C51.0810067,27.832715 51.8643395,28.0921138 52.7786559,28.0921138 C53.7032455,28.0921138 54.4891466,27.832715 55.1363593,27.3139175 C55.7835721,26.79512 56.2741182,26.0631533 56.6079978,25.1180173 C56.9418774,24.1728812 57.1088171,23.0633737 57.1088171,21.7894947 C57.1088171,20.5156157 56.9418774,19.4112448 56.6079978,18.476382 C56.2741182,17.5415192 55.7861404,16.8172574 55.1440643,16.3035965 C54.5019882,15.7899356 53.7135187,15.5331051 52.7786559,15.5331051 C51.8540663,15.5331051 51.0681651,15.784799 50.4209524,16.2881866 C49.7737397,16.7915743 49.278057,17.5106996 48.9339042,18.4455624 C48.5897514,19.3804252 48.417675,20.4950693 48.417675,21.7894947 Z" id="Shape"></path>
                        <path d="M84.0760136,23.4075265 L84.0760136,9.95474794 L91.5960089,9.95474794 L91.5960089,33.6242415 L84.4150298,33.6242415 L84.4150298,29.2170311 L84.1684725,29.2170311 C83.6445384,30.6655548 82.7533368,31.8135869 81.4948676,32.6611273 C80.2363985,33.5086678 78.7185306,33.932438 76.9412639,33.932438 C75.3283687,33.932438 73.9106647,33.5626022 72.6881518,32.8229305 C71.4656389,32.0832588 70.5153662,31.0482322 69.8373339,29.7178505 C69.1593015,28.3874688 68.8151487,26.828508 68.8048755,25.0409681 L68.8048755,9.95474794 L76.3402807,9.95474794 L76.3402807,23.5616248 C76.3505539,24.845777 76.6895701,25.8576889 77.3573292,26.5973606 C78.0250884,27.3370323 78.9342681,27.7068681 80.0848685,27.7068681 C80.8348134,27.7068681 81.5102775,27.5399283 82.1112607,27.2060487 C82.7122439,26.8721692 83.1899486,26.3841913 83.5443746,25.7421152 C83.8988006,25.1000391 84.0760136,24.3218429 84.0760136,23.4075265 Z" id="Path"></path>
                    </g>
                    <g id="125">
                        <polygon id="Path" points="26.3517724 0.807275304 14.6174493 0.807275304 0 10.06211 0 21.1333142 13.5218613 12.6569235 13.8678365 12.6569235 13.8678365 59.8536975 26.3517724 59.8536975"></polygon>
                        <path d="M40.3926344,59.8536975 L82.4862752,59.8536975 L82.4862752,49.6474312 L57.6913909,49.6474312 L57.6913909,49.2437936 L66.3119379,40.7962341 C78.4498987,29.7250299 81.7078312,24.1894279 81.7078312,17.4717441 C81.7078312,7.23664648 73.3467655,0 60.689842,0 C48.2923998,0 39.7871779,7.40963404 39.8159361,18.9998009 L51.6656574,18.9998009 C51.6368261,13.3488738 55.2119024,9.88912248 60.6033482,9.88912248 C65.7929752,9.88912248 69.6563641,13.1182237 69.6563641,18.3078506 C69.6563641,23.0073462 66.773238,26.2364474 61.4106235,31.3972431 L40.3926344,50.8583442 L40.3926344,59.8536975 Z" id="Path"></path>
                        <path d="M113.105123,60.6609729 C126.252178,60.6609729 135.189869,52.0980884 135.161116,40.1619464 C135.189869,28.8600921 127.290103,20.7296766 116.651368,20.7296766 C111.461741,20.7296766 106.992896,22.8920211 104.917045,25.8039785 L104.57107,25.8039785 L106.099127,11.0135416 L131.903105,11.0135416 L131.903105,0.807275304 L95.8063665,0.807275304 L93.0097342,31.945037 L104.10977,33.934394 C105.926139,31.4837369 109.443553,29.95568 112.932135,29.95568 C118.871375,29.9845113 123.138402,34.2803692 123.138402,40.4790902 C123.138402,46.6201488 118.957869,50.8583442 113.105123,50.8583442 C108.146146,50.8583442 104.138601,47.744568 103.850288,43.1603975 L91.7411587,43.1603975 C91.9718088,53.3666639 100.880668,60.6609729 113.105123,60.6609729 Z" id="Path"></path>
                    </g>
                </g>
                <g id="Group-35" transform="translate(26.689892, 89.812776)" fill="#FFFFFF" fill-rule="nonzero">
                    <g id="Lot" transform="translate(54.806228, 25.482584)">
                        <polygon id="Path" points="0 31.5593247 0 0 7.62786414 0 7.62786414 25.3645745 20.7570363 25.3645745 20.7570363 31.5593247"></polygon>
                        <path d="M35.7507976,32.0062097 C33.2646789,32.0062097 31.1304179,31.4951171 29.3480146,30.472932 C27.5656114,29.4507468 26.1941368,28.0227696 25.233591,26.1890002 C24.2730451,24.3552308 23.7927722,22.2261065 23.7927722,19.8016271 C23.7927722,17.3668745 24.2730451,15.2326135 25.233591,13.3988442 C26.1941368,11.5650748 27.5656114,10.1370976 29.3480146,9.1149124 C31.1304179,8.09272724 33.2646789,7.58163466 35.7507976,7.58163466 C38.2369162,7.58163466 40.3711772,8.09272724 42.1535805,9.1149124 C43.9359838,10.1370976 45.3074583,11.5650748 46.2680042,13.3988442 C47.22855,15.2326135 47.708823,17.3668745 47.708823,19.8016271 C47.708823,22.2261065 47.22855,24.3552308 46.2680042,26.1890002 C45.3074583,28.0227696 43.9359838,29.4507468 42.1535805,30.472932 C40.3711772,31.4951171 38.2369162,32.0062097 35.7507976,32.0062097 Z M35.797027,26.3199837 C36.7010702,26.3199837 37.4664249,26.0426068 38.0930912,25.4878531 C38.7197575,24.9330993 39.2000304,24.162608 39.53391,23.1763791 C39.8677896,22.1901502 40.0347293,21.049823 40.0347293,19.7553976 C40.0347293,18.4404258 39.8677896,17.2898254 39.53391,16.3035965 C39.2000304,15.3173676 38.7197575,14.5468762 38.0930912,13.9921225 C37.4664249,13.4373687 36.7010702,13.1599919 35.797027,13.1599919 C34.8621642,13.1599919 34.0736948,13.4373687 33.4316187,13.9921225 C32.7895426,14.5468762 32.3015647,15.3173676 31.9676851,16.3035965 C31.6338056,17.2898254 31.4668658,18.4404258 31.4668658,19.7553976 C31.4668658,21.049823 31.6338056,22.1901502 31.9676851,23.1763791 C32.3015647,24.162608 32.7895426,24.9330993 33.4316187,25.4878531 C34.0736948,26.0426068 34.8621642,26.3199837 35.797027,26.3199837 Z" id="Shape"></path>
                        <path d="M64.937009,7.88983119 L64.937009,13.4373687 L50.0048871,13.4373687 L50.0048871,7.88983119 L64.937009,7.88983119 Z M53.1330819,2.21901502 L60.6684871,2.21901502 L60.6684871,24.1163785 C60.6684871,24.5786733 60.7429679,24.9510775 60.8919296,25.233591 C61.0408912,25.5161044 61.2591971,25.7164322 61.5468472,25.8345742 C61.8344973,25.9527162 62.1786501,26.0117872 62.5793056,26.0117872 C62.8669557,26.0117872 63.1725839,25.9835358 63.4961902,25.9270331 C63.8197966,25.8705304 64.0637855,25.8217327 64.228157,25.7806398 L65.3684842,31.2203086 C65.0089215,31.3230407 64.5029656,31.451456 63.8506162,31.6055542 C63.1982669,31.7596525 62.4200707,31.8572481 61.5160275,31.8983409 C59.7490341,31.9805267 58.2363028,31.772494 56.9778336,31.274243 C55.7193644,30.7759919 54.7588186,29.9977957 54.0961961,28.9396542 C53.4335735,27.8815128 53.1125355,26.5511311 53.1330819,24.9485092 L53.1330819,2.21901502 Z" id="Shape"></path>
                    </g>
                    <g id="5">
                        <path d="M21.3639643,59.8536975 C34.5110193,59.8536975 43.4487101,51.2908131 43.4199575,39.3546711 C43.4487101,28.0528168 35.5489446,19.9224013 24.9102094,19.9224013 C19.7205824,19.9224013 15.251737,22.0847458 13.1758862,24.9967032 L12.8299111,24.9967032 L14.3579679,10.2062663 L40.1619464,10.2062663 L40.1619464,0 L4.06520778,0 L1.26857548,31.1377617 L12.3686109,33.1271187 C14.1849803,30.6764616 17.7023942,29.1484047 21.1909767,29.1484047 C27.1302165,29.177236 31.3972431,33.4730939 31.3972431,39.6718149 C31.3972431,45.8128735 27.2167103,50.0510689 21.3639643,50.0510689 C16.4049874,50.0510689 12.3974422,46.9372927 12.1091296,42.3531222 L0,42.3531222 C0.230650087,52.5593885 9.13950969,59.8536975 21.3639643,59.8536975 Z" id="Path"></path>
                    </g>
                </g>
                <g id="Dapat-Voucher-Copy-4" transform="translate(198.328569, 47.378017)" fill="#FFFFFF" fill-rule="nonzero">
                    <path d="M5.77420562,16.5113648 C10.7371592,16.5113648 13.7435638,13.4413326 13.7435638,8.35112384 C13.7435638,3.27682192 10.7371592,0.222696636 5.82192633,0.222696636 L0,0.222696636 L0,16.5113648 L5.77420562,16.5113648 Z M3.4438444,13.5606344 L3.4438444,3.17342706 L5.63899695,3.17342706 C8.69312224,3.17342706 10.3076728,4.73230351 10.3076728,8.35112384 C10.3076728,11.9858511 8.69312224,13.5606344 5.6310435,13.5606344 L3.4438444,13.5606344 Z" id="Shape"></path>
                    <path d="M19.096252,16.5113648 L20.3051766,12.7971031 L26.1827771,12.7971031 L27.3917017,16.5113648 L31.0821031,16.5113648 L25.4669665,0.222696636 L21.0289407,0.222696636 L15.4058506,16.5113648 L19.096252,16.5113648 Z M21.1800563,10.1088366 L23.184326,3.94491183 L23.3115812,3.94491183 L25.3158509,10.1088366 L21.1800563,10.1088366 Z" id="Shape"></path>
                    <path d="M33.0386681,16.5113648 L36.4825125,16.5113648 L36.4825125,11.2302732 L39.3775688,11.2302732 C43.1236443,11.2302732 45.30289,8.99535339 45.30289,5.74239182 C45.30289,2.50533715 43.1634116,0.222696636 39.4650567,0.222696636 L33.0386681,0.222696636 L33.0386681,16.5113648 Z M36.4825125,8.4704256 L36.4825125,3.03821839 L38.8049203,3.03821839 C40.7932831,3.03821839 41.7556507,4.11988776 41.7556507,5.74239182 C41.7556507,7.35694243 40.7932831,8.4704256 38.8208272,8.4704256 L36.4825125,8.4704256 Z" id="Shape"></path>
                    <path d="M50.3533453,16.5113648 L51.5622699,12.7971031 L57.4398704,12.7971031 L58.648795,16.5113648 L62.3391964,16.5113648 L56.7240598,0.222696636 L52.286034,0.222696636 L46.662944,16.5113648 L50.3533453,16.5113648 Z M52.4371496,10.1088366 L54.4414193,3.94491183 L54.5686745,3.94491183 L56.5729442,10.1088366 L52.4371496,10.1088366 Z" id="Shape"></path>
                    <polygon id="Path" points="63.6753922 3.06207874 68.6622061 3.06207874 68.6622061 16.5113648 72.0662833 16.5113648 72.0662833 3.06207874 77.0530972 3.06207874 77.0530972 0.222696636 63.6753922 0.222696636"></polygon>
                    <polygon id="Path" points="87.4005566 0.222696636 83.5749465 0.222696636 89.1980366 16.5113648 93.6360624 16.5113648 99.251199 0.222696636 95.4335424 0.222696636 91.4886305 12.5982668 91.337515 12.5982668"></polygon>
                    <path d="M116.176159,8.36703074 C116.176159,3.03821839 112.867524,0 108.548799,0 C104.206215,0 100.92144,3.03821839 100.92144,8.36703074 C100.92144,13.6719827 104.206215,16.7340615 108.548799,16.7340615 C112.867524,16.7340615 116.176159,13.6958431 116.176159,8.36703074 Z M112.684594,8.36703074 C112.684594,11.8188286 111.046183,13.6878896 108.548799,13.6878896 C106.043462,13.6878896 104.413005,11.8188286 104.413005,8.36703074 C104.413005,4.91523289 106.043462,3.04617184 108.548799,3.04617184 C111.046183,3.04617184 112.684594,4.91523289 112.684594,8.36703074 Z" id="Shape"></path>
                    <path d="M128.782396,0.222696636 L128.782396,10.5065091 C128.782396,12.3676167 127.47803,13.71175 125.47376,13.71175 C123.477444,13.71175 122.165125,12.3676167 122.165125,10.5065091 L122.165125,0.222696636 L118.72128,0.222696636 L118.72128,10.8007868 C118.72128,14.363933 121.409547,16.7420149 125.47376,16.7420149 C129.522067,16.7420149 132.226241,14.363933 132.226241,10.8007868 L132.226241,0.222696636 L128.782396,0.222696636 Z" id="Path"></path>
                    <path d="M149.429571,5.9253212 C148.976225,2.16333875 146.128889,0 142.358953,0 C138.056136,0 134.771361,3.03821839 134.771361,8.36703074 C134.771361,13.6799362 138.000462,16.7340615 142.358953,16.7340615 C146.534515,16.7340615 149.055759,13.958307 149.429571,10.9598559 L145.94596,10.943949 C145.619868,12.6857548 144.251875,13.6878896 142.414627,13.6878896 C139.941104,13.6878896 138.262926,11.8506424 138.262926,8.36703074 C138.262926,4.9788605 139.917244,3.04617184 142.438488,3.04617184 C144.323456,3.04617184 145.683496,4.13579466 145.94596,5.9253212 L149.429571,5.9253212 Z" id="Path"></path>
                    <polygon id="Path" points="151.903111 16.5113648 155.346955 16.5113648 155.346955 9.78274506 162.338039 9.78274506 162.338039 16.5113648 165.77393 16.5113648 165.77393 0.222696636 162.338039 0.222696636 162.338039 6.94336296 155.346955 6.94336296 155.346955 0.222696636 151.903111 0.222696636"></polygon>
                    <polygon id="Path" points="168.613328 16.5113648 179.620904 16.5113648 179.620904 13.6719827 172.057172 13.6719827 172.057172 9.78274506 179.024395 9.78274506 179.024395 6.94336296 172.057172 6.94336296 172.057172 3.06207874 179.589091 3.06207874 179.589091 0.222696636 168.613328 0.222696636"></polygon>
                    <path d="M182.333044,16.5113648 L185.776889,16.5113648 L185.776889,10.7371592 L188.290179,10.7371592 L191.376118,16.5113648 L195.177868,16.5113648 L191.718117,10.1804176 C193.571271,9.3850725 194.597266,7.77052189 194.597266,5.54355554 C194.597266,2.30650087 192.457788,0.222696636 188.759433,0.222696636 L182.333044,0.222696636 L182.333044,16.5113648 Z M185.776889,7.96935817 L185.776889,3.03821839 L188.099296,3.03821839 C190.087659,3.03821839 191.050027,3.92105148 191.050027,5.54355554 C191.050027,7.15810614 190.087659,7.96935817 188.115203,7.96935817 L185.776889,7.96935817 Z" id="Shape"></path>
                </g>
                <g id="Group-8" transform="translate(174.316741, 18.163121)" fill="#3D27BE">
                    <ellipse id="Oval-Copy-20" cx="2.80026894" cy="25.1489362" rx="2.80026894" ry="2.79432624"></ellipse>
                    <ellipse id="Oval-Copy-26" cx="2.80026894" cy="2.79432624" rx="2.80026894" ry="2.79432624"></ellipse>
                    <ellipse id="Oval-Copy-33" cx="2.80026894" cy="47.5035461" rx="2.80026894" ry="2.79432624"></ellipse>
                    <ellipse id="Oval-Copy-32" cx="2.80026894" cy="69.858156" rx="2.80026894" ry="2.79432624"></ellipse>
                    <ellipse id="Oval-Copy-31" cx="2.80026894" cy="92.212766" rx="2.80026894" ry="2.79432624"></ellipse>
                    <ellipse id="Oval-Copy-30" cx="2.80026894" cy="114.567376" rx="2.80026894" ry="2.79432624"></ellipse>
                    <ellipse id="Oval-Copy-29" cx="2.80026894" cy="136.921986" rx="2.80026894" ry="2.79432624"></ellipse>
                    <ellipse id="Oval-Copy-28" cx="2.80026894" cy="159.276596" rx="2.80026894" ry="2.79432624"></ellipse>
                </g>
            </g>
        </g>
    </g>
</svg>