<?xml version="1.0" encoding="UTF-8"?>
<svg width="40px" height="40px" viewBox="0 0 40 40" version="1.1" xmlns="http://www.w3.org/2000/svg" xmlns:xlink="http://www.w3.org/1999/xlink">
    <!-- Generator: Sketch 64 (93537) - https://sketch.com -->
    <title>facebook</title>
    <desc>Created with Sketch.</desc>
    <g id="Page-1" stroke="none" stroke-width="1" fill="none" fill-rule="evenodd">
        <g id="LandX-Website-v3_homepage" transform="translate(-352.000000, -5720.000000)" fill="#5E798D" fill-rule="nonzero">
            <g id="Group-46" transform="translate(0.000000, 4526.000000)">
                <g id="Group-42" transform="translate(256.000000, 414.000000)">
                    <g id="Group-9" transform="translate(0.000000, 778.000000)">
                        <g id="Group-41" transform="translate(0.000000, 2.000000)">
                            <g id="facebook" transform="translate(96.000000, 0.000000)">
                                <path d="M40,2.20535714 L40,37.7857143 C40,39.0089286 39.0089286,39.9910714 37.7946429,39.9910714 L27.5982143,39.9910714 L27.5982143,24.5089286 L32.7946429,24.5089286 L33.5714286,18.4732143 L27.5892857,18.4732143 L27.5892857,14.6160714 C27.5892857,12.8660714 28.0714286,11.6785714 30.5803571,11.6785714 L33.7767857,11.6785714 L33.7767857,6.27678571 C33.2232143,6.20535714 31.3303571,6.03571429 29.1160714,6.03571429 C24.5089286,6.03571429 21.3482143,8.84821429 21.3482143,14.0178571 L21.3482143,18.4732143 L16.1339286,18.4732143 L16.1339286,24.5089286 L21.3482143,24.5089286 L21.3482143,40 L2.20535714,40 C0.991071429,40 0,39.0089286 0,37.7946429 L0,2.20535714 C0,0.991071429 0.991071429,0 2.20535714,0 L37.7857143,0 C39.0089286,0 40,0.991071429 40,2.20535714 Z" id="Path"></path>
                            </g>
                        </g>
                    </g>
                </g>
            </g>
        </g>
    </g>
</svg>