<?xml version="1.0" encoding="UTF-8"?>
<svg width="32px" height="32px" viewBox="0 0 32 32" version="1.1" xmlns="http://www.w3.org/2000/svg" xmlns:xlink="http://www.w3.org/1999/xlink">
    <!-- Generator: Sketch 64 (93537) - https://sketch.com -->
    <title>Group 2</title>
    <desc>Created with Sketch.</desc>
    <g id="Page-1" stroke="none" stroke-width="1" fill="none" fill-rule="evenodd">
        <g id="LandX-Website-v3-Navigation" transform="translate(-56.000000, -57.000000)">
            <g id="Group-49">
                <g id="Group-2" transform="translate(48.000000, 48.000000)">
                    <rect id="Rectangle" x="0" y="0" width="48" height="48"></rect>
                    <g id="Group" transform="translate(8.000000, 9.000000)" fill-rule="nonzero">
                        <polygon id="Fill-2" fill="#5E798D" transform="translate(6.454058, 6.454058) rotate(45.000000) translate(-6.454058, -6.454058) " points="-0.045941546 8.45405845 12.9540585 8.45405845 12.9540585 4.45405845 -0.045941546 4.45405845"></polygon>
                        <polygon id="Fill-2" fill="#5E798D" transform="translate(25.545942, 25.545942) scale(-1, 1) rotate(-45.000000) translate(-25.545942, -25.545942) " points="19.0459415 27.5459415 32.0459415 27.5459415 32.0459415 23.5459415 19.0459415 23.5459415"></polygon>
                        <g id="Group-50" transform="translate(16.000000, 16.000000) rotate(-45.000000) translate(-16.000000, -16.000000) translate(-4.000000, 14.000000)" fill="#2DBE60">
                            <polygon id="Fill-2" points="0 4 28 4 28 1.11022302e-15 0 1.11022302e-15"></polygon>
                            <polygon id="Fill-2" points="34 4 40 4 40 1.11022302e-15 34 1.11022302e-15"></polygon>
                        </g>
                    </g>
                </g>
            </g>
        </g>
    </g>
</svg>