<?xml version="1.0" encoding="utf-8"?>
<!-- Generator: Adobe Illustrator 24.1.2, SVG Export Plug-In . SVG Version: 6.00 Build 0)  -->
<svg version="1.1" id="Layer_1" xmlns="http://www.w3.org/2000/svg" xmlns:xlink="http://www.w3.org/1999/xlink" x="0px" y="0px"
	 viewBox="0 0 24 24" style="enable-background:new 0 0 24 24;" xml:space="preserve">
<style type="text/css">
	.st0{fill-rule:evenodd;clip-rule:evenodd;fill:#5E798D;}
</style>
<g>
	<g transform="translate(-200.000000, -160.000000)">
		<path class="st0" d="M212.8,184h-11.5c-0.7,0-1.3-0.6-1.3-1.3v-21.4c0-0.7,0.6-1.3,1.3-1.3h21.4c0.7,0,1.3,0.6,1.3,1.3v21.4
			c0,0.7-0.6,1.3-1.3,1.3h-6.1v-9.3h3.1l0.5-3.6h-3.6v-2.3c0-1,0.3-1.8,1.8-1.8h1.9v-3.2c-0.3,0-1.5-0.1-2.8-0.1
			c-2.8,0-4.7,1.7-4.7,4.8v2.7h-3.1v3.6h3.1L212.8,184L212.8,184z"/>
	</g>
</g>
</svg>
