<?xml version="1.0" encoding="utf-8"?>
<!-- Generator: Adobe Illustrator 24.1.2, SVG Export Plug-In . SVG Version: 6.00 Build 0)  -->
<svg version="1.1" id="Layer_1" xmlns="http://www.w3.org/2000/svg" xmlns:xlink="http://www.w3.org/1999/xlink" x="0px" y="0px"
	 viewBox="0 0 24 24" style="enable-background:new 0 0 24 24;" xml:space="preserve">
<style type="text/css">
	.st0{fill:#5E798D;}
</style>
<desc>Created with Sketch.</desc>
<g id="Page-1">
	<g id="LandX-Website-v3_homepage" transform="translate(-448.000000, -5720.000000)">
		<g id="Group-46" transform="translate(0.000000, 4526.000000)">
			<g id="Group-42" transform="translate(256.000000, 414.000000)">
				<g id="Group-9" transform="translate(0.000000, 778.000000)">
					<g id="Group-41" transform="translate(0.000000, 2.000000)">
						<g id="logo-instagram" transform="translate(192.000000, 0.000000)">
							<path id="Shape" class="st0" d="M17,2c2.8,0,5,2.2,5,5v10c0,2.8-2.2,5-5,5H7c-2.8,0-5-2.2-5-5V7c0-2.8,2.2-5,5-5H17 M17,0H7
								C3.2,0,0,3.2,0,7v10c0,3.9,3.2,7,7,7h10c3.9,0,7-3.1,7-7V7C24,3.2,20.9,0,17,0z"/>
							<path id="Path" class="st0" d="M18.5,7C17.7,7,17,6.3,17,5.5S17.7,4,18.5,4C19.3,4,20,4.7,20,5.5c0,0.4-0.2,0.8-0.4,1.1
								S18.9,7,18.5,7L18.5,7z"/>
							<path id="Shape_1_" class="st0" d="M12,8c1.6,0,3.1,1,3.7,2.5c0.6,1.5,0.3,3.2-0.9,4.4s-2.9,1.5-4.4,0.9C9,15.1,8,13.6,8,12
								C8,9.8,9.8,8,12,8 M12,6c-3.3,0-6,2.7-6,6s2.7,6,6,6s6-2.7,6-6c0-1.6-0.6-3.1-1.8-4.2C15.1,6.6,13.6,6,12,6z"/>
						</g>
					</g>
				</g>
			</g>
		</g>
	</g>
</g>
</svg>
