<?xml version="1.0" encoding="UTF-8"?>
<svg width="22px" height="22px" viewBox="0 0 22 22" version="1.1" xmlns="http://www.w3.org/2000/svg" xmlns:xlink="http://www.w3.org/1999/xlink">
    <!-- Generator: Sketch 64 (93537) - https://sketch.com -->
    <title>Group 3</title>
    <desc>Created with Sketch.</desc>
    <g id="Page-1" stroke="none" stroke-width="1" fill="none" fill-rule="evenodd">
        <g id="LandX-Website-v3_Kontak" transform="translate(-261.000000, -419.000000)">
            <g id="Group-3" transform="translate(256.000000, 414.000000)">
                <rect id="Rectangle" x="0" y="0" width="32" height="32"></rect>
                <path d="M18.3220227,9.80952381 C20.2248698,10.1807778 21.7126735,11.6685814 22.0839274,13.5714286 M18.3220227,6 C22.3025448,6.44220404 25.4462375,9.58194231 25.8934512,13.5619048 M24.9410703,21.1619048 L24.9410703,24.0190476 C24.9432472,24.5553763 24.7192112,25.0677699 24.3240016,25.4303475 C23.928792,25.7929251 23.3990359,25.9720839 22.8648798,25.9238095 C19.9342454,25.6053722 17.1191647,24.6039472 14.6458322,23 C12.3447161,21.5377751 10.3937714,19.5868304 8.93154647,17.2857143 C7.32200177,14.8011466 6.32034933,11.9723758 6.00773695,9.02857143 C5.9596162,8.49606889 6.13751982,7.96785945 6.49799007,7.57297243 C6.85846033,7.17808542 7.36830289,6.95288447 7.90297505,6.95228732 L10.7601179,6.95228732 C11.7161789,6.94297128 12.5310711,7.64377855 12.6648798,8.59047619 C12.7854732,9.50482519 13.0091174,10.402597 13.3315465,11.2666667 C13.5931989,11.9627381 13.4258465,12.7474345 12.902975,13.2761905 L11.6934512,14.4857143 C13.0492184,16.8700436 15.0234076,18.8442329 17.407737,20.2 L18.6172608,18.9904762 C19.1460167,18.4676047 19.9307131,18.3002524 20.6267846,18.5619048 C21.4908542,18.8843339 22.388626,19.1079781 23.302975,19.2285714 C24.2606538,19.3636765 24.9650608,20.1950406 24.9410703,21.1619048 L24.9410703,21.1619048 Z" id="Shape" stroke="#2DBE60" stroke-width="2" stroke-linecap="round" stroke-linejoin="round"></path>
                <g id="phone-call" transform="translate(6.000000, 4.000000)"></g>
            </g>
        </g>
    </g>
</svg>