<?xml version="1.0" encoding="UTF-8"?>
<svg width="20px" height="24px" viewBox="0 0 20 24" version="1.1" xmlns="http://www.w3.org/2000/svg" xmlns:xlink="http://www.w3.org/1999/xlink">
    <!-- Generator: Sketch 64 (93537) - https://sketch.com -->
    <title>Group 3</title>
    <desc>Created with Sketch.</desc>
    <g id="Page-1" stroke="none" stroke-width="1" fill="none" fill-rule="evenodd">
        <g id="LandX-Website-v3_Kontak" transform="translate(-262.000000, -466.000000)">
            <g id="Group-3" transform="translate(256.000000, 462.000000)">
                <rect id="Rectangle" x="0" y="0" width="32" height="32"></rect>
                <g id="map-marker" transform="translate(6.000000, 4.000000)" fill="#2DBE60" fill-rule="nonzero">
                    <path d="M9.6,0 C4.2980664,0 0,4.2980664 0,9.6 C0,16.08 8.46,23.4 8.82,23.712 C9.26906882,24.0961053 9.93093118,24.0961053 10.38,23.712 C10.8,23.4 19.2,16.08 19.2,9.6 C19.2,4.2980664 14.9019336,0 9.6,0 Z M9.6,21.18 C7.044,18.78 2.4,13.608 2.4,9.6 C2.4,5.6235498 5.6235498,2.4 9.6,2.4 C13.5764502,2.4 16.8,5.6235498 16.8,9.6 C16.8,13.608 12.156,18.792 9.6,21.18 Z M9.6,4.8 C6.9490332,4.8 4.8,6.9490332 4.8,9.6 C4.8,12.2509668 6.9490332,14.4 9.6,14.4 C12.2509668,14.4 14.4,12.2509668 14.4,9.6 C14.4,8.32696085 13.8942872,7.10606207 12.9941125,6.20588745 C12.0939379,5.30571283 10.8730392,4.8 9.6,4.8 Z M9.6,12 C8.2745166,12 7.2,10.9254834 7.2,9.6 C7.2,8.2745166 8.2745166,7.2 9.6,7.2 C10.9254834,7.2 12,8.2745166 12,9.6 C12,10.9254834 10.9254834,12 9.6,12 Z" id="Shape"></path>
                </g>
            </g>
        </g>
    </g>
</svg>