<?xml version="1.0" encoding="UTF-8"?>
<svg width="40px" height="40px" viewBox="0 0 40 40" version="1.1" xmlns="http://www.w3.org/2000/svg" xmlns:xlink="http://www.w3.org/1999/xlink">
    <!-- Generator: Sketch 64 (93537) - https://sketch.com -->
    <title>linkedin</title>
    <desc>Created with Sketch.</desc>
    <g id="Page-1" stroke="none" stroke-width="1" fill="none" fill-rule="evenodd">
        <g id="LandX-Website-v3_homepage" transform="translate(-256.000000, -5720.000000)" fill="#5E798D" fill-rule="nonzero">
            <g id="Group-46" transform="translate(0.000000, 4526.000000)">
                <g id="Group-42" transform="translate(256.000000, 414.000000)">
                    <g id="Group-9" transform="translate(0.000000, 778.000000)">
                        <g id="Group-41" transform="translate(0.000000, 2.000000)">
                            <g id="linkedin">
                                <path d="M37.1428571,0 L2.84821429,0 C1.27678571,0 0,1.29464286 0,2.88392857 L0,37.1160714 C0,38.7053571 1.27678571,40 2.84821429,40 L37.1428571,40 C38.7142857,40 40,38.7053571 40,37.1160714 L40,2.88392857 C40,1.29464286 38.7142857,0 37.1428571,0 Z M12.0892857,34.2857143 L6.16071429,34.2857143 L6.16071429,15.1964286 L12.0982143,15.1964286 L12.0982143,34.2857143 L12.0892857,34.2857143 Z M9.125,12.5892857 C7.22321429,12.5892857 5.6875,11.0446429 5.6875,9.15178571 C5.6875,7.25892857 7.22321429,5.71428571 9.125,5.71428571 C11.0178571,5.71428571 12.5625,7.25892857 12.5625,9.15178571 C12.5625,11.0535714 11.0267857,12.5892857 9.125,12.5892857 L9.125,12.5892857 Z M34.3125,34.2857143 L28.3839286,34.2857143 L28.3839286,25 C28.3839286,22.7857143 28.3392857,19.9375 25.3035714,19.9375 C22.2142857,19.9375 21.7410714,22.3482143 21.7410714,24.8392857 L21.7410714,34.2857143 L15.8125,34.2857143 L15.8125,15.1964286 L21.5,15.1964286 L21.5,17.8035714 L21.5803571,17.8035714 C22.375,16.3035714 24.3125,14.7232143 27.1964286,14.7232143 C33.1964286,14.7232143 34.3125,18.6785714 34.3125,23.8214286 L34.3125,34.2857143 L34.3125,34.2857143 Z" id="Shape"></path>
                            </g>
                        </g>
                    </g>
                </g>
            </g>
        </g>
    </g>
</svg>