<?xml version="1.0" encoding="UTF-8"?>
<svg width="40px" height="40px" viewBox="0 0 40 40" version="1.1" xmlns="http://www.w3.org/2000/svg" xmlns:xlink="http://www.w3.org/1999/xlink">
    <!-- Generator: Sketch 64 (93537) - https://sketch.com -->
    <title>logo-instagram</title>
    <desc>Created with Sketch.</desc>
    <g id="Page-1" stroke="none" stroke-width="1" fill="none" fill-rule="evenodd">
        <g id="LandX-Website-v3_homepage" transform="translate(-448.000000, -5720.000000)" fill="#5E798D" fill-rule="nonzero">
            <g id="Group-46" transform="translate(0.000000, 4526.000000)">
                <g id="Group-42" transform="translate(256.000000, 414.000000)">
                    <g id="Group-9" transform="translate(0.000000, 778.000000)">
                        <g id="Group-41" transform="translate(0.000000, 2.000000)">
                            <g id="logo-instagram" transform="translate(192.000000, 0.000000)">
                                <path d="M28.3330357,3.33303571 C32.9300389,3.34676406 36.6532359,7.0699611 36.6669643,11.6669643 L36.6669643,28.3330357 C36.6532359,32.9300389 32.9300389,36.6532359 28.3330357,36.6669643 L11.6669643,36.6669643 C7.0699611,36.6532359 3.34676406,32.9300389 3.33303571,28.3330357 L3.33303571,11.6669643 C3.34676406,7.0699611 7.0699611,3.34676406 11.6669643,3.33303571 L28.3330357,3.33303571 M28.3330357,0 L11.6669643,0 C5.25,0 0,5.25 0,11.6669643 L0,28.3330357 C0,34.75 5.25,40 11.6669643,40 L28.3330357,40 C34.75,40 40,34.75 40,28.3330357 L40,11.6669643 C40,5.25 34.75,0 28.3330357,0 Z" id="Shape"></path>
                                <path d="M30.8330357,11.6669643 C29.4523238,11.6669643 28.3330357,10.5476762 28.3330357,9.16696429 C28.3330357,7.78625241 29.4523238,6.66696429 30.8330357,6.66696429 C32.2137476,6.66696429 33.3330357,7.78625241 33.3330357,9.16696429 C33.334462,9.83044174 33.071528,10.4671556 32.6023775,10.9363061 C32.133227,11.4054566 31.4965132,11.6683906 30.8330357,11.6669643 L30.8330357,11.6669643 Z" id="Path"></path>
                                <path d="M20,13.3330357 C22.6965353,13.3330357 25.1275524,14.9573894 26.1594718,17.4486632 C27.1913912,19.939937 26.6209941,22.8075172 24.7142557,24.7142557 C22.8075172,26.6209941 19.939937,27.1913912 17.4486632,26.1594718 C14.9573894,25.1275524 13.3330357,22.6965353 13.3330357,20 C13.3369725,16.3195692 16.3195692,13.3369725 20,13.3330357 M20,10 C14.4771525,10 10,14.4771525 10,20 C10,25.5228475 14.4771525,30 20,30 C25.5228475,30 30,25.5228475 30,20 C30,17.3478351 28.9464316,14.804296 27.0710678,12.9289322 C25.195704,11.0535684 22.6521649,10 20,10 Z" id="Shape"></path>
                            </g>
                        </g>
                    </g>
                </g>
            </g>
        </g>
    </g>
</svg>